<svg width="630" height="483" viewBox="0 0 630 483" fill="none" xmlns="http://www.w3.org/2000/svg">
<path d="M630 418.761H0V419.081H630V418.761Z" fill="#EBEBEB"/>
<path d="M566.874 439.341H525.143V439.661H566.874V439.341Z" fill="#EBEBEB"/>
<path d="M417.338 442.82H406.389V443.14H417.338V442.82Z" fill="#EBEBEB"/>
<path d="M523.883 427.472H499.703V427.791H523.883V427.472Z" fill="#EBEBEB"/>
<path d="M120.519 429.621H66.0996V429.94H120.519V429.621Z" fill="#EBEBEB"/>
<path d="M139.722 429.621H131.746V429.94H139.722V429.621Z" fill="#EBEBEB"/>
<path d="M283.689 435.018H165.652V435.338H283.689V435.018Z" fill="#EBEBEB"/>
<path d="M298.62 361.716H55.3265C53.4206 361.712 51.5939 360.941 50.2473 359.572C48.9008 358.203 48.1445 356.347 48.1445 354.412V7.23943C48.1611 5.31577 48.9247 3.47643 50.2694 2.12095C51.6142 0.765459 53.4315 0.00329533 55.3265 0H298.62C300.528 0 302.358 0.769462 303.707 2.13911C305.057 3.50876 305.815 5.3664 305.815 7.30338V354.412C305.815 356.349 305.057 358.207 303.707 359.577C302.358 360.946 300.528 361.716 298.62 361.716ZM55.3265 0.255811C53.5041 0.259199 51.7575 0.996464 50.4701 2.30578C49.1826 3.6151 48.4595 5.38947 48.4595 7.23943V354.412C48.4595 356.262 49.1826 358.037 50.4701 359.346C51.7575 360.655 53.5041 361.393 55.3265 361.396H298.62C300.443 361.393 302.191 360.656 303.481 359.347C304.77 358.038 305.496 356.263 305.5 354.412V7.23943C305.496 5.3883 304.77 3.61395 303.481 2.305C302.191 0.996049 300.443 0.259192 298.62 0.255811H55.3265Z" fill="#EBEBEB"/>
<path d="M571.171 361.716H327.865C325.957 361.712 324.129 360.942 322.781 359.573C321.432 358.204 320.673 356.348 320.67 354.412V7.23943C320.69 5.3146 321.456 3.47528 322.803 2.12015C324.15 0.765012 325.968 0.00325939 327.865 0H571.171C573.063 0.00665682 574.877 0.770308 576.219 2.12544C577.562 3.48056 578.323 5.31798 578.34 7.23943V354.412C578.34 356.345 577.585 358.199 576.242 359.568C574.898 360.936 573.074 361.709 571.171 361.716ZM327.865 0.255811C326.041 0.259192 324.293 0.996049 323.004 2.305C321.714 3.61395 320.988 5.3883 320.985 7.23943V354.412C320.988 356.263 321.714 358.038 323.004 359.347C324.293 360.656 326.041 361.393 327.865 361.396H571.171C572.994 361.393 574.742 360.656 576.031 359.347C577.321 358.038 578.047 356.263 578.05 354.412V7.23943C578.047 5.3883 577.321 3.61395 576.031 2.305C574.742 0.996049 572.994 0.259192 571.171 0.255811H327.865Z" fill="#EBEBEB"/>
<path d="M558.406 29.8913V24.4041L555.66 24.1355C555.291 22.3122 554.585 20.5763 553.581 19.0193L555.37 16.8322L551.59 12.995L549.36 14.7985C547.826 13.7784 546.116 13.0623 544.32 12.688L544.068 9.86133H538.65L538.385 12.688C536.588 13.0609 534.878 13.777 533.345 14.7985L531.178 12.9822L527.398 16.8194L529.2 19.0577C528.189 20.6118 527.484 22.3489 527.121 24.1739L524.336 24.4425V29.9296L527.121 30.1982C527.484 32.0233 528.189 33.7603 529.2 35.3145L527.41 37.5016L531.19 41.3388L533.358 39.5225C534.891 40.5439 536.601 41.2601 538.398 41.633L538.662 44.4597H544.08L544.332 41.633C546.128 41.2587 547.838 40.5426 549.372 39.5225L551.539 41.3388L555.319 37.5016L553.53 35.3145C554.535 33.7575 555.24 32.0215 555.609 30.1982L558.406 29.8913ZM541.384 34.5342C539.933 34.5368 538.514 34.1023 537.306 33.2859C536.099 32.4695 535.157 31.3078 534.6 29.9477C534.043 28.5877 533.896 27.0906 534.177 25.6457C534.459 24.2009 535.156 22.8733 536.181 21.8309C537.206 20.7886 538.513 20.0783 539.936 19.7901C541.359 19.5018 542.834 19.6485 544.174 20.2115C545.515 20.7745 546.661 21.7287 547.468 22.9531C548.274 24.1776 548.704 25.6173 548.704 27.0902C548.704 29.0622 547.933 30.9537 546.561 32.3494C545.188 33.7451 543.326 34.5308 541.384 34.5342Z" fill="#E0E0E0"/>
<path d="M580.343 45.3934V41.0958L578.151 40.9295C577.859 39.516 577.307 38.171 576.525 36.9645L577.936 35.2378L574.938 32.1936L573.3 33.575C572.109 32.7732 570.779 32.2089 569.381 31.9122L569.179 29.6995H564.946L564.669 31.9762C563.271 32.275 561.941 32.8391 560.75 33.6389L559.062 32.2064L556.063 35.2505L557.461 36.9773C556.683 38.1857 556.132 39.5301 555.836 40.9423L553.656 41.1598V45.4574L555.836 45.6748C556.128 47.0883 556.679 48.4334 557.461 49.6399L556.063 51.3666L559.062 54.4107L560.7 52.9142C561.891 53.7141 563.221 54.2782 564.618 54.577L564.832 56.7898H569.066L569.268 54.577C570.666 54.2803 571.996 53.716 573.186 52.9142L574.887 54.3468L577.886 51.3026L576.475 49.5759C577.257 48.3694 577.808 47.0244 578.1 45.6109L580.343 45.3934ZM567 49.0771C565.863 49.0796 564.751 48.7397 563.804 48.1004C562.858 47.461 562.119 46.551 561.682 45.4855C561.246 44.42 561.13 43.2469 561.35 42.1146C561.571 40.9824 562.117 39.9419 562.92 39.125C563.723 38.308 564.747 37.7512 565.861 37.5252C566.976 37.2991 568.132 37.4138 569.183 37.8549C570.233 38.296 571.132 39.0435 571.763 40.0029C572.395 40.9624 572.733 42.0905 572.733 43.2446C572.733 44.7893 572.129 46.2708 571.054 47.3643C569.979 48.4577 568.521 49.0737 567 49.0771Z" fill="#E0E0E0"/>
<path d="M558.408 57.6214V54.0016L556.581 53.8226C556.337 52.6311 555.871 51.4979 555.207 50.4842L556.392 49.0389L553.872 46.4808L552.448 47.6831C551.446 47.0149 550.331 46.5421 549.159 46.289L548.983 44.4343H545.43L545.253 46.289C544.081 46.5421 542.966 47.0149 541.965 47.6831L540.541 46.4808L538.021 49.0389L539.193 50.4842C538.538 51.5013 538.077 52.6335 537.832 53.8226L535.992 54.0016V57.6214L537.832 57.7876C538.077 58.9767 538.538 60.1088 539.193 61.126L538.021 62.5713L540.541 65.1294L541.965 63.9399C542.964 64.6093 544.08 65.0782 545.253 65.3212L545.43 67.1887H548.983L549.159 65.3212C550.332 65.0782 551.449 64.6093 552.448 63.9399L553.872 65.1294L556.392 62.5713L555.207 61.126C555.871 60.1123 556.337 58.9791 556.581 57.7876L558.408 57.6214ZM547.206 60.7039C546.251 60.7064 545.317 60.4212 544.522 59.8845C543.726 59.3478 543.106 58.5836 542.739 57.6887C542.372 56.7937 542.274 55.8084 542.459 54.8573C542.644 53.9062 543.102 53.0321 543.777 52.3457C544.451 51.6593 545.311 51.1915 546.247 51.0014C547.184 50.8114 548.155 50.9076 549.037 51.278C549.92 51.6484 550.674 52.2763 551.205 53.0822C551.736 53.888 552.019 54.8357 552.019 55.8051C552.019 57.1021 551.513 58.3462 550.61 59.2645C549.708 60.1829 548.484 60.7005 547.206 60.7039Z" fill="#E0E0E0"/>
<path d="M63.5928 417.572L91.7412 227.646V417.572H99.3012V226.456L127.5 417.572H135.589L100.309 178.351L99.3012 178.505V170.715H91.7412V178.466L90.708 178.351L55.3398 417.572H63.5928Z" fill="#E0E0E0"/>
<path d="M134.266 204.878H56.373L62.6856 138.815H127.966L134.266 204.878Z" fill="#EBEBEB"/>
<path d="M315.001 476.523C449.925 476.523 559.302 470.041 559.302 462.045C559.302 454.048 449.925 447.566 315.001 447.566C180.077 447.566 70.6992 454.048 70.6992 462.045C70.6992 470.041 180.077 476.523 315.001 476.523Z" fill="#F5F5F5"/>
<path d="M559.44 48.1051V305.514C559.372 308.562 558.16 311.469 556.053 313.641C553.946 315.814 551.101 317.088 548.1 317.205H183.191C177.131 317.205 172.62 311.679 172.62 305.514V48.1051C172.578 46.671 172.82 45.2429 173.333 43.9059C173.846 42.5689 174.618 41.3503 175.605 40.3227C176.591 39.2951 177.771 38.4796 179.075 37.9246C180.378 37.3697 181.778 37.0867 183.191 37.0924H548.1C551.033 37.0607 553.861 38.1952 555.98 40.2533C558.1 42.3113 559.341 45.1296 559.44 48.1051Z" fill="#6FDA44"/>
<path opacity="0.1" d="M559.439 80.1838V305.514C559.371 308.562 558.159 311.469 556.052 313.641C553.945 315.814 551.1 317.088 548.099 317.205H183.191C177.13 317.205 172.619 311.679 172.619 305.514V217.81C204.724 155.136 281.256 144.981 370.855 181.625C497.699 233.504 551.791 163.092 559.439 80.1838Z" fill="#252525"/>
<path opacity="0.2" d="M459.8 287.787H274.681C273.01 287.787 271.408 287.113 270.226 285.913C269.045 284.714 268.381 283.087 268.381 281.391C268.381 279.695 269.045 278.069 270.226 276.869C271.408 275.67 273.01 274.996 274.681 274.996H459.8C461.471 274.996 463.073 275.67 464.255 276.869C465.436 278.069 466.1 279.695 466.1 281.391C466.1 283.087 465.436 284.714 464.255 285.913C463.073 287.113 461.471 287.787 459.8 287.787Z" fill="white"/>
<path d="M274.681 286.508C273.344 286.508 272.062 285.969 271.117 285.009C270.172 284.05 269.641 282.748 269.641 281.391C269.641 280.034 270.172 278.733 271.117 277.774C272.062 276.814 273.344 276.275 274.681 276.275H384.099C385.436 276.275 386.718 276.814 387.663 277.774C388.608 278.733 389.139 280.034 389.139 281.391C389.139 282.748 388.608 284.05 387.663 285.009C386.718 285.969 385.436 286.508 384.099 286.508H274.681Z" fill="#6FDA44"/>
<path opacity="0.7" d="M274.681 286.508C273.344 286.508 272.062 285.969 271.117 285.009C270.172 284.05 269.641 282.748 269.641 281.391C269.641 280.034 270.172 278.733 271.117 277.774C272.062 276.814 273.344 276.275 274.681 276.275H384.099C385.436 276.275 386.718 276.814 387.663 277.774C388.608 278.733 389.139 280.034 389.139 281.391C389.139 282.748 388.608 284.05 387.663 285.009C386.718 285.969 385.436 286.508 384.099 286.508H274.681Z" fill="#252525"/>
<path d="M201.513 297.073C213.256 306.653 209.161 352.379 211.366 359.413C213.571 366.448 223.021 372.204 223.021 372.204L209.841 387.872C209.841 387.872 198.816 385.928 190.437 367.702C182.058 349.475 201.513 297.073 201.513 297.073Z" fill="#263238"/>
<path opacity="0.2" d="M201.513 297.073C213.256 306.653 209.161 352.379 211.366 359.413C213.571 366.448 223.021 372.204 223.021 372.204L209.841 387.872C209.841 387.872 198.816 385.928 190.437 367.702C182.058 349.475 201.513 297.073 201.513 297.073Z" fill="white"/>
<path d="M189.001 397.465C189.001 397.465 273.421 373.56 283.98 403.63C294.539 433.701 217.981 457.657 175.608 459.179C133.234 460.702 115.921 430.414 128.421 401.724L189.001 397.465Z" fill="#6FDA44"/>
<path opacity="0.2" d="M189.001 397.465C189.001 397.465 273.421 373.56 283.98 403.63C294.539 433.701 217.981 457.657 175.608 459.179C133.234 460.702 115.921 430.414 128.421 401.724L189.001 397.465Z" fill="white"/>
<path d="M271.745 446.133C271.698 446.164 271.643 446.181 271.588 446.181C271.532 446.181 271.477 446.164 271.43 446.133C271.388 446.105 271.358 446.062 271.344 446.013C271.33 445.964 271.334 445.911 271.354 445.865C271.493 445.391 272.904 441.247 274.315 440.812C274.468 440.779 274.626 440.785 274.776 440.829C274.926 440.874 275.062 440.956 275.172 441.068C275.368 441.236 275.517 441.453 275.603 441.698C275.69 441.943 275.711 442.207 275.664 442.462C275.435 443.236 274.972 443.916 274.341 444.407C273.532 445.065 272.662 445.643 271.745 446.133ZM272.11 445.328C273.431 444.742 274.5 443.693 275.122 442.373C275.159 442.197 275.145 442.015 275.083 441.847C275.02 441.679 274.911 441.533 274.769 441.426C274.732 441.377 274.68 441.341 274.62 441.325C274.561 441.309 274.498 441.313 274.441 441.337C274.318 441.372 274.206 441.438 274.114 441.529C273.239 442.663 272.577 443.95 272.161 445.328H272.11Z" fill="#6FDA44"/>
<path d="M271.669 446.184C271.622 446.199 271.573 446.199 271.526 446.186C271.479 446.172 271.437 446.145 271.404 446.108C271.266 445.992 269.313 443.473 269.64 441.784C269.678 441.575 269.757 441.376 269.872 441.198C269.986 441.02 270.135 440.867 270.308 440.748C270.457 440.602 270.651 440.513 270.858 440.494C271.064 440.475 271.27 440.529 271.442 440.646C272.463 441.375 272.337 444.726 271.833 446.005V446.133L271.669 446.184ZM270.548 441.26C270.375 441.417 270.26 441.629 270.22 441.861C270.006 442.935 270.989 444.547 271.48 445.315C271.795 443.882 271.694 441.477 271.089 441.106C271.026 441.106 270.9 440.966 270.598 441.183L270.497 441.26H270.548Z" fill="#6FDA44"/>
<path d="M185.724 461.341C185.739 461.287 185.768 461.239 185.808 461.2C185.847 461.162 185.897 461.135 185.951 461.124C186 461.117 186.051 461.127 186.094 461.153C186.137 461.178 186.171 461.217 186.19 461.264C186.442 461.699 188.37 465.613 187.677 466.943C187.599 467.08 187.487 467.192 187.352 467.268C187.216 467.345 187.063 467.383 186.908 467.378C186.655 467.409 186.398 467.369 186.165 467.263C185.932 467.157 185.732 466.989 185.585 466.777C185.2 466.068 185.046 465.253 185.144 464.449C185.237 463.396 185.432 462.355 185.724 461.341ZM186.026 462.16C185.529 463.534 185.529 465.044 186.026 466.419C186.125 466.569 186.264 466.687 186.427 466.76C186.59 466.832 186.77 466.856 186.946 466.828C187.008 466.832 187.07 466.817 187.124 466.785C187.178 466.753 187.221 466.706 187.248 466.649C187.296 466.531 187.326 466.406 187.337 466.278C187.147 464.837 186.703 463.441 186.026 462.16Z" fill="#6FDA44"/>
<path d="M206.175 432.409L191.244 443.524L184.074 448.858L188.749 457.159L196.032 453.117L213.81 443.243L206.175 432.409Z" fill="#EBB376"/>
<path d="M191.066 456.903L186.555 446.811C186.496 446.678 186.411 446.559 186.305 446.461C186.2 446.362 186.075 446.286 185.94 446.237C185.805 446.188 185.662 446.167 185.518 446.176C185.375 446.184 185.235 446.222 185.106 446.286L180.243 448.704C180.243 448.704 173.477 451.479 172.683 453.705C170.163 460.228 179.6 482.803 182.536 482.816C183.607 482.816 184.25 481.128 184.401 480.053C184.867 476.626 184.955 468.03 185.384 465.178C185.888 461.853 189.164 459.294 190.739 458.271C190.942 458.118 191.087 457.897 191.147 457.647C191.206 457.397 191.178 457.134 191.066 456.903Z" fill="#263238"/>
<path d="M185.736 461.252C185.76 461.208 185.794 461.172 185.837 461.147C185.879 461.122 185.927 461.11 185.976 461.111C186.152 461.111 189.29 461.431 190.26 462.85C190.498 463.206 190.588 463.643 190.512 464.066C190.511 464.276 190.439 464.479 190.308 464.642C190.178 464.804 189.996 464.917 189.794 464.961C188.534 465.191 186.291 462.761 185.749 461.507V461.392C185.733 461.347 185.728 461.299 185.736 461.252ZM189.983 463.886C189.998 463.649 189.931 463.414 189.794 463.221C189.189 462.326 187.362 461.942 186.455 461.75C187.236 463.03 188.975 464.564 189.68 464.424C189.756 464.424 189.907 464.424 189.97 464.014V463.886H189.983Z" fill="#6FDA44"/>
<path opacity="0.2" d="M206.175 432.409L191.244 443.524L196.032 453.117L213.811 443.243L206.175 432.409Z" fill="white"/>
<path d="M199.434 453.743L204.348 452.63L196.196 436.821L191.635 441.541L199.434 453.743Z" fill="#6FDA44"/>
<path opacity="0.6" d="M199.434 453.743L204.348 452.63L196.196 436.821L191.635 441.541L199.434 453.743Z" fill="#252525"/>
<path d="M237.07 451.543L255.34 454.6L264.123 456.071L266.68 446.862L258.742 444.419L239.364 438.433L237.07 451.543Z" fill="#EBB376"/>
<path d="M264.891 445.366L260.935 455.688C260.884 455.825 260.861 455.971 260.866 456.117C260.871 456.263 260.904 456.406 260.964 456.539C261.023 456.672 261.108 456.792 261.214 456.892C261.319 456.992 261.443 457.069 261.577 457.121L266.68 458.95C266.68 458.95 273.371 461.917 275.5 460.97C281.8 458.208 291.15 435.594 289.096 433.458C288.34 432.678 286.714 433.394 285.845 434.046C283.111 436.093 277.025 442.053 274.694 443.729C271.998 445.699 267.877 445.085 266.088 444.688C265.842 444.639 265.586 444.68 265.367 444.804C265.148 444.928 264.979 445.127 264.891 445.366Z" fill="#263238"/>
<path opacity="0.2" d="M237.07 451.543L255.34 454.6L258.742 444.419L239.364 438.433L237.07 451.543Z" fill="white"/>
<path d="M255.592 442.552C255.592 442.552 179.639 397.069 153.935 398.284C128.231 399.499 126.001 425.413 136.597 439.802C147.194 454.191 166.837 457.709 166.837 457.709C166.837 457.709 153.506 438.523 155.434 433.202C157.362 427.881 164.708 445.916 164.708 445.916C164.708 445.916 211.769 452.17 252.769 455.701L255.592 442.552Z" fill="#6FDA44"/>
<path d="M256.801 441.324L252.58 438.446L247.162 455.342H253.664L256.801 441.324Z" fill="#6FDA44"/>
<path opacity="0.6" d="M256.801 441.324L252.58 438.446L247.162 455.342H253.664L256.801 441.324Z" fill="#252525"/>
<path d="M198.942 405.459C185.196 378.599 189.568 337.733 201.462 297.072C193.146 290.025 159.971 285.267 134.682 292.736C134.682 292.736 118.63 353.12 120.52 419.081L198.942 405.459Z" fill="#263238"/>
<path d="M169.76 303.672C158.71 303.672 151.516 291.905 151.516 291.905C166.006 286.789 166.056 271.223 166.056 271.223L171.638 276.761L179.588 284.666C172.973 289.424 176.098 293.542 178.202 295.371C178.633 295.762 179.097 296.113 179.588 296.42C179.588 296.42 180.811 303.672 169.76 303.672Z" fill="#EBB376"/>
<path opacity="0.2" d="M178.203 295.371C164.645 296.919 165.603 276.313 165.603 276.313C167.636 276.281 169.668 276.431 171.676 276.761L179.626 284.666C172.974 289.424 176.098 293.542 178.203 295.371Z" fill="white"/>
<path d="M188.786 255.81C183.658 257.959 184.64 263.651 193.158 274.024C198.4 269.432 201.247 258.995 198.488 255.644C195.728 252.293 193.271 253.904 188.786 255.81Z" fill="#263238"/>
<path d="M196.371 278.833C195.906 280.221 195.359 281.58 194.733 282.901C189.693 293.376 175.102 295.41 168.651 285.049L168.575 284.947C164.317 277.976 165.917 271.466 167.693 260.185C168.089 257.57 169.133 255.1 170.728 253.007C172.322 250.915 174.415 249.268 176.809 248.222C179.202 247.176 181.819 246.764 184.412 247.027C187.005 247.289 189.49 248.217 191.633 249.722C200.126 255.721 199.622 269.202 196.371 278.833Z" fill="#EBB376"/>
<path d="M183.381 267.002C183.18 267.91 183.495 268.754 184.074 268.882C184.654 269.01 185.334 268.396 185.486 267.488C185.637 266.58 185.372 265.748 184.805 265.608C184.238 265.467 183.633 266.119 183.381 267.002Z" fill="#263238"/>
<path d="M193.512 269.33C193.31 270.225 193.625 271.07 194.218 271.197C194.81 271.325 195.478 270.724 195.641 269.803C195.805 268.882 195.515 268.051 194.936 267.923C194.356 267.795 193.714 268.422 193.512 269.33Z" fill="#263238"/>
<path d="M190.109 268.997C190.55 272.009 191.398 274.944 192.629 277.72C190.689 278.846 188.182 277.554 188.182 277.554L190.109 268.997Z" fill="#D58745"/>
<path d="M181.327 263.126C181.207 263.119 181.094 263.064 181.012 262.973C180.962 262.923 180.922 262.863 180.895 262.797C180.868 262.732 180.854 262.661 180.854 262.589C180.854 262.518 180.868 262.447 180.895 262.381C180.922 262.315 180.962 262.256 181.012 262.206C181.644 261.619 182.406 261.197 183.233 260.974C184.06 260.751 184.928 260.735 185.763 260.927C185.894 260.963 186.007 261.05 186.075 261.17C186.144 261.29 186.163 261.432 186.128 261.566C186.082 261.701 185.988 261.814 185.864 261.882C185.741 261.951 185.597 261.97 185.46 261.937C184.797 261.784 184.106 261.795 183.448 261.971C182.79 262.147 182.183 262.482 181.68 262.947C181.588 263.049 181.463 263.113 181.327 263.126Z" fill="#263238"/>
<path d="M198.891 266.912C198.793 266.885 198.704 266.832 198.633 266.757C198.562 266.683 198.512 266.591 198.488 266.49C198.352 265.821 198.061 265.195 197.641 264.661C197.221 264.128 196.682 263.703 196.069 263.421C195.936 263.369 195.827 263.267 195.766 263.136C195.705 263.004 195.696 262.855 195.741 262.717C195.79 262.583 195.888 262.473 196.015 262.411C196.142 262.349 196.288 262.339 196.422 262.385C197.202 262.727 197.891 263.254 198.43 263.921C198.97 264.589 199.344 265.377 199.521 266.222C199.538 266.291 199.542 266.362 199.531 266.432C199.52 266.502 199.496 266.57 199.46 266.631C199.424 266.691 199.376 266.744 199.319 266.786C199.263 266.827 199.199 266.857 199.131 266.874H198.891V266.912Z" fill="#263238"/>
<path d="M174.233 251.359C178.958 254.314 177.093 259.775 167.063 268.626C162.59 263.254 161.419 252.472 164.682 249.633C167.945 246.793 170.1 248.788 174.233 251.359Z" fill="#263238"/>
<path d="M160.499 267.936C160.58 269.358 160.936 270.75 161.548 272.031C162.16 273.313 163.015 274.46 164.065 275.405C166.887 277.964 169.898 275.738 170.465 272.182C170.982 268.972 170.113 263.804 166.685 262.679C163.258 261.553 160.31 264.418 160.499 267.936Z" fill="#EBB376"/>
<path d="M179.588 277.669C179.588 277.669 180.747 281.737 186.115 282.683" stroke="#263238" stroke-width="0.0991943" stroke-linecap="round" stroke-linejoin="round"/>
<path d="M189.24 269.074C189.24 269.833 189.018 270.575 188.603 271.206C188.187 271.837 187.597 272.329 186.906 272.619C186.216 272.91 185.455 272.986 184.722 272.838C183.989 272.69 183.315 272.324 182.787 271.788C182.258 271.251 181.898 270.567 181.752 269.823C181.606 269.078 181.681 268.307 181.967 267.606C182.254 266.905 182.738 266.305 183.36 265.884C183.981 265.462 184.712 265.237 185.46 265.237C186.462 265.237 187.424 265.641 188.133 266.361C188.841 267.081 189.24 268.057 189.24 269.074Z" stroke="#263238" stroke-width="0.0991943" stroke-linecap="round" stroke-linejoin="round"/>
<path d="M199.535 271.223C199.535 271.982 199.313 272.723 198.898 273.354C198.482 273.985 197.892 274.477 197.201 274.768C196.51 275.058 195.75 275.134 195.017 274.986C194.284 274.838 193.61 274.473 193.082 273.936C192.553 273.399 192.193 272.716 192.047 271.971C191.901 271.227 191.976 270.455 192.262 269.754C192.548 269.053 193.033 268.454 193.655 268.032C194.276 267.611 195.007 267.385 195.755 267.385C196.757 267.385 197.719 267.79 198.427 268.509C199.136 269.229 199.535 270.205 199.535 271.223Z" stroke="#263238" stroke-width="0.0991943" stroke-linecap="round" stroke-linejoin="round"/>
<path d="M189.24 270.123C189.69 269.878 190.215 269.816 190.709 269.949C191.202 270.082 191.627 270.4 191.899 270.839" stroke="#263238" stroke-width="0.0991943" stroke-linecap="round" stroke-linejoin="round"/>
<path d="M181.68 268.281C181.68 268.281 170.731 263.6 168.689 263.165" stroke="#263238" stroke-width="0.0991943" stroke-linecap="round" stroke-linejoin="round"/>
<path d="M164.569 249.786C164.569 249.786 163.435 240.756 172.519 239.259C181.604 237.763 193.486 240.078 197.165 238.479C197.021 239.279 196.715 240.04 196.266 240.714C195.817 241.388 195.235 241.96 194.557 242.393C194.557 242.393 201.487 244.951 206.943 242.751C206.943 242.751 204.574 249.415 201.512 251.973H204.12C204.12 251.973 198.954 256.987 192.667 257.089C186.379 257.192 180.457 248.404 174.233 251.359C168.008 254.314 164.569 249.786 164.569 249.786Z" fill="#263238"/>
<path opacity="0.4" d="M196.372 278.833C195.907 280.221 195.36 281.58 194.734 282.901C189.694 293.376 175.103 295.41 168.652 285.05L168.576 284.947C165.25 278.948 167.908 272.4 167.908 272.4L169.849 266.004L171.26 264.585C171.26 264.585 171.588 271.07 172.583 272.899C173.578 274.728 179.248 275.265 180.408 275.585C181.567 275.904 184.314 279.23 185.674 280.125C187.035 281.021 191.974 280.279 192.617 281.021C193.26 281.762 196.372 278.833 196.372 278.833Z" fill="white"/>
<path opacity="0.2" d="M139.723 381.797L165.855 411.215C165.855 411.215 194.734 410.563 229.813 427.971C229.813 427.971 267.449 412.187 270.914 399.077C274.379 385.967 191.899 395.24 191.899 395.24L139.723 381.797Z" fill="white"/>
<path d="M147.106 373.163L189.001 387.079C189.001 387.079 203.97 383.715 206.641 383.715C209.313 383.715 219.657 392.247 213.811 395.227C207.964 398.207 192 398.591 190.261 397.631C188.523 396.672 142.066 385.634 142.066 385.634L147.106 373.163Z" fill="#EBB376"/>
<path d="M134.682 292.737C144.157 290.869 127.714 349.501 131.746 358.134C135.778 366.768 151.516 372.204 151.516 372.204L144.271 388.435C144.271 388.435 122.851 384.329 111.196 369.249C99.5406 354.169 119.209 295.781 134.682 292.737Z" fill="#263238"/>
<path opacity="0.2" d="M134.682 292.737C144.157 290.869 127.714 349.501 131.746 358.134C135.778 366.768 151.516 372.204 151.516 372.204L144.271 388.435C144.271 388.435 122.851 384.329 111.196 369.249C99.5406 354.169 119.209 295.781 134.682 292.737Z" fill="white"/>
<path d="M151.515 370.925L142.695 388.461L150.255 390.111L157.185 373.969L151.515 370.925Z" fill="#263238"/>
<path opacity="0.2" d="M151.515 370.925L142.695 388.461L150.255 390.111L157.185 373.969L151.515 370.925Z" fill="#252525"/>
<path d="M168.84 395.227V398.015C168.842 398.945 169.197 399.838 169.83 400.51C170.463 401.181 171.327 401.58 172.242 401.622H273.533C274.478 401.595 275.378 401.21 276.057 400.542C276.736 399.875 277.144 398.973 277.2 398.015V395.227H168.84Z" fill="#263238"/>
<path opacity="0.2" d="M168.84 395.227V398.015C168.842 398.945 169.197 399.838 169.83 400.51C170.463 401.181 171.327 401.58 172.242 401.622H273.533C274.478 401.595 275.378 401.21 276.057 400.542C276.736 399.875 277.144 398.973 277.2 398.015V395.227H168.84Z" fill="#252525"/>
<path opacity="0.2" d="M206.641 395.227V398.015C206.646 398.946 207.003 399.839 207.639 400.511C208.274 401.182 209.139 401.58 210.055 401.622H273.534C274.479 401.595 275.379 401.21 276.058 400.542C276.737 399.875 277.144 398.973 277.201 398.015V395.227H206.641Z" fill="#252525"/>
<path d="M210.054 399.064H276.973C278.047 399.011 279.082 398.637 279.948 397.988C280.813 397.339 281.47 396.446 281.837 395.419L297.183 346.546C297.359 346.13 297.429 345.675 297.386 345.224C297.343 344.773 297.189 344.34 296.938 343.966C296.687 343.591 296.347 343.287 295.949 343.08C295.552 342.874 295.11 342.773 294.663 342.786H227.694C226.612 342.866 225.575 343.264 224.712 343.932C223.848 344.6 223.195 345.508 222.831 346.546L207.484 395.355C207.306 395.773 207.237 396.23 207.283 396.682C207.329 397.135 207.489 397.568 207.747 397.94C208.005 398.312 208.352 398.611 208.756 398.807C209.16 399.004 209.607 399.093 210.054 399.064Z" fill="#263238"/>
<path opacity="0.2" d="M210.054 399.064H276.973C278.047 399.011 279.082 398.637 279.948 397.988C280.813 397.339 281.47 396.446 281.837 395.419L297.183 346.546C297.359 346.13 297.429 345.675 297.386 345.224C297.343 344.773 297.189 344.34 296.938 343.966C296.687 343.591 296.347 343.287 295.949 343.08C295.552 342.874 295.11 342.773 294.663 342.786H227.694C226.612 342.866 225.575 343.264 224.712 343.932C223.848 344.6 223.195 345.508 222.831 346.546L207.484 395.355C207.306 395.773 207.237 396.23 207.283 396.682C207.329 397.135 207.489 397.568 207.747 397.94C208.005 398.312 208.352 398.611 208.756 398.807C209.16 399.004 209.607 399.093 210.054 399.064Z" fill="#252525"/>
<path opacity="0.2" d="M212.576 399.064H276.974C278.049 399.011 279.084 398.637 279.949 397.988C280.815 397.339 281.472 396.446 281.838 395.419L297.185 346.546C297.361 346.13 297.43 345.675 297.387 345.224C297.344 344.773 297.19 344.34 296.939 343.966C296.688 343.591 296.348 343.287 295.951 343.08C295.553 342.874 295.111 342.773 294.665 342.786H230.216C229.133 342.866 228.097 343.264 227.233 343.932C226.37 344.6 225.716 345.508 225.352 346.546L210.005 395.355C209.828 395.773 209.759 396.23 209.805 396.682C209.851 397.135 210.01 397.568 210.268 397.94C210.526 398.312 210.874 398.611 211.278 398.807C211.682 399.004 212.129 399.093 212.576 399.064Z" fill="#252525"/>
<path opacity="0.2" d="M258.704 365.566L249.443 372.23L253.45 378.881L262.711 372.23L258.704 365.566Z" fill="#252525"/>
<path opacity="0.2" d="M305.058 49.4993H220.323C214.241 49.4993 209.311 54.5042 209.311 60.6782V146.694C209.311 152.868 214.241 157.873 220.323 157.873H305.058C311.14 157.873 316.07 152.868 316.07 146.694V60.6782C316.07 54.5042 311.14 49.4993 305.058 49.4993Z" fill="white"/>
<path d="M319.472 37.604H248.484C243.383 37.604 239.248 41.8015 239.248 46.9795V119.041C239.248 124.219 243.383 128.417 248.484 128.417H319.472C324.573 128.417 328.708 124.219 328.708 119.041V46.9795C328.708 41.8015 324.573 37.604 319.472 37.604Z" fill="#6FDA44"/>
<path opacity="0.3" d="M319.472 37.604H248.484C243.383 37.604 239.248 41.8015 239.248 46.9795V119.041C239.248 124.219 243.383 128.417 248.484 128.417H319.472C324.573 128.417 328.708 124.219 328.708 119.041V46.9795C328.708 41.8015 324.573 37.604 319.472 37.604Z" fill="#252525"/>
<path d="M290.87 72.5223V67.0351L288.085 66.7665C287.72 64.942 287.014 63.2054 286.006 61.6503L287.795 59.4504L284.015 55.6132L281.861 57.4295C280.327 56.4094 278.617 55.6933 276.821 55.319L276.543 52.4412H271.138L270.899 55.319C269.102 55.6933 267.392 56.4094 265.859 57.4295L263.704 55.6132L259.924 59.4504L261.713 61.6503C260.705 63.2054 259.999 64.942 259.634 66.7665L256.85 67.0351V72.5223L259.634 72.7909C260.003 74.6142 260.708 76.3501 261.713 77.9071L259.924 80.107L263.704 83.9442L265.859 82.1279C267.392 83.148 269.102 83.8641 270.899 84.2384L271.163 87.0651H276.569L276.833 84.2384C278.629 83.8641 280.339 83.148 281.873 82.1279L284.028 83.9442L287.808 80.107L286.019 77.8687C287.023 76.3118 287.729 74.5758 288.098 72.7525L290.87 72.5223ZM273.847 77.2164C272.396 77.2189 270.976 76.7842 269.768 75.9672C268.56 75.1502 267.618 73.9877 267.062 72.6269C266.505 71.2662 266.359 69.7684 266.642 68.3232C266.924 66.878 267.623 65.5504 268.649 64.5086C269.675 63.4667 270.983 62.7575 272.407 62.4707C273.831 62.1838 275.306 62.3323 276.647 62.8973C277.987 63.4623 279.132 64.4185 279.937 65.6446C280.742 66.8707 281.17 68.3117 281.168 69.7851C281.164 71.755 280.392 73.6432 279.02 75.0361C277.648 76.429 275.788 77.213 273.847 77.2164Z" fill="#252525"/>
<path d="M312.794 88.0371V83.7267L310.615 83.522C310.326 82.1034 309.775 80.7534 308.989 79.5442L310.388 77.8302L307.439 74.7861L305.751 76.2058C304.56 75.4083 303.23 74.8484 301.832 74.5559L301.631 72.3303H297.359L297.158 74.5559C295.76 74.8484 294.43 75.4083 293.239 76.2058L291.551 74.7861L288.539 77.8302L289.938 79.5442C289.152 80.7534 288.601 82.1034 288.313 83.522L286.133 83.7267V88.0371L288.313 88.2417C288.601 89.6604 289.152 91.0104 289.938 92.2196L288.539 93.9335L291.538 96.9776L293.227 95.5579C294.418 96.3554 295.748 96.9154 297.145 97.2079L297.347 99.4206H301.593L301.795 97.2079C303.192 96.9154 304.522 96.3554 305.713 95.5579L307.402 96.9776L310.4 93.9335L309.002 92.2196C309.787 91.0104 310.339 89.6604 310.627 88.2417L312.794 88.0371ZM299.451 91.7079C298.315 91.7079 297.204 91.3659 296.259 90.725C295.314 90.0841 294.578 89.1732 294.143 88.1075C293.708 87.0417 293.594 85.869 293.816 84.7376C294.038 83.6062 294.585 82.567 295.388 81.7513C296.192 80.9356 297.216 80.3801 298.33 80.1551C299.445 79.93 300.6 80.0455 301.65 80.487C302.7 80.9284 303.597 81.676 304.228 82.6351C304.86 83.5943 305.197 84.7219 305.197 85.8755C305.197 87.4223 304.591 88.9059 303.514 89.9997C302.436 91.0935 300.975 91.7079 299.451 91.7079Z" fill="#252525"/>
<path d="M290.87 100.252V96.6323L289.031 96.466C288.791 95.2752 288.329 94.142 287.67 93.1276L288.842 91.6823L286.322 89.1242L284.898 90.3137C283.896 89.6487 282.781 89.1802 281.609 88.9324L281.433 87.0649H277.867L277.691 88.9324C276.519 89.1802 275.404 89.6487 274.402 90.3137L272.978 89.1242L270.458 91.6823L271.63 93.1276C270.971 94.142 270.509 95.2752 270.269 96.466L268.43 96.6323V100.252L270.269 100.431C270.513 101.62 270.975 102.753 271.63 103.769L270.458 105.215L272.978 107.773L274.402 106.583C275.406 107.247 276.52 107.719 277.691 107.977L277.867 109.832H281.433L281.609 107.977C282.78 107.719 283.894 107.247 284.898 106.583L286.322 107.773L288.842 105.215L287.67 103.769C288.325 102.753 288.787 101.62 289.031 100.431L290.87 100.252ZM279.719 103.334C278.764 103.337 277.829 103.052 277.033 102.514C276.238 101.977 275.617 101.212 275.251 100.316C274.884 99.4206 274.787 98.4346 274.973 97.4832C275.159 96.5317 275.619 95.6577 276.294 94.9718C276.97 94.2859 277.831 93.8191 278.768 93.6305C279.706 93.4419 280.677 93.5399 281.559 93.9123C282.442 94.2847 283.195 94.9145 283.724 95.7221C284.254 96.5296 284.535 97.4785 284.533 98.4485C284.533 99.7443 284.025 100.987 283.123 101.903C282.22 102.82 280.996 103.334 279.719 103.334Z" fill="#252525"/>
<path opacity="0.2" d="M323.252 37.604H252.263C247.162 37.604 243.027 41.8015 243.027 46.9795V119.041C243.027 124.219 247.162 128.417 252.263 128.417H323.252C328.352 128.417 332.487 124.219 332.487 119.041V46.9795C332.487 41.8015 328.352 37.604 323.252 37.604Z" fill="#252525"/>
<path opacity="0.2" d="M458.954 154.688H380.62C374.998 154.688 370.439 159.315 370.439 165.023V244.542C370.439 250.25 374.998 254.877 380.62 254.877H458.954C464.577 254.877 469.135 250.25 469.135 244.542V165.023C469.135 159.315 464.577 154.688 458.954 154.688Z" fill="white"/>
<path d="M469.4 149.329H403.767C399.055 149.329 395.236 153.206 395.236 157.989V224.614C395.236 229.397 399.055 233.273 403.767 233.273H469.4C474.111 233.273 477.93 229.397 477.93 224.614V157.989C477.93 153.206 474.111 149.329 469.4 149.329Z" fill="#6FDA44"/>
<path opacity="0.2" d="M469.4 149.329H403.767C399.055 149.329 395.236 153.206 395.236 157.989V224.614C395.236 229.397 399.055 233.273 403.767 233.273H469.4C474.111 233.273 477.93 229.397 477.93 224.614V157.989C477.93 153.206 474.111 149.329 469.4 149.329Z" fill="#252525"/>
<path d="M439.74 204.789C439.74 205.389 439.565 205.976 439.236 206.474C438.907 206.973 438.44 207.362 437.894 207.591C437.347 207.82 436.746 207.879 436.167 207.761C435.587 207.643 435.055 207.353 434.638 206.928C434.221 206.503 433.937 205.961 433.823 205.372C433.71 204.784 433.771 204.174 433.999 203.62C434.226 203.066 434.611 202.594 435.104 202.262C435.597 201.931 436.175 201.755 436.766 201.758C437.556 201.761 438.313 202.082 438.87 202.65C439.427 203.218 439.74 203.987 439.74 204.789Z" fill="#252525"/>
<path d="M436.501 174.552C432.607 174.551 428.751 175.328 425.154 176.84C421.556 178.352 418.287 180.568 415.533 183.363C412.78 186.158 410.596 189.477 409.107 193.129C407.618 196.781 406.852 200.696 406.854 204.648H430.529C430.489 203.847 430.618 203.047 430.906 202.3C431.194 201.554 431.635 200.877 432.199 200.316C432.764 199.755 433.439 199.322 434.181 199.046C434.922 198.77 435.713 198.656 436.501 198.714C437.107 198.743 437.705 198.86 438.278 199.059L449.379 185.974L441.541 201.451C442.154 202.4 442.475 203.513 442.461 204.648H466.2C466.2 200.692 465.431 196.774 463.938 193.119C462.445 189.464 460.256 186.144 457.498 183.349C454.74 180.554 451.465 178.338 447.863 176.829C444.26 175.319 440.399 174.546 436.501 174.552Z" fill="#252525"/>
<path opacity="0.2" d="M472.89 149.329H407.257C402.546 149.329 398.727 153.206 398.727 157.989V224.614C398.727 229.397 402.546 233.273 407.257 233.273H472.89C477.601 233.273 481.42 229.397 481.42 224.614V157.989C481.42 153.206 477.601 149.329 472.89 149.329Z" fill="#252525"/>
<path opacity="0.2" d="M483.008 74.6199H414.275C409.341 74.6199 405.342 78.68 405.342 83.6884V153.461C405.342 158.469 409.341 162.529 414.275 162.529H483.008C487.942 162.529 491.942 158.469 491.942 153.461V83.6884C491.942 78.68 487.942 74.6199 483.008 74.6199Z" fill="white"/>
<path d="M493.641 66.8689H436.047C431.913 66.8689 428.562 70.2704 428.562 74.4665V132.932C428.562 137.128 431.913 140.529 436.047 140.529H493.641C497.775 140.529 501.126 137.128 501.126 132.932V74.4665C501.126 70.2704 497.775 66.8689 493.641 66.8689Z" fill="#6FDA44"/>
<path opacity="0.1" d="M493.641 66.8689H436.047C431.913 66.8689 428.562 70.2704 428.562 74.4665V132.932C428.562 137.128 431.913 140.529 436.047 140.529H493.641C497.775 140.529 501.126 137.128 501.126 132.932V74.4665C501.126 70.2704 497.775 66.8689 493.641 66.8689Z" fill="#252525"/>
<path d="M485.099 85.5556C485.099 84.9145 484.848 84.2996 484.402 83.8462C483.955 83.3929 483.349 83.1382 482.718 83.1382H447.161C446.529 83.1382 445.923 83.3929 445.477 83.8462C445.03 84.2996 444.779 84.9145 444.779 85.5556V93.5113C444.779 94.1524 445.03 94.7673 445.477 95.2206C445.923 95.674 446.529 95.9287 447.161 95.9287H482.718C483.349 95.9287 483.955 95.674 484.402 95.2206C484.848 94.7673 485.099 94.1524 485.099 93.5113V85.5556ZM473.356 89.866H471.315V87.7939H473.356V89.866ZM478.812 90.902C478.405 90.9046 478.006 90.7841 477.666 90.556C477.326 90.3279 477.061 90.0024 476.904 89.6209C476.747 89.2395 476.706 88.8192 476.784 88.4136C476.863 88.008 477.059 87.6353 477.347 87.343C477.635 87.0507 478.002 86.8518 478.402 86.7718C478.801 86.6918 479.215 86.7341 479.591 86.8935C479.967 87.0529 480.288 87.3221 480.512 87.6669C480.737 88.0117 480.856 88.4165 480.853 88.83C480.853 89.1031 480.8 89.3736 480.697 89.6259C480.593 89.8781 480.442 90.1071 480.251 90.2997C480.06 90.4922 479.833 90.6446 479.584 90.748C479.335 90.8514 479.068 90.9037 478.799 90.902H478.812Z" fill="#252525"/>
<path d="M485.099 99.6252C485.099 98.984 484.848 98.3692 484.402 97.9158C483.955 97.4625 483.349 97.2078 482.718 97.2078H447.161C446.529 97.2078 445.923 97.4625 445.477 97.9158C445.03 98.3692 444.779 98.984 444.779 99.6252V107.581C444.779 108.222 445.03 108.837 445.477 109.29C445.923 109.744 446.529 109.998 447.161 109.998H482.718C483.349 109.998 483.955 109.744 484.402 109.29C484.848 108.837 485.099 108.222 485.099 107.581V99.6252ZM473.356 104.741H471.315V102.669H473.356V104.741ZM478.812 105.777C478.408 105.777 478.014 105.656 477.678 105.428C477.342 105.201 477.081 104.877 476.926 104.498C476.772 104.12 476.731 103.703 476.81 103.301C476.889 102.899 477.083 102.53 477.369 102.24C477.654 101.95 478.018 101.753 478.414 101.673C478.81 101.593 479.22 101.634 479.593 101.791C479.966 101.948 480.285 102.213 480.509 102.554C480.733 102.895 480.853 103.296 480.853 103.705C480.853 103.978 480.8 104.248 480.696 104.499C480.593 104.751 480.441 104.979 480.25 105.171C480.059 105.362 479.832 105.513 479.583 105.615C479.334 105.717 479.068 105.768 478.799 105.765L478.812 105.777Z" fill="#252525"/>
<path d="M485.099 113.695C485.099 113.054 484.848 112.439 484.402 111.986C483.955 111.532 483.349 111.278 482.718 111.278H447.161C446.529 111.278 445.923 111.532 445.477 111.986C445.03 112.439 444.779 113.054 444.779 113.695V121.651C444.779 122.292 445.03 122.907 445.477 123.36C445.923 123.813 446.529 124.068 447.161 124.068H482.718C483.349 124.068 483.955 123.813 484.402 123.36C484.848 122.907 485.099 122.292 485.099 121.651V113.695ZM473.356 119.604H471.315V117.532H473.356V119.604ZM478.812 120.64C478.408 120.64 478.014 120.519 477.678 120.291C477.342 120.063 477.081 119.74 476.926 119.361C476.772 118.983 476.731 118.566 476.81 118.164C476.889 117.762 477.083 117.393 477.369 117.103C477.654 116.813 478.018 116.616 478.414 116.536C478.81 116.456 479.22 116.497 479.593 116.654C479.966 116.811 480.285 117.076 480.509 117.417C480.733 117.758 480.853 118.158 480.853 118.568C480.853 118.841 480.8 119.112 480.697 119.364C480.593 119.616 480.442 119.845 480.251 120.038C480.06 120.23 479.833 120.383 479.584 120.486C479.335 120.59 479.068 120.642 478.799 120.64H478.812Z" fill="#252525"/>
<path opacity="0.2" d="M496.716 66.8689H439.121C434.988 66.8689 431.637 70.2704 431.637 74.4665V132.932C431.637 137.128 434.988 140.529 439.121 140.529H496.716C500.849 140.529 504.2 137.128 504.2 132.932V74.4665C504.2 70.2704 500.849 66.8689 496.716 66.8689Z" fill="#252525"/>
<path opacity="0.2" d="M359.855 142.691H275.12C269.038 142.691 264.107 147.696 264.107 153.87V239.886C264.107 246.06 269.038 251.065 275.12 251.065H359.855C365.937 251.065 370.867 246.06 370.867 239.886V153.87C370.867 147.696 365.937 142.691 359.855 142.691Z" fill="white"/>
<path d="M369.38 135.03H298.392C293.291 135.03 289.156 139.227 289.156 144.405V216.467C289.156 221.645 293.291 225.842 298.392 225.842H369.38C374.481 225.842 378.616 221.645 378.616 216.467V144.405C378.616 139.227 374.481 135.03 369.38 135.03Z" fill="#6FDA44"/>
<path opacity="0.5" d="M369.38 135.03H298.392C293.291 135.03 289.156 139.227 289.156 144.405V216.467C289.156 221.645 293.291 225.842 298.392 225.842H369.38C374.481 225.842 378.616 221.645 378.616 216.467V144.405C378.616 139.227 374.481 135.03 369.38 135.03Z" fill="#252525"/>
<path d="M309.141 205.365C308.491 204.705 307.976 203.923 307.624 203.061C307.273 202.2 307.092 201.277 307.092 200.344C307.092 199.412 307.273 198.489 307.624 197.627C307.976 196.766 308.491 195.983 309.141 195.324L325.521 178.773C325.885 178.4 326.319 178.103 326.797 177.901C327.275 177.698 327.787 177.594 328.305 177.594C328.823 177.594 329.336 177.698 329.814 177.901C330.292 178.103 330.726 178.4 331.09 178.773L335.399 183.135C335.767 183.506 336.06 183.947 336.259 184.433C336.459 184.919 336.562 185.441 336.562 185.968C336.562 186.495 336.459 187.016 336.259 187.502C336.06 187.989 335.767 188.43 335.399 188.801L319.082 205.365C318.434 206.035 317.66 206.567 316.807 206.93C315.953 207.294 315.037 207.481 314.111 207.481C313.186 207.481 312.27 207.294 311.416 206.93C310.563 206.567 309.789 206.035 309.141 205.365Z" fill="#252525"/>
<path d="M339.203 178.108L335.99 174.847L354.424 156.134L358.443 155.315L357.637 159.396L339.203 178.108Z" fill="#252525"/>
<path d="M337.39 182.444L331.72 176.675C331.596 176.556 331.498 176.412 331.43 176.253C331.363 176.093 331.328 175.921 331.328 175.748C331.328 175.574 331.363 175.403 331.43 175.243C331.498 175.084 331.596 174.94 331.72 174.821C331.838 174.693 331.981 174.591 332.139 174.521C332.297 174.452 332.468 174.416 332.64 174.416C332.813 174.416 332.983 174.452 333.141 174.521C333.3 174.591 333.442 174.693 333.56 174.821L339.23 180.576C339.356 180.696 339.456 180.841 339.525 181.001C339.593 181.162 339.629 181.335 339.629 181.51C339.629 181.685 339.593 181.858 339.525 182.019C339.456 182.18 339.356 182.324 339.23 182.444C339.112 182.572 338.97 182.673 338.811 182.743C338.653 182.813 338.483 182.849 338.31 182.849C338.138 182.849 337.967 182.813 337.809 182.743C337.651 182.673 337.508 182.572 337.39 182.444Z" fill="#252525"/>
<path d="M329.755 171.393L321.981 163.476C323.43 159.523 320.494 154.663 317.306 153.384L317.243 159.472C317.243 160.151 316.978 160.801 316.505 161.281C316.032 161.761 315.391 162.03 314.723 162.03C314.055 162.03 313.414 161.761 312.941 161.281C312.469 160.801 312.203 160.151 312.203 159.472V153.486C310.741 154.088 309.478 155.101 308.563 156.406C307.647 157.711 307.118 159.254 307.037 160.853C307.056 162.742 307.748 164.56 308.984 165.971C310.221 167.381 311.92 168.29 313.766 168.528C315.05 168.728 316.364 168.541 317.546 167.991L325.383 175.972L329.755 171.393Z" fill="#252525"/>
<path d="M355.634 201.425V207.475C357.096 206.873 358.359 205.861 359.274 204.556C360.189 203.251 360.719 201.707 360.8 200.108C360.812 198.227 360.156 196.405 358.953 194.974C357.75 193.544 356.079 192.601 354.248 192.318C353.043 192.065 351.79 192.19 350.657 192.676L342.517 184.388L338.057 188.916L346.146 197.14C343.802 202.001 347.406 206.094 350.644 207.373V201.361C350.644 200.683 350.91 200.032 351.382 199.552C351.855 199.073 352.496 198.803 353.164 198.803C353.496 198.81 353.824 198.883 354.128 199.018C354.432 199.154 354.706 199.349 354.936 199.593C355.165 199.837 355.345 200.124 355.465 200.438C355.585 200.753 355.642 201.088 355.634 201.425Z" fill="#252525"/>
<path opacity="0.2" d="M373.162 135.03H302.173C297.073 135.03 292.938 139.227 292.938 144.405V216.467C292.938 221.645 297.073 225.842 302.173 225.842H373.162C378.262 225.842 382.397 221.645 382.397 216.467V144.405C382.397 139.227 378.262 135.03 373.162 135.03Z" fill="#252525"/>
<path d="M350.594 118.594L436.173 118.594C442.318 118.594 447.299 113.537 447.299 107.3V20.4266C447.299 14.189 442.318 9.13254 436.173 9.13254L350.594 9.13254C344.449 9.13254 339.468 14.189 339.468 20.4266V107.3C339.468 113.537 344.449 118.594 350.594 118.594Z" fill="#6FDA44"/>
<path opacity="0.2" d="M430 26.5146H327.864C320.53 26.5146 314.584 32.5504 314.584 39.9958V143.676C314.584 151.121 320.53 157.157 327.864 157.157H430C437.335 157.157 443.28 151.121 443.28 143.676V39.9958C443.28 32.5504 437.335 26.5146 430 26.5146Z" fill="white"/>
<path opacity="0.5" d="M350.594 118.594L436.173 118.594C442.318 118.594 447.299 113.537 447.299 107.3V20.4266C447.299 14.189 442.318 9.13254 436.173 9.13254L350.594 9.13254C344.449 9.13254 339.468 14.189 339.468 20.4266V107.3C339.468 113.537 344.449 118.594 350.594 118.594Z" fill="#252525"/>
<path d="M393.346 29.9426L360.359 43.0913C360.359 43.0913 364.53 89.1371 393.384 97.7707C422.251 89.1371 426.421 43.0913 426.421 43.0913L393.346 29.9426ZM392.515 74.5303C392.3 74.8167 392.024 75.0497 391.707 75.2115C391.391 75.3733 391.042 75.4597 390.688 75.4641C390.329 75.4581 389.978 75.3671 389.66 75.1983C389.343 75.0295 389.069 74.7876 388.861 74.492L377.281 58.2864C377.105 58.0403 376.978 57.7614 376.908 57.4656C376.838 57.1698 376.826 56.8629 376.873 56.5624C376.92 56.262 377.024 55.9738 377.181 55.7143C377.337 55.4549 377.543 55.2293 377.785 55.0504C378.028 54.8715 378.302 54.7428 378.594 54.6717C378.885 54.6006 379.187 54.5885 379.483 54.636C379.779 54.6835 380.063 54.7897 380.319 54.9486C380.574 55.1075 380.797 55.316 380.973 55.562L390.751 69.2223L406.727 47.811C407.092 47.3236 407.633 47.0029 408.23 46.919C408.828 46.8351 409.433 46.9949 409.915 47.3633C410.388 47.7735 410.694 48.3466 410.775 48.9723C410.857 49.598 410.707 50.2321 410.356 50.7528L392.515 74.5303Z" fill="#252525"/>
<path opacity="0.2" d="M355.143 118.594L440.722 118.594C446.866 118.594 451.848 113.537 451.848 107.3V20.4266C451.848 14.189 446.866 9.13254 440.722 9.13254L355.143 9.13254C348.998 9.13254 344.017 14.189 344.017 20.4266V107.3C344.017 113.537 348.998 118.594 355.143 118.594Z" fill="#252525"/>
<path d="M545.655 294.092H438.24V367.676H545.655V294.092Z" fill="#6FDA44"/>
<path opacity="0.7" d="M545.655 294.092H438.24V367.676H545.655V294.092Z" fill="#252525"/>
<path d="M543.387 299.759H440.23V365.22H543.387V299.759Z" fill="#263238"/>
<path d="M529.766 309.901H444.955V311.82H529.766V309.901Z" fill="#E0E0E0"/>
<path d="M517.153 315.337H444.955V317.256H517.153V315.337Z" fill="#E0E0E0"/>
<path d="M529.766 320.773H444.955V322.692H529.766V320.773Z" fill="#E0E0E0"/>
<path d="M517.153 326.209H444.955V328.128H517.153V326.209Z" fill="#E0E0E0"/>
<path d="M454.115 331.645H444.955V333.564H454.115V331.645Z" fill="#E0E0E0"/>
<path d="M491.94 337.081H444.955V339H491.94V337.081Z" fill="#E0E0E0"/>
<path d="M517.153 342.517H444.955V344.436H517.153V342.517Z" fill="#E0E0E0"/>
<path d="M454.115 347.953H444.955V349.872H454.115V347.953Z" fill="#E0E0E0"/>
<path d="M454.115 353.389H444.955V355.307H454.115V353.389Z" fill="#E0E0E0"/>
<path d="M235.909 141.003H128.494V214.587H235.909V141.003Z" fill="#6FDA44"/>
<path opacity="0.7" d="M235.909 141.003H128.494V214.587H235.909V141.003Z" fill="#252525"/>
<path d="M233.654 146.669H130.498V212.131H233.654V146.669Z" fill="#263238"/>
<path d="M220.033 156.812H135.223V158.73H220.033V156.812Z" fill="#E0E0E0"/>
<path d="M207.421 162.248H135.223V164.166H207.421V162.248Z" fill="#E0E0E0"/>
<path d="M220.033 167.684H135.223V169.602H220.033V167.684Z" fill="#E0E0E0"/>
<path d="M207.421 173.12H135.223V175.038H207.421V173.12Z" fill="#E0E0E0"/>
<path d="M144.383 178.556H135.223V180.474H144.383V178.556Z" fill="#E0E0E0"/>
<path d="M182.208 183.991H135.223V185.91H182.208V183.991Z" fill="#E0E0E0"/>
<path d="M207.421 189.427H135.223V191.346H207.421V189.427Z" fill="#E0E0E0"/>
<path d="M144.383 194.863H135.223V196.782H144.383V194.863Z" fill="#E0E0E0"/>
<path d="M144.383 200.3H135.223V202.218H144.383V200.3Z" fill="#E0E0E0"/>
</svg>
