<svg width="32" height="32" viewBox="0 0 32 32" fill="none" xmlns="http://www.w3.org/2000/svg">
<rect width="32" height="32" fill="#1E1E1E"/>
<g id="Landing Page Design">
<path d="M-2999 -11628C-2999 -11629.1 -2998.1 -11630 -2997 -11630H10905C10906.1 -11630 10907 -11629.1 10907 -11628V3990C10907 3991.1 10906.1 3992 10905 3992H-2997C-2998.1 3992 -2999 3991.1 -2999 3990V-11628Z" fill="#333333"/>
<path d="M-2997 -11629H10905V-11631H-2997V-11629ZM10906 -11628V3990H10908V-11628H10906ZM10905 3991H-2997V3993H10905V3991ZM-2998 3990V-11628H-3000V3990H-2998ZM-2997 3991C-2997.55 3991 -2998 3990.55 -2998 3990H-3000C-3000 3991.66 -2998.66 3993 -2997 3993V3991ZM10906 3990C10906 3990.55 10905.6 3991 10905 3991V3993C10906.7 3993 10908 3991.66 10908 3990H10906ZM10905 -11629C10905.6 -11629 10906 -11628.6 10906 -11628H10908C10908 -11629.7 10906.7 -11631 10905 -11631V-11629ZM-2997 -11631C-2998.66 -11631 -3000 -11629.7 -3000 -11628H-2998C-2998 -11628.6 -2997.55 -11629 -2997 -11629V-11631Z" fill="white" fill-opacity="0.1"/>
<g id="Light Mode">
<path d="M-1539 -9245C-1539 -9246.1 -1538.1 -9247 -1537 -9247H2817C2818.1 -9247 2819 -9246.1 2819 -9245V1607C2819 1608.1 2818.1 1609 2817 1609H-1537C-1538.1 1609 -1539 1608.1 -1539 1607V-9245Z" fill="#444444"/>
<path d="M-1537 -9246H2817V-9248H-1537V-9246ZM2818 -9245V1607H2820V-9245H2818ZM2817 1608H-1537V1610H2817V1608ZM-1538 1607V-9245H-1540V1607H-1538ZM-1537 1608C-1537.55 1608 -1538 1607.55 -1538 1607H-1540C-1540 1608.66 -1538.66 1610 -1537 1610V1608ZM2818 1607C2818 1607.55 2817.55 1608 2817 1608V1610C2818.66 1610 2820 1608.66 2820 1607H2818ZM2817 -9246C2817.55 -9246 2818 -9245.55 2818 -9245H2820C2820 -9246.66 2818.66 -9248 2817 -9248V-9246ZM-1537 -9248C-1538.66 -9248 -1540 -9246.66 -1540 -9245H-1538C-1538 -9245.55 -1537.55 -9246 -1537 -9246V-9248Z" fill="white" fill-opacity="0.1"/>
<g id="Landing Page" clip-path="url(#clip0_0_1)">
<rect width="1440" height="8436" transform="translate(-80 -8037)" fill="#F7F8F9"/>
<g id="Rectangle 14">
<mask id="path-5-inside-1_0_1" fill="white">
<path d="M-80 -167H1360V399H-80V-167Z"/>
</mask>
<path d="M-80 -167H1360V399H-80V-167Z" fill="#F7F8F9"/>
<path d="M-80 -166H1360V-168H-80V-166Z" fill="#E5E5EA" mask="url(#path-5-inside-1_0_1)"/>
</g>
<g id="vuesax/bulk/location">
<g id="vuesax/bulk/location_2">
<g id="location">
<path id="Vector" opacity="0.4" d="M27.4935 11.2668C26.0935 5.10683 20.7201 2.3335 16.0001 2.3335C16.0001 2.3335 16.0001 2.3335 15.9868 2.3335C11.2801 2.3335 5.89346 5.0935 4.49346 11.2535C2.93346 18.1335 7.14679 23.9602 10.9601 27.6268C12.3735 28.9868 14.1868 29.6668 16.0001 29.6668C17.8135 29.6668 19.6268 28.9868 21.0268 27.6268C24.8401 23.9602 29.0535 18.1468 27.4935 11.2668Z" fill="#6FDA44"/>
<path id="Vector_2" d="M16.0008 17.9469C18.3204 17.9469 20.2008 16.0665 20.2008 13.7469C20.2008 11.4273 18.3204 9.54688 16.0008 9.54688C13.6812 9.54688 11.8008 11.4273 11.8008 13.7469C11.8008 16.0665 13.6812 17.9469 16.0008 17.9469Z" fill="#6FDA44"/>
</g>
</g>
</g>
</g>
</g>
</g>
<defs>
<clipPath id="clip0_0_1">
<rect width="1440" height="8436" fill="white" transform="translate(-80 -8037)"/>
</clipPath>
</defs>
</svg>
