<svg width="32" height="32" viewBox="0 0 32 32" fill="none" xmlns="http://www.w3.org/2000/svg">
<rect width="32" height="32" fill="#1E1E1E"/>
<g id="Landing Page Design">
<path d="M-9627 -11628C-9627 -11629.1 -9626.1 -11630 -9625 -11630H4277C4278.1 -11630 4279 -11629.1 4279 -11628V3990C4279 3991.1 4278.1 3992 4277 3992H-9625C-9626.1 3992 -9627 3991.1 -9627 3990V-11628Z" fill="#333333"/>
<path d="M-9625 -11629H4277V-11631H-9625V-11629ZM4278 -11628V3990H4280V-11628H4278ZM4277 3991H-9625V3993H4277V3991ZM-9626 3990V-11628H-9628V3990H-9626ZM-9625 3991C-9625.55 3991 -9626 3990.55 -9626 3990H-9628C-9628 3991.66 -9626.66 3993 -9625 3993V3991ZM4278 3990C4278 3990.55 4277.55 3991 4277 3991V3993C4278.66 3993 4280 3991.66 4280 3990H4278ZM4277 -11629C4277.55 -11629 4278 -11628.6 4278 -11628H4280C4280 -11629.7 4278.66 -11631 4277 -11631V-11629ZM-9625 -11631C-9626.66 -11631 -9628 -11629.7 -9628 -11628H-9626C-9626 -11628.6 -9625.55 -11629 -9625 -11629V-11631Z" fill="white" fill-opacity="0.1"/>
<g id="Dark Mode">
<path d="M-1539 -9245C-1539 -9246.1 -1538.1 -9247 -1537 -9247H2817C2818.1 -9247 2819 -9246.1 2819 -9245V1607C2819 1608.1 2818.1 1609 2817 1609H-1537C-1538.1 1609 -1539 1608.1 -1539 1607V-9245Z" fill="#B0B0B0"/>
<path d="M-1537 -9246H2817V-9248H-1537V-9246ZM2818 -9245V1607H2820V-9245H2818ZM2817 1608H-1537V1610H2817V1608ZM-1538 1607V-9245H-1540V1607H-1538ZM-1537 1608C-1537.55 1608 -1538 1607.55 -1538 1607H-1540C-1540 1608.66 -1538.66 1610 -1537 1610V1608ZM2818 1607C2818 1607.55 2817.55 1608 2817 1608V1610C2818.66 1610 2820 1608.66 2820 1607H2818ZM2817 -9246C2817.55 -9246 2818 -9245.55 2818 -9245H2820C2820 -9246.66 2818.66 -9248 2817 -9248V-9246ZM-1537 -9248C-1538.66 -9248 -1540 -9246.66 -1540 -9245H-1538C-1538 -9245.55 -1537.55 -9246 -1537 -9246V-9248Z" fill="white" fill-opacity="0.1"/>
<g id="Landing Page" clip-path="url(#clip0_0_1)">
<rect width="1440" height="8436" transform="translate(-80 -8037)" fill="#1A1A1A"/>
<g id="Rectangle 14">
<mask id="path-5-inside-1_0_1" fill="white">
<path d="M-80 -167H1360V399H-80V-167Z"/>
</mask>
<path d="M-80 -167H1360V399H-80V-167Z" fill="#1A1A1A"/>
<path d="M-80 -166H1360V-168H-80V-166Z" fill="#2C2C2E" mask="url(#path-5-inside-1_0_1)"/>
</g>
<g id="vuesax/bulk/location">
<g id="vuesax/bulk/location_2">
<g id="location">
<path id="Vector" opacity="0.4" d="M27.4935 11.2668C26.0935 5.10683 20.7201 2.3335 16.0001 2.3335C16.0001 2.3335 16.0001 2.3335 15.9868 2.3335C11.2801 2.3335 5.89346 5.0935 4.49346 11.2535C2.93346 18.1335 7.14679 23.9602 10.9601 27.6268C12.3735 28.9868 14.1868 29.6668 16.0001 29.6668C17.8135 29.6668 19.6268 28.9868 21.0268 27.6268C24.8401 23.9602 29.0535 18.1468 27.4935 11.2668Z" fill="#6FDA44"/>
<path id="Vector_2" d="M16.0008 17.9469C18.3204 17.9469 20.2008 16.0665 20.2008 13.7469C20.2008 11.4273 18.3204 9.54688 16.0008 9.54688C13.6812 9.54688 11.8008 11.4273 11.8008 13.7469C11.8008 16.0665 13.6812 17.9469 16.0008 17.9469Z" fill="#6FDA44"/>
</g>
</g>
</g>
</g>
</g>
</g>
<defs>
<clipPath id="clip0_0_1">
<rect width="1440" height="8436" fill="white" transform="translate(-80 -8037)"/>
</clipPath>
</defs>
</svg>
