<svg width="54" height="54" viewBox="0 0 54 54" fill="none" xmlns="http://www.w3.org/2000/svg">
<rect width="54" height="54" fill="#1E1E1E"/>
<g id="Landing Page Design">
<path d="M-2999 -11545C-2999 -11546.1 -2998.1 -11547 -2997 -11547H10905C10906.1 -11547 10907 -11546.1 10907 -11545V4073C10907 4074.1 10906.1 4075 10905 4075H-2997C-2998.1 4075 -2999 4074.1 -2999 4073V-11545Z" fill="#333333"/>
<path d="M-2997 -11546H10905V-11548H-2997V-11546ZM10906 -11545V4073H10908V-11545H10906ZM10905 4074H-2997V4076H10905V4074ZM-2998 4073V-11545H-3000V4073H-2998ZM-2997 4074C-2997.55 4074 -2998 4073.55 -2998 4073H-3000C-3000 4074.66 -2998.66 4076 -2997 4076V4074ZM10906 4073C10906 4073.55 10905.6 4074 10905 4074V4076C10906.7 4076 10908 4074.66 10908 4073H10906ZM10905 -11546C10905.6 -11546 10906 -11545.6 10906 -11545H10908C10908 -11546.7 10906.7 -11548 10905 -11548V-11546ZM-2997 -11548C-2998.66 -11548 -3000 -11546.7 -3000 -11545H-2998C-2998 -11545.6 -2997.55 -11546 -2997 -11546V-11548Z" fill="white" fill-opacity="0.1"/>
<g id="Light Mode">
<path d="M-1539 -9162C-1539 -9163.1 -1538.1 -9164 -1537 -9164H2817C2818.1 -9164 2819 -9163.1 2819 -9162V1690C2819 1691.1 2818.1 1692 2817 1692H-1537C-1538.1 1692 -1539 1691.1 -1539 1690V-9162Z" fill="#444444"/>
<path d="M-1537 -9163H2817V-9165H-1537V-9163ZM2818 -9162V1690H2820V-9162H2818ZM2817 1691H-1537V1693H2817V1691ZM-1538 1690V-9162H-1540V1690H-1538ZM-1537 1691C-1537.55 1691 -1538 1690.55 -1538 1690H-1540C-1540 1691.66 -1538.66 1693 -1537 1693V1691ZM2818 1690C2818 1690.55 2817.55 1691 2817 1691V1693C2818.66 1693 2820 1691.66 2820 1690H2818ZM2817 -9163C2817.55 -9163 2818 -9162.55 2818 -9162H2820C2820 -9163.66 2818.66 -9165 2817 -9165V-9163ZM-1537 -9165C-1538.66 -9165 -1540 -9163.66 -1540 -9162H-1538C-1538 -9162.55 -1537.55 -9163 -1537 -9163V-9165Z" fill="white" fill-opacity="0.1"/>
<g id="Landing Page" clip-path="url(#clip0_0_1)">
<rect width="1440" height="8436" transform="translate(-80 -7954)" fill="#F7F8F9"/>
<g id="Rectangle 14">
<mask id="path-5-inside-1_0_1" fill="white">
<path d="M-80 -84H1360V482H-80V-84Z"/>
</mask>
<path d="M-80 -84H1360V482H-80V-84Z" fill="#F7F8F9"/>
<path d="M-80 -83H1360V-85H-80V-83Z" fill="#E5E5EA" mask="url(#path-5-inside-1_0_1)"/>
</g>
<g id="Logo">
<g id="Group 1">
<path id="Vector" fill-rule="evenodd" clip-rule="evenodd" d="M26.5753 0C33.53 0 39.8606 2.67313 44.5965 7.0465C42.1505 8.92343 39.677 11.0964 37.2311 13.579C36.818 13.9989 36.4188 14.4257 36.031 14.8594C33.4474 12.7691 30.157 11.5185 26.573 11.5185C18.2599 11.5185 11.5185 18.2599 11.5185 26.573C11.5185 34.8883 18.2599 41.6274 26.573 41.6274C33.4428 41.6274 39.2365 37.0268 41.0423 30.7375H52.8178C50.8193 43.4355 39.8308 53.1459 26.5707 53.1459C11.8948 53.1459 0 41.2488 0 26.573C0 11.8971 11.8971 0.00229453 26.5707 0.00229453L26.5753 0ZM48.0291 10.8944C50.4682 14.2261 52.1524 18.1497 52.8224 22.4084H41.0469C40.8289 21.6443 40.5489 20.9055 40.2185 20.1965L41.0423 19.1524C43.5135 15.9929 45.831 13.228 48.0314 10.8944H48.0291Z" fill="#6FDA44"/>
<path id="Vector_2" d="M26.8188 22.9501C28.6474 22.9501 30.1298 21.4678 30.1298 19.6391C30.1298 17.8105 28.6474 16.3281 26.8188 16.3281C24.9902 16.3281 23.5078 17.8105 23.5078 19.6391C23.5078 21.4678 24.9902 22.9501 26.8188 22.9501Z" fill="#6FDA44"/>
<path id="Vector_3" d="M52.2655 3.27441L53.2062 4.6213C49.3491 7.52847 45.0652 11.9959 40.3385 18.0328C35.6117 24.0789 32.0116 29.7189 29.5289 34.9619L27.5258 36.318C25.8646 37.4721 24.738 38.3211 24.1483 38.8855C23.9073 38.0366 23.4003 36.6507 22.6063 34.7233L21.8492 32.9611C20.7684 30.4417 19.7634 28.5762 18.8295 27.367C17.9071 26.1578 16.8631 25.3547 15.709 24.9577C17.657 22.9087 19.4376 21.8831 21.0621 21.8831C22.4457 21.8831 23.9877 23.7669 25.6856 27.5322L26.5162 29.4252C29.5611 24.2854 33.4755 19.2902 38.2482 14.4442C43.03 9.59814 47.6993 5.86953 52.2586 3.27671L52.2655 3.27441Z" fill="#6FDA44"/>
</g>
</g>
</g>
</g>
</g>
<defs>
<clipPath id="clip0_0_1">
<rect width="1440" height="8436" fill="white" transform="translate(-80 -7954)"/>
</clipPath>
</defs>
</svg>
