<svg width="425" height="400" viewBox="0 0 425 400" fill="none" xmlns="http://www.w3.org/2000/svg">
<path d="M108.908 95.554V90.6098C108.903 87.2171 107.554 83.9647 105.156 81.5648C102.758 79.165 99.5063 77.8133 96.1136 77.8058H92.6225C89.2282 77.8108 85.9743 79.1614 83.5742 81.5615C81.174 83.9617 79.8234 87.2155 79.8184 90.6098V95.554H78.6484V121.747H110.078V95.554H108.908ZM87.3669 90.6098C87.3694 89.2167 87.9239 87.8814 88.909 86.8963C89.894 85.9112 91.2294 85.3567 92.6225 85.3542H96.1136C97.5051 85.3592 98.838 85.9148 99.8211 86.8996C100.804 87.8844 101.357 89.2183 101.36 90.6098V95.554H87.3669V90.6098Z" stroke="#6FDA44" stroke-width="0.40523" stroke-miterlimit="10"/>
<path d="M96.9448 106.877C96.946 106.433 96.8325 105.996 96.6154 105.609C96.3983 105.222 96.085 104.898 95.7057 104.668C95.3264 104.438 94.8941 104.309 94.4506 104.295C94.0071 104.281 93.5675 104.382 93.1744 104.587C92.7813 104.793 92.448 105.097 92.2068 105.469C91.9656 105.842 91.8247 106.27 91.7977 106.713C91.7708 107.156 91.8587 107.598 92.0529 107.997C92.2471 108.396 92.5411 108.738 92.9064 108.99V116.218H95.8408V108.99C96.1827 108.754 96.4619 108.438 96.6542 108.07C96.8466 107.702 96.9463 107.292 96.9448 106.877Z" stroke="#6FDA44" stroke-width="0.40523" stroke-miterlimit="10"/>
<path d="M44.332 60.2744L82.9234 37.9216" stroke="#6FDA44" stroke-width="0.40523" stroke-miterlimit="10"/>
<path d="M144.85 147.242L109.73 167.585" stroke="#6FDA44" stroke-width="0.40523" stroke-miterlimit="10"/>
<path d="M107.221 37.5916L144.878 59.2556" stroke="#6FDA44" stroke-width="0.40523" stroke-miterlimit="10"/>
<path d="M80.3013 167.047L44.3047 146.336" stroke="#6FDA44" stroke-width="0.40523" stroke-miterlimit="10"/>
<path d="M32.5762 80.9667L32.6328 125.587" stroke="#6FDA44" stroke-width="0.40523" stroke-miterlimit="10"/>
<path d="M158.275 125.399L158.209 81.1365" stroke="#6FDA44" stroke-width="0.40523" stroke-miterlimit="10"/>
<path d="M64.7695 120.832C67.9557 125.97 72.4017 130.209 77.686 133.147C82.9702 136.085 88.9174 137.624 94.9633 137.618H95.3407" stroke="#6FDA44" stroke-width="0.40523" stroke-miterlimit="10"/>
<path d="M126.044 84.958C123.009 79.4514 118.564 74.8504 113.166 71.6258C107.768 68.4011 101.61 66.6687 95.3223 66.6058" stroke="#6FDA44" stroke-width="0.40523" stroke-miterlimit="10"/>
<path d="M95.3223 137.608C101.253 137.544 107.074 135.993 112.25 133.097C117.426 130.2 121.793 126.051 124.95 121.03" stroke="#6FDA44" stroke-width="0.40523" stroke-miterlimit="10"/>
<path d="M126.044 84.958C129.105 90.5187 130.618 96.7989 130.426 103.144C130.233 109.488 128.342 115.665 124.949 121.03" stroke="#6FDA44" stroke-width="0.40523" stroke-miterlimit="10"/>
<path d="M63.6842 85.2599C60.7226 90.7614 59.2635 96.9464 59.454 103.191C59.6445 109.437 61.4779 115.521 64.7693 120.832" stroke="#6FDA44" stroke-width="0.40523" stroke-miterlimit="10"/>
<path d="M63.6836 85.2599C66.7234 79.6164 71.2347 74.9013 76.7386 71.6152C82.2424 68.3292 88.5334 66.5949 94.9436 66.5964H95.321" stroke="#6FDA44" stroke-width="0.40523" stroke-miterlimit="10"/>
<path d="M82.9238 37.9216C84.3312 39.7768 86.1486 41.2813 88.234 42.3175C90.3193 43.3536 92.6161 43.8933 94.9447 43.8943H95.3221" stroke="#6FDA44" stroke-width="0.40523" stroke-miterlimit="10"/>
<path d="M107.22 37.5916C105.858 39.4877 104.075 41.0421 102.01 42.1325C99.9457 43.2229 97.6564 43.8196 95.3223 43.8756" stroke="#6FDA44" stroke-width="0.40523" stroke-miterlimit="10"/>
<path d="M107.22 37.5915C108.848 35.3211 109.814 32.6437 110.01 29.8572C110.206 27.0707 109.626 24.2843 108.333 21.8081C107.04 19.3319 105.085 17.2631 102.686 15.8317C100.287 14.4003 97.5384 13.6625 94.7452 13.7005C91.952 13.7385 89.2242 14.5507 86.8651 16.0467C84.5061 17.5428 82.6084 19.664 81.3831 22.1744C80.1579 24.6848 79.6532 27.4859 79.9253 30.2661C80.1973 33.0463 81.2353 35.6964 82.9239 37.9217" stroke="#6FDA44" stroke-width="0.40523" stroke-miterlimit="10"/>
<path d="M95.3223 155.687C98.7109 155.765 101.975 156.981 104.588 159.139C107.202 161.297 109.013 164.272 109.73 167.585" stroke="#6FDA44" stroke-width="0.40523" stroke-miterlimit="10"/>
<path d="M80.3008 167.047C81.1279 163.792 83.0172 160.905 85.6695 158.844C88.3218 156.783 91.5858 155.665 94.9447 155.668H95.3222" stroke="#6FDA44" stroke-width="0.40523" stroke-miterlimit="10"/>
<path d="M80.3012 167.047C79.9776 168.279 79.8127 169.548 79.8105 170.821C79.8632 172.907 80.3478 174.96 81.2336 176.849C82.1193 178.738 83.3872 180.423 84.957 181.798C86.5268 183.173 88.3645 184.207 90.3541 184.836C92.3438 185.464 94.4421 185.674 96.5168 185.451C98.5914 185.227 100.597 184.577 102.408 183.539C104.218 182.502 105.794 181.101 107.036 179.424C108.277 177.747 109.158 175.831 109.622 173.796C110.086 171.762 110.123 169.653 109.731 167.604" stroke="#6FDA44" stroke-width="0.40523" stroke-miterlimit="10"/>
<path d="M158.209 81.1366H158.398C161.083 81.1296 163.717 80.4068 166.03 79.0427C168.342 77.6785 170.249 75.7224 171.553 73.376C172.858 71.0295 173.513 68.3776 173.452 65.6935C173.39 63.0095 172.614 60.3904 171.203 58.1062C169.792 55.822 167.798 53.9554 165.425 52.6988C163.053 51.4421 160.388 50.8409 157.706 50.957C155.024 51.0731 152.421 51.9025 150.166 53.3595C147.911 54.8165 146.085 56.8485 144.877 59.2461" stroke="#6FDA44" stroke-width="0.40523" stroke-miterlimit="10"/>
<path d="M145.349 73.6541C144.069 71.4865 143.354 69.0314 143.272 66.5152C143.189 63.9989 143.741 61.5023 144.877 59.2555" stroke="#6FDA44" stroke-width="0.40523" stroke-miterlimit="10"/>
<path d="M158.21 81.1366C155.603 81.1062 153.048 80.401 150.794 79.0897C148.54 77.7785 146.665 75.9058 145.35 73.6542" stroke="#6FDA44" stroke-width="0.40523" stroke-miterlimit="10"/>
<path d="M32.5762 80.9667C34.8455 80.6295 37.0081 79.7796 38.8998 78.4814C40.7914 77.1833 42.3623 75.471 43.4931 73.4749" stroke="#6FDA44" stroke-width="0.40523" stroke-miterlimit="10"/>
<path d="M44.3328 60.2745C43.2879 57.7505 41.5777 55.5573 39.3846 53.9287C37.1914 52.3001 34.5975 51.2971 31.8792 51.0265C29.1609 50.7559 26.4202 51.228 23.949 52.3924C21.4779 53.5568 19.369 55.3698 17.8471 57.6383C16.3252 59.9068 15.4473 62.5458 15.307 65.2739C15.1667 68.002 15.7693 70.717 17.0505 73.1297C18.3317 75.5423 20.2435 77.5621 22.5822 78.9738C24.9208 80.3855 27.5987 81.1362 30.3304 81.1459C31.0825 81.1436 31.8332 81.0837 32.5761 80.9666" stroke="#6FDA44" stroke-width="0.40523" stroke-miterlimit="10"/>
<path d="M44.332 60.2745C45.2046 62.3955 45.5825 64.6875 45.437 66.9764C45.2915 69.2652 44.6264 71.4909 43.4922 73.4843" stroke="#6FDA44" stroke-width="0.40523" stroke-miterlimit="10"/>
<path d="M158.276 125.399C155.649 125.423 153.075 126.132 150.806 127.456C148.537 128.779 146.653 130.672 145.34 132.947" stroke="#6FDA44" stroke-width="0.40523" stroke-miterlimit="10"/>
<path d="M158.276 125.399H158.399C161.086 125.406 163.722 126.131 166.035 127.498C168.348 128.865 170.255 130.824 171.558 133.174C172.861 135.524 173.513 138.178 173.448 140.864C173.382 143.55 172.601 146.17 171.184 148.453C169.768 150.737 167.768 152.601 165.391 153.853C163.014 155.105 160.345 155.7 157.661 155.576C154.977 155.453 152.375 154.615 150.123 153.15C147.871 151.685 146.05 149.646 144.85 147.242" stroke="#6FDA44" stroke-width="0.40523" stroke-miterlimit="10"/>
<path d="M145.34 132.909C144.069 135.068 143.358 137.51 143.272 140.013C143.187 142.517 143.729 145.002 144.849 147.242" stroke="#6FDA44" stroke-width="0.40523" stroke-miterlimit="10"/>
<path d="M32.6315 125.587C31.8699 125.467 31.1003 125.404 30.3293 125.399C27.6006 125.408 24.9255 126.157 22.5885 127.566C20.2515 128.974 18.34 130.99 17.0572 133.399C15.7745 135.807 15.1685 138.518 15.3037 141.243C15.4389 143.969 16.3102 146.607 17.825 148.876C19.3398 151.146 21.4415 152.963 23.9064 154.133C26.3713 155.303 29.1074 155.784 31.8237 155.523C34.5399 155.263 37.1347 154.271 39.3322 152.653C41.5297 151.035 43.2476 148.852 44.3033 146.336" stroke="#6FDA44" stroke-width="0.40523" stroke-miterlimit="10"/>
<path d="M32.6328 125.587C34.9227 125.936 37.1018 126.806 39.0014 128.131C40.901 129.457 42.4702 131.201 43.5875 133.23" stroke="#6FDA44" stroke-width="0.40523" stroke-miterlimit="10"/>
<path d="M44.303 146.336C45.1777 144.239 45.5675 141.971 45.4433 139.701C45.3192 137.432 44.6843 135.22 43.5859 133.23" stroke="#6FDA44" stroke-width="0.40523" stroke-miterlimit="10"/>
<path d="M95.3223 155.687V137.608" stroke="#6FDA44" stroke-width="0.40523" stroke-miterlimit="10"/>
<path d="M95.3223 43.8756V66.6058" stroke="#6FDA44" stroke-width="0.40523" stroke-miterlimit="10"/>
<path d="M145.339 132.909L124.986 121.03" stroke="#6FDA44" stroke-width="0.40523" stroke-miterlimit="10"/>
<path d="M63.6843 85.2598L43.4922 73.4749" stroke="#6FDA44" stroke-width="0.40523" stroke-miterlimit="10"/>
<path d="M64.7687 120.832L43.5859 133.23" stroke="#6FDA44" stroke-width="0.40523" stroke-miterlimit="10"/>
<path d="M145.348 73.6542L126.043 84.958" stroke="#6FDA44" stroke-width="0.40523" stroke-miterlimit="10"/>
<path d="M158.399 66.0114L157.521 66.5303" stroke="#6FDA44" stroke-width="0.40523" stroke-miterlimit="10"/>
<path d="M96.4358 236.097V209.517L73.4036 196.222L50.3809 209.517V236.097L73.4036 249.391L96.4358 236.097Z" stroke="#6FDA44" stroke-width="0.40523" stroke-miterlimit="10"/>
<path d="M119.665 276.028V249.438L96.6419 236.144L73.6191 249.438V276.028L96.6419 289.323L119.665 276.028Z" stroke="#6FDA44" stroke-width="0.40523" stroke-miterlimit="10"/>
<path d="M96.7092 315.836V289.247L73.6865 275.952L50.6543 289.247V315.836L73.6865 329.131L96.7092 315.836Z" stroke="#6FDA44" stroke-width="0.40523" stroke-miterlimit="10"/>
<path d="M82.9805 218.745V215.669C82.978 213.559 82.1395 211.536 80.6486 210.044C79.1577 208.551 77.136 207.71 75.0263 207.705H72.8467C70.737 207.71 68.7153 208.551 67.2245 210.044C65.7336 211.536 64.895 213.559 64.8925 215.669V218.745H64.166V235.03H83.707V218.745H82.9805ZM69.5915 215.669C69.5915 214.804 69.9341 213.975 70.5443 213.363C71.1545 212.751 71.9825 212.406 72.8467 212.404H75.0263C75.8905 212.406 76.7185 212.751 77.3287 213.363C77.9389 213.975 78.2816 214.804 78.2816 215.669V218.745H69.5915V215.669Z" stroke="#6FDA44" stroke-width="0.40523" stroke-miterlimit="10"/>
<path d="M75.544 225.765C75.5445 225.488 75.4735 225.216 75.3379 224.975C75.2024 224.734 75.0068 224.532 74.7702 224.389C74.5337 224.246 74.2641 224.167 73.9877 224.158C73.7114 224.15 73.4376 224.214 73.1929 224.342C72.9482 224.471 72.741 224.661 72.5913 224.893C72.4416 225.126 72.3546 225.393 72.3386 225.669C72.3226 225.945 72.3783 226.221 72.5002 226.469C72.622 226.717 72.806 226.929 73.0342 227.086V231.577H74.8458V227.086C75.0612 226.939 75.2375 226.742 75.3592 226.512C75.4809 226.282 75.5444 226.025 75.544 225.765Z" stroke="#6FDA44" stroke-width="0.40523" stroke-miterlimit="10"/>
<path d="M105.002 258.836V255.76C104.999 253.651 104.161 251.63 102.669 250.139C101.178 248.647 99.1566 247.809 97.0478 247.806H94.8776C92.768 247.809 90.7453 248.647 89.2526 250.138C87.76 251.629 86.919 253.651 86.914 255.76V258.836H86.1875V275.122H105.729V258.836H105.002ZM91.6129 255.76C91.6129 254.894 91.9569 254.064 92.5691 253.452C93.1814 252.839 94.0118 252.495 94.8776 252.495H97.0478C97.9129 252.498 98.7418 252.843 99.3536 253.454C99.9653 254.066 100.31 254.895 100.313 255.76V258.836H91.6129V255.76Z" stroke="#6FDA44" stroke-width="0.40523" stroke-miterlimit="10"/>
<path d="M97.5869 265.903C97.5891 265.627 97.5195 265.354 97.3849 265.112C97.2504 264.87 97.0555 264.667 96.8192 264.522C96.583 264.378 96.3133 264.297 96.0366 264.288C95.7599 264.279 95.4855 264.341 95.2401 264.47C94.9947 264.598 94.7866 264.787 94.6362 265.02C94.4858 265.252 94.3981 265.52 94.3817 265.796C94.3653 266.072 94.4207 266.348 94.5426 266.597C94.6644 266.846 94.8486 267.059 95.0771 267.215V271.706H96.8982V267.215C97.1111 267.069 97.2851 266.873 97.4052 266.645C97.5252 266.416 97.5876 266.162 97.5869 265.903Z" stroke="#6FDA44" stroke-width="0.40523" stroke-miterlimit="10"/>
<path d="M82.791 298.654V295.588C82.7886 293.478 81.95 291.455 80.4591 289.963C78.9683 288.47 76.9466 287.629 74.8369 287.624H72.6667C70.5554 287.627 68.5313 288.466 67.0383 289.959C65.5454 291.452 64.7056 293.476 64.7031 295.588V298.664H63.9766V314.949H83.527V298.654H82.791ZM69.402 295.588C69.402 294.722 69.746 293.891 70.3582 293.279C70.9705 292.667 71.8008 292.323 72.6667 292.323H74.8369C75.7027 292.323 76.5331 292.667 77.1454 293.279C77.7576 293.891 78.1016 294.722 78.1016 295.588V298.664H69.402V295.588Z" stroke="#6FDA44" stroke-width="0.40523" stroke-miterlimit="10"/>
<path d="M75.3565 305.712C75.357 305.435 75.286 305.164 75.1504 304.923C75.0149 304.682 74.8193 304.48 74.5827 304.337C74.3462 304.194 74.0766 304.114 73.8002 304.106C73.5239 304.098 73.2501 304.161 73.0054 304.29C72.7607 304.418 72.5535 304.608 72.4038 304.841C72.2541 305.073 72.1671 305.34 72.1511 305.616C72.1351 305.892 72.1908 306.168 72.3127 306.416C72.4345 306.664 72.6185 306.877 72.8467 307.033V311.524H74.6677V307.033C74.8802 306.884 75.0538 306.687 75.1737 306.457C75.2936 306.227 75.3563 305.971 75.3565 305.712Z" stroke="#6FDA44" stroke-width="0.40523" stroke-miterlimit="10"/>
<path d="M23.8103 244.488L23.668 244.738C19.7203 242.55 15.6174 242.481 12.4839 242.966C10.8931 243.212 9.54857 243.602 8.59543 243.933C8.11872 244.098 7.73955 244.249 7.47603 244.36C7.37892 244.4 7.29754 244.436 7.23279 244.465L7.02154 244.037C7.20857 243.829 7.40043 243.623 7.59198 243.43C9.9158 242.488 16.3535 240.491 22.8345 243.427C23.1677 243.762 23.4995 244.117 23.8103 244.488Z" fill="#263238" stroke="#6FDA44" stroke-width="0.40523"/>
<path d="M16.1245 245.801L16.1245 245.801H16.1199C12.9964 245.801 9.86548 246.883 7.42274 248.03C5.55775 248.905 4.08395 249.822 3.30686 250.337C3.46974 249.895 3.6454 249.463 3.83383 249.04C6.28834 247.531 11.1472 244.999 16.081 244.999C19.8726 245.043 23.5418 246.345 26.5138 248.698C26.7486 249.222 26.9633 249.754 27.1574 250.293C24.1632 247.499 20.2384 245.894 16.1245 245.801Z" fill="#263238" stroke="#6FDA44" stroke-width="0.40523"/>
<path d="M21.7486 249.847L21.7487 249.847L21.7412 249.842C20.4097 248.855 17.4513 248.119 14.0365 248.739C12.2113 249.062 10.475 249.767 8.94096 250.807C7.40722 251.847 6.11031 253.199 5.13504 254.775C3.14558 257.892 2.9316 261.11 3.21228 263.55C3.35266 264.77 3.61691 265.798 3.84617 266.526C3.96084 266.89 4.06683 267.179 4.14428 267.379C4.16517 267.433 4.18397 267.481 4.20025 267.521L3.44692 267.892C2.94327 266.68 0.59286 260.444 4.45849 254.369L4.4585 254.369L4.45977 254.367C5.49373 252.698 6.86816 251.267 8.49324 250.166C10.1183 249.064 11.9575 248.319 13.8904 247.977L13.8911 247.977C17.623 247.305 20.7588 248.141 22.223 249.231C24.119 250.762 25.7943 252.547 27.2015 254.537L27.2022 254.538C27.647 255.159 28.1358 255.743 28.5698 256.251C28.572 256.269 28.5742 256.286 28.5763 256.303C28.6277 256.712 28.6796 257.126 28.7051 257.546C27.9345 256.755 27.2238 255.907 26.5788 255.01C25.2092 253.079 23.5844 251.342 21.7486 249.847Z" fill="#263238" stroke="#6FDA44" stroke-width="0.40523"/>
<path d="M27.3176 259.637L27.3176 259.637L27.321 259.642C27.7188 260.141 28.1811 260.586 28.6956 260.964C28.6862 261.101 28.6711 261.247 28.6553 261.4C28.6514 261.437 28.6475 261.475 28.6437 261.513C28.6317 261.631 28.6201 261.752 28.6116 261.873C27.8776 261.407 27.2295 260.817 26.6967 260.128C26.168 259.432 25.6811 258.705 25.2387 257.95L25.2388 257.95L25.2369 257.947L25.2278 257.932C24.3512 256.498 23.4391 255.005 22.0197 253.877C20.5879 252.739 18.6559 251.982 15.7558 251.981C14.5628 251.927 13.3728 252.142 12.2744 252.61C11.1745 253.08 10.1949 253.792 9.40869 254.693L9.40785 254.694C7.18391 257.275 6.83714 261.053 7.23799 263.726L7.23803 263.726C7.45308 265.145 7.29248 266.596 6.77223 267.933C6.28103 269.197 5.48539 270.317 4.45761 271.197C4.32749 270.962 4.20297 270.724 4.08405 270.483C4.98769 269.675 5.67904 268.656 6.09599 267.516C6.5308 266.327 6.65259 265.046 6.44969 263.796C6.02073 260.922 6.41866 256.888 8.79873 254.12C9.66052 253.148 10.7285 252.382 11.9247 251.876C13.1213 251.37 14.4158 251.139 15.7136 251.198L15.7135 251.198H15.7228C18.898 251.198 21.0084 252.088 22.5407 253.314C24.0596 254.53 25.0234 256.084 25.8939 257.489L25.9281 257.544C26.3492 258.269 26.8132 258.968 27.3176 259.637Z" fill="#263238" stroke="#6FDA44" stroke-width="0.40523"/>
<path d="M9.54595 264.876L9.5459 264.875C9.36123 262.872 9.17248 260.774 9.55654 258.956C9.93703 257.154 10.877 255.639 12.9597 254.777C15.6454 253.675 17.6218 254.11 19.0675 255.013C20.5262 255.924 21.4624 257.321 22.0346 258.182C22.3383 258.666 22.6139 259.168 22.8599 259.684C23.9494 262.227 25.6763 264.445 27.8727 266.125C27.8023 266.402 27.7277 266.678 27.649 266.95C25.2617 265.201 23.3836 262.845 22.2116 260.124L22.212 260.124L22.2061 260.113C21.9155 259.541 21.6556 259.03 21.432 258.68L21.4321 258.68L21.4286 258.675C21.4121 258.651 21.3955 258.626 21.3787 258.602C20.7607 257.695 19.9283 256.473 18.6833 255.705C17.3868 254.904 15.6668 254.607 13.3247 255.573C11.485 256.321 10.6511 257.671 10.3294 259.322C10.0128 260.947 10.1889 262.88 10.3666 264.829L10.369 264.856L10.369 264.856C10.4729 265.989 10.5757 267.15 10.5757 268.225C10.5757 271.325 8.48201 273.453 6.94726 274.63C6.76432 274.421 6.58625 274.215 6.40931 274C7.81321 272.96 9.75434 270.991 9.75434 268.177C9.75434 267.198 9.66128 266.161 9.56397 265.077C9.55797 265.01 9.55196 264.943 9.54595 264.876Z" fill="#263238" stroke="#6FDA44" stroke-width="0.40523"/>
<path d="M21.9494 264.924L21.9581 264.934L21.968 264.942C23.5665 266.346 25.2489 267.65 27.0061 268.849C26.9028 269.107 26.792 269.356 26.678 269.609C24.8352 268.333 23.071 266.946 21.3951 265.457C20.6714 264.66 20.1169 263.724 19.7652 262.707C19.3054 261.273 18.4478 259.999 17.2922 259.034C16.9958 258.754 16.6189 258.574 16.2145 258.519C15.8081 258.464 15.3948 258.539 15.0333 258.733C14.3108 259.117 13.7359 259.889 13.3637 260.823C12.9899 261.76 12.8109 262.883 12.8982 264.003C12.9526 264.725 13.439 265.604 14.1482 266.535C14.8647 267.476 15.8355 268.504 16.9089 269.53C18.9874 271.518 21.467 273.516 23.2741 274.885C23.0888 275.087 22.9007 275.284 22.7092 275.47C21.1316 274.277 18.5828 272.265 16.3733 270.138C15.2357 269.043 14.1927 267.921 13.4191 266.868C12.6411 265.81 12.1564 264.848 12.0945 264.068C12.0118 262.759 12.2359 261.467 12.6911 260.392C13.1473 259.314 13.8285 258.468 14.6486 258.024C15.1371 257.768 15.6914 257.664 16.2396 257.727C16.7882 257.789 17.3052 258.016 17.7234 258.376L17.7233 258.376L17.7281 258.38C19.0112 259.42 19.9708 260.805 20.494 262.372C20.8016 263.312 21.2968 264.18 21.9494 264.924Z" fill="#263238" stroke="#6FDA44" stroke-width="0.40523"/>
<path d="M16.518 261.542C16.6085 262.366 16.9876 263.283 17.5358 264.226C18.1318 265.251 18.9388 266.325 19.8296 267.371C21.5588 269.402 23.6173 271.342 25.0999 272.631C24.953 272.855 24.7987 273.079 24.6427 273.296C23.4435 272.254 21.3338 270.334 19.4612 268.172C18.4798 267.039 17.5673 265.844 16.8852 264.678C16.2473 263.587 15.8196 262.535 15.7157 261.592L16.518 261.542Z" fill="#263238" stroke="#6FDA44" stroke-width="0.40523"/>
<path d="M16.277 273.871L16.277 273.871L16.2747 273.868C15.8669 273.386 15.5411 273.012 15.2338 272.761C14.9187 272.503 14.6083 272.362 14.2328 272.362C13.9038 272.362 13.5151 272.533 13.1137 272.782C12.7043 273.037 12.2504 273.394 11.783 273.809C10.892 274.6 9.93607 275.616 9.12205 276.575C8.90822 276.42 8.69974 276.258 8.49699 276.088C9.15619 275.302 10.1257 274.217 11.1542 273.307C11.7029 272.822 12.2636 272.392 12.7989 272.083C13.3375 271.773 13.8316 271.597 14.2516 271.597C15.3763 271.597 16.0236 272.355 16.9239 273.408L16.927 273.412C18.038 274.764 19.3669 275.919 20.8581 276.832C20.6104 276.996 20.3572 277.153 20.0989 277.301C18.6542 276.364 17.3646 275.207 16.277 273.871Z" fill="#263238" stroke="#6FDA44" stroke-width="0.40523"/>
<path d="M17.7192 278.371C17.7882 278.353 17.857 278.334 17.9256 278.314C17.0498 277.02 15.6963 275.243 14.7134 274.999C13.5328 274.7 12.4833 276.454 11.7921 278.058C11.8558 278.082 11.9195 278.104 11.9833 278.127M17.7192 278.371C17.3106 277.77 16.8053 277.076 16.2867 276.486C15.9931 276.152 15.6986 275.854 15.418 275.626C15.1344 275.396 14.8794 275.249 14.6647 275.196L14.6635 275.196C14.1773 275.072 13.674 275.377 13.1702 276.012C12.7162 276.585 12.3116 277.366 11.9833 278.127M17.7192 278.371C17.7602 278.431 17.8002 278.49 17.8392 278.548C17.4875 278.644 17.1307 278.719 16.7703 278.773M17.7192 278.371C17.4371 278.445 17.1517 278.506 16.8638 278.554M11.9833 278.127C11.9563 278.189 11.9299 278.251 11.9039 278.313C12.2273 278.427 12.5518 278.526 12.8829 278.613M11.9833 278.127C12.2383 278.215 12.4938 278.296 12.7527 278.368M12.7527 278.368C12.7309 278.428 12.7101 278.489 12.6902 278.551L12.8829 278.613M12.7527 278.368C12.813 278.385 12.8735 278.401 12.9342 278.417L12.8829 278.613M12.7527 278.368C13.0728 277.479 13.5958 276.676 14.2811 276.023L14.3609 275.947L14.468 275.972C14.6279 276.01 14.8031 276.133 14.9733 276.279C15.1513 276.433 15.3514 276.638 15.5634 276.877C15.9656 277.332 16.4213 277.923 16.8638 278.554M12.8829 278.613C13.1848 277.683 13.7133 276.844 14.4209 276.169C14.8549 276.273 15.8457 277.443 16.7703 278.773M16.8638 278.554C16.8226 278.56 16.7813 278.567 16.74 278.573L16.7703 278.773M16.8638 278.554C16.8882 278.588 16.9125 278.623 16.9367 278.658L16.7703 278.773" fill="#263238" stroke="#6FDA44" stroke-width="0.40523"/>
<path d="M35.9336 252.92H61.5511" stroke="#6FDA44" stroke-width="0.40523" stroke-miterlimit="10"/>
<path d="M35.9336 258.11H61.5511" stroke="#6FDA44" stroke-width="0.40523" stroke-miterlimit="10"/>
<path d="M35.9336 263.309H61.5511" stroke="#6FDA44" stroke-width="0.40523" stroke-miterlimit="10"/>
<path d="M35.9336 268.508H61.5511" stroke="#6FDA44" stroke-width="0.40523" stroke-miterlimit="10"/>
<path d="M350.93 51.207H352.402C352.923 51.207 353.438 51.3095 353.919 51.5086C354.4 51.7078 354.837 51.9997 355.205 52.3677C355.572 52.7357 355.864 53.1725 356.064 53.6533C356.263 54.1342 356.365 54.6495 356.365 55.1699V101.593H346.93V55.1699C346.93 54.6463 347.033 54.1279 347.235 53.6446C347.436 53.1613 347.732 52.7227 348.104 52.3543C348.476 51.9858 348.917 51.6946 349.402 51.4977C349.887 51.3008 350.407 51.202 350.93 51.207Z" fill="white" stroke="#6FDA44" stroke-width="0.40523" stroke-miterlimit="10"/>
<path d="M351.817 51.207H353.289C353.809 51.207 354.325 51.3095 354.806 51.5086C355.286 51.7078 355.723 51.9997 356.091 52.3677C356.459 52.7357 356.751 53.1725 356.95 53.6533C357.149 54.1342 357.252 54.6495 357.252 55.1699V101.593H347.816V55.1699C347.816 54.6463 347.92 54.1279 348.122 53.6446C348.323 53.1613 348.618 52.7227 348.99 52.3543C349.362 51.9858 349.804 51.6946 350.289 51.4977C350.774 51.3008 351.293 51.202 351.817 51.207Z" fill="#A3A3A3" stroke="#6FDA44" stroke-width="0.40523" stroke-miterlimit="10"/>
<path d="M327.529 94.8936L343.853 85.0146L348.24 81.514C348.24 81.514 350.524 76.0414 349.184 71.1349C347.844 66.2284 346.448 66.3417 346.448 66.3417L331.351 73.3051C331.351 73.3051 336.446 87.8453 327.529 94.8936Z" fill="#263238" stroke="#6FDA44" stroke-width="0.40523" stroke-linecap="round" stroke-linejoin="round"/>
<path d="M319.868 72.503L328.2 70.4461C323.925 61.9541 315.113 57.6326 308.253 60.8407C302.242 63.6714 299.685 71.2953 301.695 79.0324L319.868 72.503Z" fill="white" stroke="#6FDA44" stroke-width="0.40523" stroke-miterlimit="10"/>
<path d="M327.524 94.8928C334.535 91.6175 336.849 81.7476 332.691 72.8479C328.534 63.9482 319.479 59.3888 312.468 62.6641C305.457 65.9394 303.144 75.8092 307.301 84.7089C311.459 93.6087 320.513 98.1681 327.524 94.8928Z" fill="#4F4F4F" stroke="#6FDA44" stroke-width="0.40523" stroke-linecap="round" stroke-linejoin="round"/>
<path d="M323.557 77.6266C325.36 81.4857 324.35 85.7694 321.312 87.1942C318.274 88.619 314.339 86.6375 312.537 82.7784C310.735 78.9192 311.735 74.6261 314.782 73.2107C317.83 71.7954 321.755 73.7391 323.557 77.6266Z" fill="#263238" stroke="#6FDA44" stroke-width="0.40523" stroke-linecap="round" stroke-linejoin="round"/>
<path d="M361.281 55.6983C357.318 47.2063 348.901 42.6772 342.051 45.1116V44.9984L310.97 59.6989L305.715 62.2088C310.421 60.894 315.441 61.2982 319.876 63.3488C324.311 65.3994 327.871 68.9625 329.917 73.3993C329.917 73.4937 330.011 73.5975 330.049 73.6919C330.2 74.036 330.418 74.3466 330.691 74.6056C330.963 74.8645 331.284 75.0667 331.636 75.2002C331.987 75.3337 332.361 75.3959 332.737 75.3832C333.113 75.3704 333.482 75.283 333.823 75.1261L344.627 70.3139C344.627 70.3139 348.354 78.2115 343.891 84.9956L355.214 78.0982C355.516 77.985 355.818 77.8624 356.11 77.7208C363.13 74.4656 365.442 64.596 361.281 55.6983Z" fill="white" stroke="#6FDA44" stroke-width="0.40523" stroke-miterlimit="10"/>
<path d="M360.997 51.207H362.469C362.989 51.207 363.505 51.3095 363.986 51.5087C364.466 51.7079 364.903 51.9998 365.271 52.3677C365.639 52.7357 365.931 53.1726 366.13 53.6534C366.329 54.1342 366.432 54.6495 366.432 55.17V101.593H357.063V55.17C357.062 54.1238 357.476 53.1201 358.213 52.3777C358.95 51.6353 359.951 51.2145 360.997 51.207Z" fill="white" stroke="#6FDA44" stroke-width="0.40523" stroke-miterlimit="10"/>
<path d="M361.885 51.207H363.357C363.878 51.207 364.393 51.3095 364.874 51.5086C365.355 51.7078 365.792 51.9997 366.16 52.3677C366.528 52.7357 366.819 53.1725 367.019 53.6533C367.218 54.1342 367.32 54.6495 367.32 55.1699V101.593H357.885V55.1699C357.885 54.6463 357.988 54.1279 358.19 53.6446C358.392 53.1613 358.687 52.7227 359.059 52.3543C359.431 51.9858 359.872 51.6946 360.357 51.4977C360.842 51.3008 361.362 51.202 361.885 51.207Z" fill="white" stroke="#6FDA44" stroke-width="0.40523" stroke-miterlimit="10"/>
<path d="M333.928 100.913H374.331C374.706 100.913 375.066 101.063 375.332 101.328C375.597 101.593 375.746 101.953 375.746 102.329V104.273H332.531V102.329C332.531 101.957 332.678 101.599 332.939 101.335C333.2 101.07 333.556 100.918 333.928 100.913Z" fill="white" stroke="#6FDA44" stroke-width="0.40523" stroke-miterlimit="10"/>
<path d="M326.181 103.376H382.068C382.443 103.376 382.803 103.525 383.069 103.791C383.334 104.056 383.483 104.416 383.483 104.792V106.735H324.766V104.792C324.766 104.416 324.915 104.056 325.18 103.791C325.446 103.525 325.806 103.376 326.181 103.376Z" fill="white" stroke="#6FDA44" stroke-width="0.40523" stroke-miterlimit="10"/>
<path d="M257.776 85.0676C273.678 81.2585 283.482 65.279 279.673 49.3763C275.864 33.4737 259.884 23.6699 243.982 27.479C228.079 31.2881 218.275 47.2676 222.084 63.1702C225.894 79.0729 241.873 88.8766 257.776 85.0676Z" fill="#6FDA44" stroke="#6FDA44" stroke-width="0.40523" stroke-miterlimit="10"/>
<path d="M260.638 48.5497C261.918 43.1496 258.579 37.734 253.179 36.4534C247.778 35.1729 242.363 38.5125 241.082 43.9126C239.802 49.3127 243.141 54.7284 248.541 56.0089C253.941 57.2894 259.357 53.9498 260.638 48.5497Z" fill="#263238" stroke="#6FDA44" stroke-width="0.40523" stroke-miterlimit="10"/>
<path d="M267.01 74.9563C267.01 70.6771 265.31 66.5732 262.284 63.5473C259.258 60.5214 255.154 58.8215 250.875 58.8215C246.596 58.8215 242.492 60.5214 239.466 63.5473C236.44 66.5732 234.74 70.6771 234.74 74.9563H267.01Z" fill="#263238" stroke="#6FDA44" stroke-width="0.40523" stroke-miterlimit="10"/>
<path d="M279.059 61.3975L296.278 68.5779" stroke="#6FDA44" stroke-width="0.40523" stroke-miterlimit="10"/>
<path d="M340.392 355.343L311.094 308.165L252.207 309.222L280.561 355.409C281.692 357.249 282.124 359.435 281.778 361.568C281.432 363.7 280.33 365.637 278.674 367.024L271.984 367.496H194.084V369.185H332.72C334.338 369.19 335.926 368.761 337.321 367.943C338.716 367.124 339.865 365.947 340.649 364.532C341.433 363.118 341.822 361.519 341.777 359.902C341.732 358.286 341.253 356.711 340.392 355.343Z" fill="#263238" stroke="#6FDA44" stroke-width="0.40523" stroke-linecap="round" stroke-linejoin="round"/>
<path d="M307.762 309.137L337.06 356.315C337.914 357.683 338.386 359.254 338.428 360.866C338.469 362.479 338.078 364.072 337.295 365.482C336.512 366.892 335.366 368.067 333.976 368.884C332.585 369.701 331.001 370.131 329.389 370.128H269.539C271.145 370.128 272.721 369.699 274.106 368.886C275.491 368.073 276.634 366.906 277.417 365.504C278.201 364.103 278.596 362.518 278.563 360.912C278.53 359.307 278.069 357.739 277.229 356.371L248.875 310.184L307.762 309.137Z" fill="white" stroke="#6FDA44" stroke-width="0.40523" stroke-linecap="round" stroke-linejoin="round"/>
<path d="M306.112 306.476L247.225 307.523L258.132 325.291H317.793L306.112 306.476Z" fill="#263238" stroke="#6FDA44" stroke-width="0.40523" stroke-linecap="round" stroke-linejoin="round"/>
<path d="M148.549 318.657L393.354 318.657C394.87 318.657 396.1 317.428 396.1 315.912V110.019C396.1 108.502 394.87 107.273 393.354 107.273L148.549 107.273C147.032 107.273 145.803 108.502 145.803 110.019L145.803 315.912C145.803 317.428 147.032 318.657 148.549 318.657Z" fill="#263238" stroke="#6FDA44" stroke-width="0.40523" stroke-linecap="round" stroke-linejoin="round"/>
<path d="M144.887 318.657L378.086 318.657C382.807 318.657 386.635 314.83 386.635 310.109V115.821C386.635 111.1 382.807 107.273 378.086 107.273L144.887 107.273C140.165 107.273 136.338 111.1 136.338 115.821L136.338 310.109C136.338 314.83 140.165 318.657 144.887 318.657Z" fill="white" stroke="#6FDA44" stroke-width="0.40523" stroke-linecap="round" stroke-linejoin="round"/>
<path d="M144.509 107.273H378.511C380.676 107.275 382.752 108.137 384.283 109.669C385.813 111.202 386.673 113.279 386.673 115.444V280.802H136.348V115.444C136.348 113.279 137.207 111.202 138.738 109.669C140.268 108.137 142.344 107.275 144.509 107.273Z" fill="#263238" stroke="#6FDA44" stroke-width="0.40523" stroke-linecap="round" stroke-linejoin="round"/>
<path d="M146.858 269.225H376.123V115.68L146.858 115.68L146.858 269.225Z" fill="white" stroke="#6FDA44" stroke-width="0.40523" stroke-linecap="round" stroke-linejoin="round"/>
<path d="M147.283 188.022H376.246" stroke="#6FDA44" stroke-width="0.40523" stroke-miterlimit="10"/>
<path d="M156.907 183.673C156.907 184.128 156.772 184.574 156.519 184.953C156.265 185.331 155.905 185.626 155.484 185.8C155.063 185.974 154.599 186.019 154.152 185.93C153.706 185.84 153.295 185.62 152.974 185.297C152.652 184.974 152.434 184.563 152.346 184.116C152.258 183.669 152.305 183.205 152.481 182.785C152.656 182.364 152.953 182.006 153.333 181.754C153.713 181.502 154.159 181.368 154.614 181.37C154.916 181.37 155.215 181.43 155.494 181.546C155.773 181.662 156.026 181.831 156.239 182.045C156.452 182.259 156.621 182.513 156.735 182.792C156.85 183.071 156.909 183.371 156.907 183.673Z" stroke="#6FDA44" stroke-width="0.40523" stroke-miterlimit="10"/>
<path d="M164.787 185.965C166.053 185.965 167.08 184.939 167.08 183.672C167.08 182.406 166.053 181.38 164.787 181.38C163.521 181.38 162.494 182.406 162.494 183.672C162.494 184.939 163.521 185.965 164.787 185.965Z" stroke="#6FDA44" stroke-width="0.40523" stroke-miterlimit="10"/>
<path d="M174.959 185.965C176.225 185.965 177.252 184.939 177.252 183.672C177.252 182.406 176.225 181.38 174.959 181.38C173.693 181.38 172.666 182.406 172.666 183.672C172.666 184.939 173.693 185.965 174.959 185.965Z" stroke="#6FDA44" stroke-width="0.40523" stroke-miterlimit="10"/>
<path d="M187.422 183.673C187.42 184.126 187.284 184.568 187.031 184.944C186.778 185.32 186.419 185.612 186 185.784C185.581 185.956 185.12 186 184.676 185.911C184.232 185.821 183.824 185.602 183.504 185.281C183.184 184.96 182.967 184.551 182.879 184.107C182.792 183.662 182.838 183.202 183.011 182.783C183.185 182.365 183.479 182.008 183.856 181.756C184.233 181.504 184.676 181.37 185.129 181.37C185.431 181.37 185.73 181.43 186.008 181.546C186.287 181.661 186.54 181.831 186.753 182.045C186.966 182.259 187.135 182.513 187.25 182.792C187.364 183.071 187.423 183.371 187.422 183.673Z" stroke="#6FDA44" stroke-width="0.40523" stroke-miterlimit="10"/>
<path d="M197.603 183.673C197.603 184.128 197.468 184.573 197.215 184.952C196.962 185.33 196.602 185.625 196.181 185.8C195.761 185.974 195.298 186.019 194.851 185.931C194.405 185.842 193.994 185.622 193.672 185.3C193.35 184.979 193.131 184.568 193.042 184.122C192.953 183.675 192.999 183.212 193.173 182.791C193.348 182.371 193.643 182.011 194.021 181.758C194.4 181.505 194.845 181.37 195.3 181.37C195.603 181.369 195.903 181.428 196.183 181.543C196.463 181.658 196.717 181.828 196.931 182.042C197.145 182.256 197.315 182.51 197.43 182.79C197.545 183.07 197.604 183.37 197.603 183.673Z" stroke="#6FDA44" stroke-width="0.40523" stroke-miterlimit="10"/>
<path d="M320.653 183.672C320.662 184.131 320.535 184.582 320.286 184.967C320.038 185.352 319.68 185.655 319.258 185.836C318.837 186.016 318.371 186.067 317.921 185.981C317.47 185.895 317.056 185.677 316.73 185.354C316.404 185.031 316.183 184.619 316.093 184.169C316.004 183.719 316.05 183.253 316.228 182.83C316.405 182.407 316.704 182.047 317.087 181.795C317.471 181.543 317.92 181.412 318.379 181.417C318.977 181.422 319.55 181.661 319.975 182.082C320.4 182.503 320.643 183.074 320.653 183.672Z" stroke="#6FDA44" stroke-width="0.40523" stroke-miterlimit="10"/>
<path d="M330.823 183.673C330.823 184.128 330.688 184.574 330.435 184.953C330.181 185.331 329.821 185.626 329.4 185.8C328.979 185.974 328.515 186.019 328.068 185.93C327.622 185.84 327.211 185.62 326.89 185.297C326.568 184.974 326.35 184.563 326.262 184.116C326.174 183.669 326.221 183.205 326.397 182.785C326.572 182.364 326.869 182.006 327.249 181.754C327.629 181.502 328.075 181.368 328.53 181.37C328.832 181.37 329.131 181.43 329.41 181.546C329.689 181.662 329.942 181.831 330.155 182.045C330.368 182.259 330.537 182.513 330.651 182.792C330.766 183.071 330.825 183.371 330.823 183.673Z" stroke="#6FDA44" stroke-width="0.40523" stroke-miterlimit="10"/>
<path d="M341.023 183.673C341.021 184.126 340.885 184.568 340.632 184.944C340.379 185.32 340.02 185.612 339.601 185.784C339.182 185.956 338.721 186 338.277 185.911C337.833 185.821 337.425 185.602 337.106 185.281C336.786 184.96 336.569 184.551 336.481 184.107C336.393 183.662 336.439 183.202 336.613 182.783C336.787 182.365 337.081 182.008 337.457 181.756C337.834 181.504 338.277 181.37 338.73 181.37C339.032 181.37 339.331 181.43 339.61 181.546C339.889 181.661 340.142 181.831 340.355 182.045C340.568 182.259 340.737 182.513 340.851 182.792C340.966 183.071 341.024 183.371 341.023 183.673Z" stroke="#6FDA44" stroke-width="0.40523" stroke-miterlimit="10"/>
<path d="M351.177 183.673C351.177 184.128 351.042 184.573 350.789 184.952C350.536 185.33 350.176 185.625 349.756 185.8C349.335 185.974 348.872 186.019 348.425 185.931C347.979 185.842 347.569 185.622 347.247 185.3C346.925 184.979 346.705 184.568 346.617 184.122C346.528 183.675 346.573 183.212 346.748 182.791C346.922 182.371 347.217 182.011 347.595 181.758C347.974 181.505 348.419 181.37 348.875 181.37C349.177 181.369 349.477 181.428 349.757 181.543C350.037 181.658 350.291 181.828 350.505 182.042C350.719 182.256 350.889 182.51 351.004 182.79C351.119 183.07 351.178 183.37 351.177 183.673Z" stroke="#6FDA44" stroke-width="0.40523" stroke-miterlimit="10"/>
<path d="M359.045 185.965C360.311 185.965 361.338 184.939 361.338 183.672C361.338 182.406 360.311 181.38 359.045 181.38C357.778 181.38 356.752 182.406 356.752 183.672C356.752 184.939 357.778 185.965 359.045 185.965Z" stroke="#6FDA44" stroke-width="0.40523" stroke-miterlimit="10"/>
<path d="M369.217 185.965C370.483 185.965 371.509 184.939 371.509 183.672C371.509 182.406 370.483 181.38 369.217 181.38C367.95 181.38 366.924 182.406 366.924 183.672C366.924 184.939 367.95 185.965 369.217 185.965Z" stroke="#6FDA44" stroke-width="0.40523" stroke-miterlimit="10"/>
<path d="M311.15 241.494H199.178C197.615 241.494 196.348 242.761 196.348 244.324V255.647C196.348 257.21 197.615 258.478 199.178 258.478H311.15C312.713 258.478 313.981 257.21 313.981 255.647V244.324C313.981 242.761 312.713 241.494 311.15 241.494Z" fill="#6FDA44" stroke="#6FDA44" stroke-width="0.40523" stroke-linecap="round" stroke-linejoin="round"/>
<path d="M223.81 249.534L224.142 249.702L224.14 249.711L224.15 249.706L224.155 249.709L224.15 249.719L223.765 249.654L221.836 249.325L222.057 248.65L223.81 249.534ZM224.152 249.638L224.101 249.321L223.789 247.376H224.504L224.201 249.322L224.152 249.638ZM224.164 249.713L224.162 249.7L224.492 249.534L226.254 248.649L226.475 249.325L224.537 249.654L224.161 249.717L224.156 249.709L224.164 249.713ZM224.428 249.997L225.809 251.378L225.245 251.795L224.335 250.052L224.174 249.743L224.428 249.997ZM223.976 250.052L223.067 251.795L222.502 251.377L223.875 249.996L224.149 249.72L223.976 250.052Z" fill="#263238" stroke="#6FDA44" stroke-width="0.40523"/>
<path d="M231.083 249.534L231.414 249.701L231.412 249.712L231.424 249.706L231.429 249.709L231.424 249.717L231.048 249.654L229.11 249.325L229.331 248.65L231.083 249.534ZM231.424 249.638L231.375 249.322L231.071 247.376H231.786L231.474 249.321L231.424 249.638ZM231.435 249.712L231.434 249.701L231.765 249.534L233.527 248.649L233.749 249.325L231.82 249.654L231.435 249.719L231.43 249.709L231.435 249.712ZM231.71 249.996L233.083 251.377L232.518 251.795L231.609 250.052L231.435 249.72L231.71 249.996ZM231.249 250.052L230.34 251.795L229.776 251.378L231.157 249.997L231.411 249.743L231.249 250.052Z" fill="#263238" stroke="#6FDA44" stroke-width="0.40523"/>
<path d="M238.358 249.534L238.7 249.708L238.699 249.712L238.703 249.71L238.711 249.714L238.709 249.718L238.333 249.654L236.404 249.325L236.626 248.651L238.358 249.534ZM238.705 249.672L238.651 249.322L238.347 247.376H239.063L238.76 249.322L238.705 249.672ZM238.712 249.714L238.71 249.706L239.051 249.534L240.805 248.649L241.032 249.325L239.096 249.654L238.72 249.717L238.715 249.708L238.712 249.714ZM238.986 249.997L240.368 251.378L239.804 251.795L238.894 250.052L238.733 249.743L238.986 249.997ZM238.535 250.052L237.626 251.795L237.062 251.378L238.443 249.997L238.696 249.743L238.535 250.052Z" fill="#263238" stroke="#6FDA44" stroke-width="0.40523"/>
<path d="M245.634 249.534L245.965 249.702L245.963 249.712L245.974 249.707L245.978 249.709L245.974 249.716L245.608 249.654L243.67 249.325L243.891 248.65L245.634 249.534ZM245.975 249.633L245.925 249.321L245.614 247.376H246.337L246.025 249.321L245.975 249.633ZM245.988 249.714L245.986 249.7L246.316 249.534L248.078 248.649L248.3 249.325L246.361 249.654L245.985 249.717L245.981 249.71L245.988 249.714ZM246.252 249.997L247.633 251.378L247.069 251.795L246.16 250.052L245.999 249.743L246.252 249.997ZM245.8 250.053L244.9 251.795L244.337 251.378L245.718 249.997L245.949 249.766L245.8 250.053Z" fill="#263238" stroke="#6FDA44" stroke-width="0.40523"/>
<path d="M252.915 249.533L253.217 249.69L252.892 249.635L250.955 249.306L251.182 248.633L252.915 249.533ZM253.001 249.978L253.254 249.724L253.093 250.033L252.184 251.776L251.62 251.359L253.001 249.978ZM253.209 249.322L252.906 247.376H253.62L253.309 249.321L253.258 249.638L253.209 249.322ZM253.6 249.534L255.361 248.649L255.583 249.325L253.654 249.654L253.288 249.716L253.278 249.696L253.6 249.534ZM253.545 249.997L254.926 251.378L254.363 251.795L253.453 250.034L253.315 249.767L253.545 249.997Z" fill="#263238" stroke="#6FDA44" stroke-width="0.40523"/>
<path d="M260.2 249.534L260.556 249.716L260.493 249.321L260.181 247.376H260.899L260.62 249.325L260.566 249.708L260.912 249.534L262.674 248.649L262.895 249.325L260.957 249.654L260.581 249.717L260.576 249.708L260.57 249.719L260.185 249.654L258.256 249.325L258.477 248.651L260.2 249.534ZM260.847 249.997L262.229 251.378L261.665 251.795L260.755 250.052L260.594 249.743L260.847 249.997ZM260.396 250.052L259.487 251.795L258.922 251.377L260.295 249.996L260.569 249.72L260.396 250.052Z" fill="#263238" stroke="#6FDA44" stroke-width="0.40523"/>
<path d="M267.476 249.534L267.806 249.701L267.804 249.712L267.816 249.706L267.821 249.709L267.817 249.717L267.44 249.654L265.502 249.325L265.723 248.65L267.476 249.534ZM267.816 249.638L267.767 249.322L267.464 247.376H268.178L267.867 249.321L267.816 249.638ZM267.828 249.712L267.826 249.701L268.158 249.534L269.92 248.649L270.141 249.325L268.212 249.654L267.828 249.719L267.822 249.709L267.828 249.712ZM268.103 249.996L269.475 251.377L268.911 251.795L268.001 250.052L267.828 249.72L268.103 249.996ZM267.642 250.052L266.733 251.795L266.169 251.378L267.55 249.997L267.803 249.743L267.642 250.052Z" fill="#263238" stroke="#6FDA44" stroke-width="0.40523"/>
<path d="M274.751 249.534L275.092 249.708L275.092 249.712L275.096 249.71L275.104 249.714L275.102 249.718L274.726 249.654L272.797 249.325L273.018 248.651L274.751 249.534ZM275.098 249.672L275.043 249.322L274.74 247.376H275.456L275.152 249.322L275.098 249.672ZM275.104 249.714L275.103 249.706L275.444 249.534L277.198 248.649L277.425 249.325L275.488 249.654L275.112 249.717L275.107 249.708L275.104 249.714ZM275.379 249.997L276.76 251.378L276.196 251.795L275.287 250.052L275.126 249.743L275.379 249.997ZM274.928 250.052L274.018 251.795L273.454 251.378L274.835 249.997L275.089 249.743L274.928 250.052Z" fill="#263238" stroke="#6FDA44" stroke-width="0.40523"/>
<path d="M282.034 249.534L282.366 249.703L282.365 249.711L282.374 249.707L282.379 249.709L282.375 249.716L282.009 249.654L280.07 249.325L280.292 248.65L282.034 249.534ZM282.377 249.638L282.326 249.321L282.014 247.376H282.729L282.426 249.322L282.377 249.638ZM282.389 249.714L282.387 249.7L282.717 249.534L284.479 248.649L284.7 249.325L282.762 249.654L282.386 249.717L282.382 249.71L282.389 249.714ZM282.652 249.997L284.034 251.378L283.47 251.795L282.56 250.052L282.399 249.743L282.652 249.997ZM282.201 250.053L281.3 251.795L280.737 251.378L282.118 249.997L282.349 249.766L282.201 250.053Z" fill="#263238" stroke="#6FDA44" stroke-width="0.40523"/>
<path d="M289.309 249.534L289.64 249.703L289.639 249.712L289.649 249.707L289.662 249.714L289.66 249.717L289.284 249.654L287.348 249.325L287.575 248.65L289.309 249.534ZM289.651 249.638L289.601 249.322L289.298 247.376H290.013L289.701 249.321L289.651 249.638ZM289.662 249.714L289.66 249.701L289.992 249.534L291.754 248.649L291.976 249.325L290.047 249.654L289.671 249.718L289.665 249.708L289.662 249.714ZM289.937 249.997L291.318 251.378L290.754 251.795L289.845 250.052L289.684 249.743L289.937 249.997ZM289.486 250.052L288.576 251.795L288.012 251.378L289.394 249.997L289.647 249.743L289.486 250.052Z" fill="#263238" stroke="#6FDA44" stroke-width="0.40523"/>
<path d="M296.071 219.769C318.058 197.782 318.058 162.133 296.071 140.146C274.084 118.159 238.435 118.159 216.448 140.146C194.461 162.133 194.461 197.782 216.448 219.769C238.435 241.756 274.084 241.756 296.071 219.769Z" fill="#6FDA44" stroke="#6FDA44" stroke-width="0.40523" stroke-linecap="round" stroke-linejoin="round"/>
<path d="M283.466 207.166C298.493 192.139 298.493 167.776 283.466 152.749C268.44 137.723 244.077 137.723 229.05 152.749C214.023 167.776 214.023 192.139 229.05 207.166C244.077 222.192 268.44 222.192 283.466 207.166Z" fill="#263238" stroke="#6FDA44" stroke-width="0.40523" stroke-linecap="round" stroke-linejoin="round"/>
<path d="M267.124 215.656C286.839 207.723 296.39 185.31 288.456 165.595C280.523 145.881 258.11 136.33 238.396 144.263C218.681 152.196 209.13 174.609 217.064 194.324C224.997 214.038 247.41 223.589 267.124 215.656Z" fill="white" stroke="#6FDA44" stroke-width="0.40523" stroke-linecap="round" stroke-linejoin="round"/>
<path d="M272.094 199.112C282.673 188.533 282.673 171.381 272.094 160.802C261.515 150.222 244.363 150.222 233.784 160.802C223.205 171.381 223.205 188.533 233.784 199.112C244.363 209.691 261.515 209.691 272.094 199.112Z" fill="#6FDA44" stroke="#6FDA44" stroke-width="0.40523" stroke-linecap="round" stroke-linejoin="round"/>
<path d="M206.364 160.011L206.847 158.946L214.475 162.419L214.659 162.503L214.744 162.319L215.736 160.153L216.668 160.572L215.11 163.977L206.364 160.011Z" fill="#263238" stroke="#6FDA44" stroke-width="0.40523"/>
<path d="M210.655 156.099L210.655 156.099L210.649 156.096C210.395 155.951 210.172 155.757 209.994 155.525C209.816 155.293 209.686 155.027 209.613 154.744C209.539 154.461 209.523 154.166 209.566 153.877C209.609 153.587 209.709 153.309 209.861 153.059C210.013 152.81 210.214 152.593 210.451 152.422C210.689 152.251 210.958 152.13 211.244 152.065C211.529 152 211.824 151.993 212.112 152.045C212.4 152.097 212.675 152.206 212.92 152.365L212.92 152.365L212.925 152.369L217.37 155.067L217.376 155.071L217.383 155.075C217.651 155.212 217.889 155.403 218.081 155.636C218.272 155.869 218.413 156.14 218.496 156.43C218.578 156.72 218.6 157.024 218.559 157.323C218.519 157.622 218.417 157.91 218.26 158.168C218.104 158.426 217.896 158.649 217.649 158.822C217.402 158.996 217.122 159.117 216.827 159.178C216.531 159.239 216.226 159.238 215.931 159.175C215.636 159.113 215.357 158.99 215.111 158.815L215.105 158.811L215.099 158.807L210.655 156.099ZM215.793 157.86L215.793 157.86L215.795 157.861C216.122 158.057 216.427 158.144 216.703 158.093C216.986 158.039 217.192 157.85 217.338 157.601C217.483 157.355 217.554 157.085 217.472 156.812C217.392 156.543 217.177 156.315 216.854 156.118C216.854 156.118 216.854 156.118 216.854 156.118L212.231 153.287C212.231 153.287 212.231 153.287 212.231 153.287C211.903 153.085 211.598 152.998 211.321 153.05C211.038 153.103 210.833 153.292 210.687 153.535C210.541 153.778 210.47 154.048 210.552 154.322C210.632 154.592 210.845 154.822 211.17 155.02C211.17 155.02 211.17 155.02 211.17 155.02L215.793 157.86Z" fill="#263238" stroke="#6FDA44" stroke-width="0.40523"/>
<path d="M218.106 149.31L217.847 149.618L221.439 153.356L220.286 154.729L212.242 149.357L212.93 148.504L219.381 152.845L219.638 152.535L214.208 147.003L214.919 146.136L221.37 150.542L221.631 150.234L216.237 144.61L216.861 143.866L223.524 150.873L222.409 152.191L218.106 149.31Z" fill="#263238" stroke="#6FDA44" stroke-width="0.40523"/>
<path d="M243.15 136.452L243.538 136.353L242.875 129.365L244.633 128.928L246.959 138.253L245.909 138.514L244.212 131.747L243.814 131.815L244.486 138.869L243.379 139.144L240.617 132.697L240.234 132.826L241.893 139.5L240.955 139.739L238.628 130.415L240.387 129.977L243.15 136.452Z" fill="#263238" stroke="#6FDA44" stroke-width="0.40523"/>
<path d="M248.788 132.457L248.808 132.659L249.01 132.639L250.959 132.442L251.061 133.464L249.11 133.661L248.909 133.681L248.929 133.882L249.222 136.798L249.242 136.999L249.443 136.979L251.95 136.735L252.051 137.756L248.18 138.132L247.229 128.571L251.101 128.187L251.202 129.208L248.696 129.452L248.494 129.472L248.514 129.674L248.788 132.457Z" fill="#263238" stroke="#6FDA44" stroke-width="0.40523"/>
<path d="M255.419 137.755L253.131 137.703L253.358 128.097L255.646 128.149L255.646 128.149H255.651C256.392 128.149 256.91 128.371 257.241 128.75C257.576 129.132 257.75 129.707 257.732 130.47C257.732 130.47 257.732 130.47 257.732 130.47L257.609 135.537L257.609 135.537V135.542C257.609 136.311 257.41 136.865 257.056 137.223C256.704 137.579 256.166 137.773 255.42 137.755L255.419 137.755ZM254.698 129.159H254.5L254.495 129.357L254.325 136.499L254.32 136.707H254.528H255.415C255.696 136.707 255.962 136.638 256.157 136.435C256.349 136.235 256.438 135.94 256.448 135.566L256.448 135.566L256.57 130.357L256.57 130.357V130.352C256.57 129.973 256.496 129.678 256.316 129.472C256.134 129.264 255.877 129.186 255.604 129.16L255.594 129.159H255.585H254.698Z" fill="#263238" stroke="#6FDA44" stroke-width="0.40523"/>
<path d="M258.745 137.978L259.895 128.436L261.059 128.576L259.909 138.119L258.745 137.978Z" fill="#263238" stroke="#6FDA44" stroke-width="0.40523"/>
<path d="M261.622 136.113L263.202 128.867L264.354 129.12L262.746 136.47L262.745 136.471C262.665 136.849 262.683 137.163 262.826 137.405C262.97 137.652 263.217 137.78 263.492 137.843C263.773 137.908 264.051 137.891 264.284 137.723C264.511 137.559 264.656 137.278 264.736 136.906C264.736 136.906 264.736 136.906 264.736 136.906L266.344 129.555L267.401 129.781L265.812 137.036L265.812 137.037C265.649 137.79 265.34 138.307 264.921 138.602C264.504 138.894 263.943 138.992 263.222 138.835C262.503 138.678 262.036 138.355 261.78 137.914C261.523 137.468 261.459 136.866 261.622 136.113Z" fill="#263238" stroke="#6FDA44" stroke-width="0.40523"/>
<path d="M270.162 137.973L270.536 138.114L273.998 132.01L275.693 132.658L272.244 141.629L271.235 141.238L273.738 134.727L273.373 134.555L269.865 140.715L268.8 140.302L270.219 133.441L269.831 133.327L267.356 139.743L266.451 139.397L269.901 130.425L271.598 131.074L270.162 137.973Z" fill="#263238" stroke="#6FDA44" stroke-width="0.40523"/>
<path d="M295.717 148.826L296.375 149.784L293.004 152.094L292.837 152.209L292.951 152.376L293.961 153.857L294.075 154.025L294.243 153.91L297.617 151.597L298.325 152.589L290.403 158.021L289.695 157.029L293.063 154.712L293.231 154.597L293.115 154.43L292.125 152.996L292.011 152.831L291.845 152.943L288.454 155.218L287.795 154.258L295.717 148.826Z" fill="#263238" stroke="#6FDA44" stroke-width="0.40523"/>
<path d="M290.997 159.183L299.427 154.565L299.987 155.588L291.558 160.214L290.997 159.183Z" fill="#263238" stroke="#6FDA44" stroke-width="0.40523"/>
<path d="M297.109 162.4L296.906 161.928L297.891 161.517L298.609 163.176L295.871 164.351L295.871 164.351C295.163 164.655 294.562 164.703 294.077 164.533C293.596 164.365 293.191 163.967 292.9 163.296C292.61 162.626 292.6 162.057 292.809 161.59C293.02 161.119 293.47 160.715 294.172 160.411C294.172 160.411 294.172 160.411 294.172 160.411L298.956 158.354L298.956 158.354C299.668 158.046 300.272 157.995 300.757 158.164C301.24 158.331 301.645 158.729 301.935 159.4C302.226 160.07 302.235 160.638 302.025 161.106C301.813 161.576 301.361 161.981 300.654 162.285L300.654 162.285L299.944 162.591L299.517 161.593L300.279 161.25C300.627 161.098 300.87 160.901 300.988 160.648C301.108 160.389 301.077 160.114 300.969 159.855L300.782 159.933L300.969 159.855C300.859 159.592 300.679 159.378 300.405 159.285C300.137 159.195 299.82 159.236 299.466 159.388L299.466 159.388L294.503 161.52C294.503 161.52 294.503 161.52 294.503 161.52C294.149 161.672 293.903 161.87 293.788 162.126C293.67 162.387 293.708 162.662 293.821 162.92C293.934 163.177 294.109 163.394 294.377 163.49C294.643 163.584 294.954 163.545 295.304 163.393C295.304 163.393 295.305 163.393 295.305 163.393L297.002 162.666L297.189 162.587L297.109 162.4Z" fill="#263238" stroke="#6FDA44" stroke-width="0.40523"/>
<path d="M300.459 167.997L304.387 166.891L304.711 168.039L295.468 170.647L295.144 169.499L299.082 168.384L299.277 168.328L299.221 168.133L298.731 166.416L298.675 166.222L298.481 166.276L294.552 167.382L294.23 166.262L303.481 163.655L303.796 164.775L299.858 165.89L299.663 165.945L299.719 166.14L300.209 167.858L300.265 168.052L300.459 167.997Z" fill="#263238" stroke="#6FDA44" stroke-width="0.40523"/>
<path d="M225.768 135.164L231.523 144.468" stroke="#6FDA44" stroke-width="0.40523" stroke-miterlimit="10"/>
<path d="M288.618 137.825L281.984 146.676" stroke="#6FDA44" stroke-width="0.40523" stroke-miterlimit="10"/>
<path d="M285.74 162.801L261.896 167.49L268.737 180.162L285.74 162.801Z" fill="#263238" stroke="#6FDA44" stroke-width="0.40523" stroke-miterlimit="10"/>
<path d="M84.6417 359.504H77.3574V361.929H84.6417V359.504Z" fill="white" stroke="#6FDA44" stroke-width="0.40523" stroke-linecap="round" stroke-linejoin="round"/>
<path d="M94.3506 359.504H87.0664V361.929H94.3506V359.504Z" fill="white" stroke="#6FDA44" stroke-width="0.40523" stroke-linecap="round" stroke-linejoin="round"/>
<path d="M104.05 359.504H96.7656V361.929H104.05V359.504Z" fill="white" stroke="#6FDA44" stroke-width="0.40523" stroke-linecap="round" stroke-linejoin="round"/>
<path d="M113.759 359.504H106.475V361.929H113.759V359.504Z" fill="white" stroke="#6FDA44" stroke-width="0.40523" stroke-linecap="round" stroke-linejoin="round"/>
<path d="M123.468 359.504H116.184V361.929H123.468V359.504Z" fill="white" stroke="#6FDA44" stroke-width="0.40523" stroke-linecap="round" stroke-linejoin="round"/>
<path d="M133.177 359.504H125.893V361.929H133.177V359.504Z" fill="white" stroke="#6FDA44" stroke-width="0.40523" stroke-linecap="round" stroke-linejoin="round"/>
<path d="M142.886 359.504H135.602V361.929H142.886V359.504Z" fill="white" stroke="#6FDA44" stroke-width="0.40523" stroke-linecap="round" stroke-linejoin="round"/>
<path d="M152.595 359.504H145.311V361.929H152.595V359.504Z" fill="white" stroke="#6FDA44" stroke-width="0.40523" stroke-linecap="round" stroke-linejoin="round"/>
<path d="M162.306 359.504H155.021V361.929H162.306V359.504Z" fill="white" stroke="#6FDA44" stroke-width="0.40523" stroke-linecap="round" stroke-linejoin="round"/>
<path d="M172.015 359.504H164.73V361.929H172.015V359.504Z" fill="white" stroke="#6FDA44" stroke-width="0.40523" stroke-linecap="round" stroke-linejoin="round"/>
<path d="M181.724 359.504H174.439V361.929H181.724V359.504Z" fill="white" stroke="#6FDA44" stroke-width="0.40523" stroke-linecap="round" stroke-linejoin="round"/>
<path d="M191.433 359.504H184.148V361.929H191.433V359.504Z" fill="white" stroke="#6FDA44" stroke-width="0.40523" stroke-linecap="round" stroke-linejoin="round"/>
<path d="M201.142 359.504H193.857V361.929H201.142V359.504Z" fill="white" stroke="#6FDA44" stroke-width="0.40523" stroke-linecap="round" stroke-linejoin="round"/>
<path d="M210.851 359.504H203.566V361.929H210.851V359.504Z" fill="white" stroke="#6FDA44" stroke-width="0.40523" stroke-linecap="round" stroke-linejoin="round"/>
<path d="M220.55 359.504H213.266V361.929H220.55V359.504Z" fill="white" stroke="#6FDA44" stroke-width="0.40523" stroke-linecap="round" stroke-linejoin="round"/>
<path d="M230.259 359.504H222.975V361.929H230.259V359.504Z" fill="white" stroke="#6FDA44" stroke-width="0.40523" stroke-linecap="round" stroke-linejoin="round"/>
<path d="M239.968 359.504H232.684V361.929H239.968V359.504Z" fill="white" stroke="#6FDA44" stroke-width="0.40523" stroke-linecap="round" stroke-linejoin="round"/>
<path d="M249.679 359.504H242.395V361.929H249.679V359.504Z" fill="white" stroke="#6FDA44" stroke-width="0.40523" stroke-linecap="round" stroke-linejoin="round"/>
<path d="M259.388 359.504H252.104V361.929H259.388V359.504Z" fill="white" stroke="#6FDA44" stroke-width="0.40523" stroke-linecap="round" stroke-linejoin="round"/>
<path d="M269.097 359.504H261.812V361.929H269.097V359.504Z" fill="white" stroke="#6FDA44" stroke-width="0.40523" stroke-linecap="round" stroke-linejoin="round"/>
<path d="M278.806 359.504H271.521V361.929H278.806V359.504Z" fill="white" stroke="#6FDA44" stroke-width="0.40523" stroke-linecap="round" stroke-linejoin="round"/>
<path d="M284.099 362.278H73.5918V370.128H284.099V362.278Z" fill="white" stroke="#6FDA44" stroke-width="0.40523" stroke-linecap="round" stroke-linejoin="round"/>
<path d="M284.098 362.278H232.75V370.128H284.098V362.278Z" fill="#263238" stroke="#6FDA44" stroke-width="0.40523" stroke-linecap="round" stroke-linejoin="round"/>
<mask id="path-150-inside-1_114_74056" fill="white">
<path d="M381.484 329.952C381.484 329.952 356.48 286.048 362.254 274.886C368.029 263.724 382.758 283.812 382.758 283.812C382.758 283.812 369.944 242.89 376.993 225.038C384.041 207.186 396.222 225.038 396.864 237.682C397.506 250.325 394.297 271.914 394.297 271.914C394.297 271.914 399.421 227.265 411.602 240.663C423.784 254.062 396.222 298.701 396.222 298.701C396.222 298.701 414.81 288.322 414.15 301.674C413.489 315.025 391.712 326.97 391.712 326.97"/>
</mask>
<path d="M381.484 329.952C381.484 329.952 356.48 286.048 362.254 274.886C368.029 263.724 382.758 283.812 382.758 283.812C382.758 283.812 369.944 242.89 376.993 225.038C384.041 207.186 396.222 225.038 396.864 237.682C397.506 250.325 394.297 271.914 394.297 271.914C394.297 271.914 399.421 227.265 411.602 240.663C423.784 254.062 396.222 298.701 396.222 298.701C396.222 298.701 414.81 288.322 414.15 301.674C413.489 315.025 391.712 326.97 391.712 326.97" fill="#6FDA44"/>
<path d="M382.758 283.812L382.431 284.052L383.145 283.691L382.758 283.812ZM394.297 271.914L393.895 271.868L394.698 271.973L394.297 271.914ZM396.222 298.701L395.878 298.488L395.058 299.815L396.42 299.055L396.222 298.701ZM381.484 329.952C381.836 329.751 381.836 329.751 381.836 329.751C381.836 329.751 381.835 329.75 381.835 329.749C381.834 329.748 381.833 329.746 381.832 329.744C381.829 329.738 381.824 329.73 381.818 329.72C381.807 329.699 381.789 329.668 381.765 329.626C381.718 329.543 381.649 329.42 381.558 329.258C381.377 328.935 381.112 328.458 380.776 327.848C380.105 326.628 379.152 324.872 378.026 322.729C375.775 318.443 372.834 312.615 370.074 306.439C367.313 300.261 364.738 293.749 363.214 288.094C362.452 285.266 361.956 282.664 361.827 280.434C361.698 278.195 361.941 276.373 362.614 275.072L361.894 274.7C361.124 276.189 360.885 278.181 361.018 280.48C361.151 282.787 361.662 285.447 362.432 288.305C363.972 294.02 366.566 300.577 369.334 306.77C372.103 312.966 375.052 318.811 377.309 323.106C378.437 325.254 379.392 327.015 380.066 328.239C380.403 328.851 380.669 329.329 380.851 329.654C380.942 329.817 381.012 329.941 381.06 330.025C381.083 330.067 381.101 330.099 381.113 330.12C381.12 330.131 381.124 330.139 381.127 330.144C381.129 330.147 381.13 330.149 381.131 330.15C381.131 330.151 381.131 330.151 381.132 330.152C381.132 330.152 381.132 330.152 381.484 329.952ZM362.614 275.072C363.309 273.73 364.119 272.892 364.987 272.421C365.852 271.951 366.81 271.826 367.837 271.973C369.915 272.27 372.225 273.673 374.414 275.476C376.591 277.269 378.596 279.412 380.059 281.112C380.79 281.961 381.384 282.697 381.795 283.221C382 283.483 382.16 283.691 382.268 283.834C382.322 283.905 382.363 283.96 382.39 283.997C382.404 284.015 382.414 284.029 382.421 284.038C382.425 284.043 382.427 284.046 382.429 284.049C382.43 284.05 382.43 284.05 382.431 284.051C382.431 284.051 382.431 284.051 382.431 284.052C382.431 284.052 382.431 284.052 382.758 283.812C383.085 283.572 383.085 283.572 383.084 283.572C383.084 283.572 383.084 283.572 383.084 283.571C383.083 283.57 383.082 283.569 383.082 283.568C383.08 283.566 383.077 283.562 383.073 283.557C383.066 283.547 383.055 283.532 383.04 283.513C383.012 283.474 382.969 283.418 382.914 283.345C382.804 283.198 382.641 282.986 382.432 282.72C382.015 282.189 381.414 281.443 380.673 280.583C379.195 278.866 377.156 276.684 374.929 274.85C372.714 273.026 370.26 271.5 367.952 271.17C366.786 271.004 365.646 271.141 364.6 271.709C363.557 272.275 362.644 273.252 361.894 274.7L362.614 275.072ZM382.758 283.812C383.145 283.691 383.145 283.691 383.144 283.691C383.144 283.69 383.144 283.69 383.144 283.689C383.144 283.688 383.143 283.686 383.142 283.684C383.141 283.679 383.139 283.672 383.136 283.662C383.13 283.643 383.12 283.613 383.109 283.575C383.085 283.497 383.049 283.382 383.003 283.231C382.912 282.928 382.778 282.481 382.61 281.905C382.274 280.754 381.802 279.089 381.258 277.035C380.168 272.926 378.789 267.264 377.631 261.045C376.471 254.826 375.534 248.058 375.325 241.739C375.116 235.412 375.638 229.573 377.37 225.187L376.616 224.889C374.823 229.429 374.304 235.4 374.515 241.766C374.726 248.141 375.671 254.952 376.834 261.194C377.997 267.437 379.381 273.121 380.474 277.243C381.021 279.304 381.495 280.976 381.832 282.132C382.001 282.711 382.135 283.16 382.228 283.466C382.274 283.618 382.31 283.735 382.334 283.813C382.346 283.853 382.355 283.882 382.362 283.902C382.365 283.913 382.367 283.92 382.369 283.925C382.369 283.928 382.37 283.93 382.37 283.931C382.371 283.932 382.371 283.932 382.371 283.933C382.371 283.933 382.371 283.933 382.758 283.812ZM377.37 225.187C379.118 220.759 381.136 218.677 383.097 218.093C385.037 217.514 387.094 218.355 389.052 220.218C391.002 222.074 392.778 224.88 394.106 228.019C395.434 231.157 396.302 234.597 396.459 237.702L397.269 237.661C397.105 234.445 396.21 230.912 394.853 227.704C393.496 224.498 391.666 221.586 389.61 219.63C387.561 217.681 385.212 216.616 382.865 217.316C380.539 218.01 378.392 220.391 376.616 224.889L377.37 225.187ZM396.459 237.702C396.778 243.99 396.14 252.522 395.418 259.497C395.058 262.982 394.677 266.072 394.387 268.29C394.242 269.4 394.119 270.291 394.033 270.905C393.99 271.212 393.956 271.45 393.932 271.61C393.921 271.691 393.912 271.752 393.906 271.793C393.903 271.813 393.9 271.829 393.899 271.839C393.898 271.844 393.898 271.848 393.897 271.85C393.897 271.852 393.897 271.853 393.897 271.853C393.897 271.854 393.897 271.854 393.897 271.854C393.897 271.854 393.897 271.854 394.297 271.914C394.698 271.973 394.698 271.973 394.698 271.973C394.698 271.973 394.698 271.973 394.698 271.972C394.699 271.972 394.699 271.971 394.699 271.969C394.699 271.967 394.7 271.963 394.701 271.957C394.702 271.947 394.705 271.931 394.708 271.91C394.714 271.869 394.723 271.807 394.734 271.726C394.758 271.565 394.792 271.326 394.835 271.018C394.922 270.402 395.045 269.508 395.191 268.396C395.482 266.171 395.863 263.074 396.224 259.581C396.946 252.601 397.591 244.016 397.269 237.661L396.459 237.702ZM394.297 271.914C394.7 271.96 394.7 271.96 394.7 271.96C394.7 271.959 394.7 271.959 394.7 271.958C394.7 271.957 394.701 271.955 394.701 271.952C394.702 271.947 394.702 271.939 394.704 271.929C394.706 271.908 394.71 271.876 394.715 271.834C394.725 271.751 394.74 271.627 394.76 271.466C394.8 271.144 394.861 270.672 394.943 270.077C395.106 268.885 395.353 267.198 395.688 265.214C396.357 261.245 397.375 256.1 398.771 251.379C400.172 246.635 401.933 242.397 404.053 240.173C405.103 239.071 406.196 238.51 407.342 238.564C408.496 238.618 409.815 239.3 411.302 240.936L411.902 240.391C410.344 238.677 408.838 237.823 407.38 237.754C405.914 237.686 404.609 238.415 403.466 239.614C401.199 241.993 399.395 246.405 397.993 251.149C396.585 255.915 395.561 261.095 394.889 265.079C394.553 267.072 394.304 268.768 394.14 269.966C394.058 270.565 393.997 271.04 393.956 271.365C393.936 271.528 393.92 271.653 393.91 271.738C393.905 271.78 393.901 271.813 393.899 271.834C393.898 271.845 393.897 271.853 393.896 271.859C393.896 271.862 393.895 271.864 393.895 271.865C393.895 271.866 393.895 271.867 393.895 271.867C393.895 271.867 393.895 271.868 394.297 271.914ZM411.302 240.936C414.22 244.145 414.804 249.287 413.937 255.327C413.073 261.346 410.785 268.146 408.106 274.55C405.43 280.951 402.372 286.936 399.983 291.323C398.788 293.516 397.761 295.309 397.033 296.552C396.669 297.174 396.38 297.659 396.182 297.988C396.083 298.152 396.007 298.278 395.955 298.362C395.929 298.404 395.91 298.436 395.897 298.457C395.89 298.467 395.886 298.475 395.882 298.481C395.881 298.483 395.879 298.485 395.879 298.487C395.878 298.487 395.878 298.488 395.878 298.488C395.878 298.488 395.878 298.488 396.222 298.701C396.567 298.914 396.567 298.914 396.568 298.914C396.568 298.913 396.568 298.913 396.569 298.912C396.569 298.91 396.571 298.908 396.572 298.906C396.576 298.9 396.581 298.892 396.588 298.881C396.601 298.859 396.621 298.827 396.647 298.784C396.699 298.698 396.776 298.572 396.876 298.406C397.076 298.074 397.367 297.587 397.733 296.962C398.464 295.712 399.495 293.912 400.694 291.711C403.092 287.309 406.163 281.297 408.854 274.863C411.543 268.433 413.861 261.56 414.739 255.442C415.614 249.344 415.075 243.88 411.902 240.391L411.302 240.936ZM396.222 298.701C396.42 299.055 396.42 299.055 396.42 299.055C396.42 299.055 396.42 299.055 396.42 299.055C396.421 299.055 396.422 299.054 396.423 299.054C396.425 299.053 396.428 299.051 396.432 299.048C396.44 299.044 396.453 299.037 396.47 299.027C396.504 299.009 396.555 298.981 396.622 298.945C396.756 298.874 396.953 298.77 397.203 298.643C397.705 298.388 398.422 298.038 399.28 297.659C401 296.9 403.273 296.032 405.514 295.578C407.773 295.12 409.914 295.099 411.433 295.932C412.9 296.736 413.906 298.41 413.745 301.653L414.555 301.694C414.724 298.261 413.654 296.226 411.822 295.221C410.042 294.245 407.659 294.316 405.353 294.784C403.03 295.255 400.697 296.148 398.953 296.917C398.079 297.303 397.348 297.66 396.836 297.92C396.58 298.05 396.378 298.157 396.24 298.231C396.171 298.268 396.117 298.297 396.081 298.316C396.063 298.326 396.049 298.334 396.04 298.339C396.035 298.342 396.031 298.344 396.029 298.345C396.028 298.346 396.027 298.346 396.026 298.347C396.026 298.347 396.025 298.347 396.025 298.347C396.025 298.347 396.025 298.347 396.222 298.701ZM413.745 301.653C413.585 304.886 412.145 308.061 410.035 311.024C407.927 313.984 405.171 316.704 402.422 319.019C399.675 321.332 396.947 323.233 394.905 324.555C393.884 325.216 393.036 325.732 392.443 326.082C392.147 326.257 391.914 326.391 391.757 326.48C391.678 326.525 391.617 326.559 391.577 326.582C391.557 326.593 391.542 326.601 391.532 326.607C391.527 326.61 391.523 326.612 391.521 326.613C391.519 326.614 391.519 326.614 391.518 326.615C391.518 326.615 391.518 326.615 391.517 326.615C391.517 326.615 391.517 326.615 391.712 326.97C391.907 327.325 391.907 327.325 391.907 327.325C391.908 327.325 391.908 327.325 391.908 327.325C391.909 327.324 391.91 327.324 391.912 327.323C391.915 327.321 391.919 327.319 391.924 327.316C391.935 327.31 391.951 327.301 391.972 327.289C392.014 327.266 392.076 327.231 392.157 327.185C392.319 327.093 392.555 326.957 392.855 326.78C393.456 326.425 394.314 325.903 395.345 325.235C397.407 323.901 400.164 321.98 402.944 319.639C405.723 317.298 408.534 314.529 410.695 311.494C412.855 308.461 414.384 305.137 414.555 301.694L413.745 301.653Z" fill="#6FDA44" mask="url(#path-150-inside-1_114_74056)"/>
<path d="M381.691 321.762C381.691 321.762 358.564 300.183 369.83 290.511C381.096 280.84 387.031 300.89 387.031 300.89C387.031 300.89 374.576 239.135 394.74 236.898C414.904 234.662 400.081 290.473 400.081 290.473C400.081 290.473 417.282 266.667 416.121 286.01C414.96 305.353 389.428 321.724 389.428 321.724" stroke="#6FDA44" stroke-width="0.40523" stroke-miterlimit="10"/>
<path d="M393.053 317.836L377.418 300.9" stroke="#6FDA44" stroke-width="0.40523" stroke-miterlimit="10"/>
<path d="M389.797 319.139L394.033 269.63" stroke="#6FDA44" stroke-width="0.40523" stroke-miterlimit="10"/>
<path d="M389.146 315.553L403.149 296.993" stroke="#6FDA44" stroke-width="0.40523" stroke-miterlimit="10"/>
<path d="M366.371 312.302H409.192L406.85 369.926H368.714L366.371 312.302Z" fill="#263238" stroke="#6FDA44" stroke-width="0.40523"/>
<path d="M425 370.128H10.7793" stroke="#6FDA44" stroke-width="0.40523" stroke-miterlimit="10"/>
</svg>
