<svg width="606" height="391" viewBox="0 0 606 391" fill="none" xmlns="http://www.w3.org/2000/svg">
<path d="M20.384 154.698C21.889 153.79 23.5087 153.088 25.2 152.609L26.1877 147.854L34.2291 147.706L35.4178 152.434C37.1217 152.852 38.7621 153.496 40.2951 154.348L44.3595 151.726L50.1458 157.32L47.6285 161.472C48.5363 162.974 49.2389 164.591 49.7175 166.279L54.4724 167.276L54.621 175.317L49.8923 176.471C49.4764 178.178 48.8325 179.822 47.9781 181.357L50.6003 185.421L45.0325 191.164L40.8807 188.647C39.3769 189.551 37.7606 190.253 36.0734 190.736L35.0769 195.491L27.0356 195.63L25.8818 190.91C24.1743 190.491 22.5309 189.845 20.9958 188.987L16.9227 191.627L11.1364 186.042L13.6537 181.89C12.7493 180.383 12.0469 178.764 11.5647 177.074L6.80977 176.086L6.66992 168.045L11.3899 166.882C11.8112 165.18 12.4548 163.54 13.3041 162.005L10.6819 157.941L16.2671 152.155L20.4189 154.672L20.384 154.698ZM24.6756 165.405C23.4954 166.634 22.7056 168.185 22.4058 169.863C22.1061 171.54 22.3097 173.269 22.9911 174.831C23.6725 176.392 24.8012 177.717 26.2347 178.638C27.6682 179.56 29.3424 180.035 31.0461 180.006C32.7498 179.977 34.4067 179.444 35.8078 178.474C37.2089 177.505 38.2915 176.142 38.919 174.557C39.5465 172.973 39.6908 171.239 39.3337 169.573C38.9766 167.906 38.1341 166.383 36.9125 165.196C36.097 164.403 35.1327 163.779 34.0752 163.36C33.0176 162.941 31.8877 162.735 30.7504 162.755C29.6131 162.774 28.4909 163.019 27.4483 163.473C26.4057 163.928 25.4634 164.585 24.6756 165.405Z" fill="#EBEBEB"/>
<path d="M32.2277 38.2994C33.7327 37.3914 35.3525 36.6888 37.0438 36.2104L38.0402 31.4467L46.0816 31.3069L47.2353 36.0443C48.9384 36.4687 50.5782 37.1152 52.1126 37.9672L56.177 35.3013L61.9633 40.8953L59.446 45.0471C60.3538 46.5491 61.0564 48.166 61.535 49.8545L66.2986 50.8509L66.4385 58.8923L61.7098 60.046C61.2924 61.7389 60.6485 63.3677 59.7956 64.8883L62.4178 68.9615L56.8238 74.7478L52.672 72.2217C51.1719 73.1331 49.5546 73.8359 47.8647 74.3107L46.8682 79.0744L38.8269 79.2142L37.7168 74.503C36.0105 74.0802 34.3676 73.4336 32.8308 72.5801L28.7664 75.2023L22.9801 69.617L25.5062 65.4565C24.5956 63.9548 23.8901 62.338 23.4084 60.6491L18.6535 59.6614L18.5137 51.6201L23.2336 50.4576C23.6593 48.78 24.3059 47.1663 25.1565 45.659L22.5344 41.5946L28.0759 35.7821L32.2277 38.2994ZM36.5193 49.0154C35.3401 50.2453 34.5514 51.7969 34.2528 53.4745C33.9543 55.152 34.1592 56.8805 34.8417 58.4417C35.5242 60.003 36.6538 61.3272 38.088 62.2473C39.5222 63.1674 41.1967 63.6421 42.9004 63.6117C44.604 63.5813 46.2606 63.047 47.661 62.0763C49.0614 61.1056 50.143 59.742 50.7693 58.1573C51.3957 56.5727 51.5388 54.838 51.1805 53.1722C50.8222 51.5063 49.9787 49.9839 48.7562 48.7969C47.9407 48.0034 46.9762 47.3792 45.9182 46.9604C44.8603 46.5417 43.7299 46.3365 42.5923 46.3568C41.4546 46.3771 40.3323 46.6225 39.2899 47.0788C38.2476 47.5351 37.306 48.1933 36.5193 49.0154Z" fill="#EBEBEB"/>
<path d="M207.729 83.4444C209.542 82.3464 211.494 81.4967 213.533 80.9184L214.731 75.1671L224.442 75.001L225.84 80.6999C227.898 81.2055 229.88 81.9845 231.731 83.0161L236.643 79.7996L243.636 86.5473L240.594 91.5644C241.689 93.3791 242.538 95.3306 243.12 97.3682L248.863 98.5657L249.038 108.277L243.33 109.675C242.828 111.735 242.049 113.716 241.014 115.566L244.23 120.478L237.491 127.471L232.474 124.429C230.656 125.524 228.702 126.373 226.662 126.955L225.464 132.698L215.753 132.873L214.355 127.165C212.296 126.66 210.315 125.881 208.464 124.849L203.56 128.065L196.568 121.318L199.609 116.3C198.51 114.488 197.66 112.536 197.083 110.497L191.332 109.299L191.166 99.5883L196.865 98.1898C197.377 96.1337 198.156 94.1533 199.181 92.2987L195.965 87.3952L202.712 80.4027L207.729 83.4532V83.4444ZM212.904 96.3543C211.473 97.8365 210.513 99.7097 210.146 101.737C209.78 103.765 210.022 105.855 210.844 107.745C211.665 109.635 213.028 111.238 214.761 112.353C216.494 113.468 218.518 114.044 220.578 114.009C222.638 113.973 224.642 113.328 226.335 112.154C228.028 110.98 229.335 109.331 230.091 107.414C230.847 105.497 231.018 103.399 230.582 101.386C230.145 99.372 229.122 97.5329 227.641 96.1008C225.652 94.1816 222.983 93.1303 220.22 93.1778C217.457 93.2253 214.825 94.3678 212.904 96.3543Z" fill="#EBEBEB"/>
<path d="M75.4851 20.311C76.2447 19.8466 77.0655 19.4906 77.9237 19.2534L78.4219 16.8148L82.4863 16.7449L83.0719 19.1311C83.9328 19.3442 84.7616 19.6705 85.5368 20.1013L87.5908 18.7552L90.484 21.6047L89.2078 23.7111C89.6687 24.4695 90.0245 25.287 90.2655 26.141L92.6691 26.6393L92.7391 30.7036L90.3529 31.2893C90.1427 32.1511 89.8163 32.9803 89.3827 33.7541L90.7287 35.8169L87.9055 38.7363L85.8077 37.4601C85.0505 37.9231 84.2328 38.2791 83.3779 38.5178L82.8796 40.9302L78.8065 41.0001L78.2471 38.6139C77.3863 38.4007 76.5574 38.0745 75.7823 37.6437L73.7282 38.9897L70.8001 36.1665L72.1287 34.06C71.6597 33.3157 71.2895 32.5136 71.0274 31.6738L68.6324 31.1319L68.5625 27.0675L70.9487 26.4819C71.1588 25.6201 71.4852 24.7909 71.9189 24.0171L70.5728 21.9543L73.3961 19.0349L75.4938 20.311H75.4851ZM77.6527 25.7215C77.0508 26.3425 76.6466 27.1282 76.4914 27.979C76.3362 28.8299 76.437 29.7077 76.7809 30.5012C77.1249 31.2948 77.6965 31.9685 78.4236 32.4369C79.1506 32.9054 80.0003 33.1476 80.8651 33.1329C81.7298 33.1182 82.5708 32.8473 83.2815 32.3544C83.9922 31.8615 84.5406 31.1687 84.8574 30.364C85.1742 29.5592 85.245 28.6785 85.061 27.8334C84.877 26.9883 84.4464 26.2168 83.8236 25.6166C82.9906 24.8137 81.8733 24.3739 80.7165 24.3936C79.5597 24.4132 78.458 24.8908 77.6527 25.7215Z" fill="#EBEBEB"/>
<path fill-rule="evenodd" clip-rule="evenodd" d="M505.419 49.3298C505.419 49.6313 505.329 49.9261 505.161 50.1765C504.993 50.427 504.755 50.6219 504.476 50.7365C504.197 50.8511 503.89 50.8802 503.595 50.82C503.299 50.7599 503.028 50.6133 502.816 50.3989C502.604 50.1844 502.461 49.9118 502.404 49.6157C502.347 49.3195 502.38 49.0132 502.498 48.7356C502.616 48.458 502.813 48.2217 503.066 48.0567C503.318 47.8917 503.614 47.8055 503.915 47.8089C504.316 47.8135 504.698 47.9758 504.979 48.2605C505.261 48.5452 505.419 48.9295 505.419 49.3298Z" fill="#E0E0E0"/>
<path fill-rule="evenodd" clip-rule="evenodd" d="M544.76 24.1484C544.762 24.4499 544.674 24.7452 544.508 24.9966C544.341 25.248 544.104 25.4443 543.826 25.5605C543.547 25.6767 543.241 25.7076 542.945 25.6492C542.649 25.5908 542.377 25.4457 542.164 25.2325C541.951 25.0193 541.806 24.7475 541.748 24.4517C541.689 24.1558 541.72 23.8493 541.836 23.5711C541.952 23.2928 542.149 23.0554 542.4 22.8889C542.652 22.7225 542.947 22.6345 543.248 22.6363C543.649 22.6363 544.034 22.7956 544.318 23.0791C544.601 23.3627 544.76 23.7473 544.76 24.1484Z" fill="#E0E0E0"/>
<path d="M497.859 331.477C497.859 331.477 497.859 331.058 497.859 330.245C497.859 329.432 497.859 328.217 497.859 326.635C497.859 323.453 497.859 318.768 497.859 312.737C497.859 300.64 497.859 283.124 497.789 261.412C497.789 217.963 497.789 157.705 497.719 90.4284V90.376V90.3235C499.686 86.4165 501.81 82.2122 503.934 77.9818V78.0867V49.33L504.161 49.5485L304.639 49.4262L304.735 49.33C304.735 58.5601 304.735 65.6488 304.735 70.4299C304.735 72.8132 304.735 74.6196 304.735 75.8491C304.735 74.6341 304.735 72.8161 304.735 70.4299C304.735 65.6488 304.735 58.5601 304.682 49.33V49.2252H304.787L504.309 49.1028H504.528V49.33C504.528 58.3853 504.528 67.6853 504.528 77.1951V78.0692V78.1216L498.06 90.4983V90.3935C498.06 157.696 498.007 217.928 497.99 261.377C497.99 283.089 497.937 300.605 497.92 312.702C497.92 318.742 497.92 323.418 497.92 326.6C497.92 328.182 497.92 329.397 497.92 330.21C497.92 331.023 497.859 331.477 497.859 331.477Z" fill="#E0E0E0"/>
<path d="M537.042 158.64C537.042 158.64 537.042 158.194 537.042 157.329C537.042 156.464 536.998 155.179 536.963 153.501C536.902 150.135 536.815 145.197 536.701 138.86C536.5 126.177 536.212 107.927 535.827 85.6209C538.047 79.7006 540.378 73.4889 542.82 66.9859V67.0559C542.82 54.0061 542.82 39.5579 542.82 24.288L543.038 24.5065H487.098H394.448H394.325L394.264 24.3929L388.766 12.7591L388.941 12.864L326.358 12.7854L308.877 12.7329H304.288H302.715C302.715 12.7329 303.248 12.7329 304.288 12.7329H308.877L326.358 12.6805L388.941 12.6018H389.055L389.107 12.7067L394.657 24.1482L394.474 24.0345H487.124H543.248V24.253C543.248 39.5229 543.248 53.9712 543.248 67.0209L536.255 85.6384V85.5685C536.544 107.883 536.78 126.134 536.946 138.816C537.016 145.153 537.077 150.092 537.112 153.457C537.112 155.135 537.112 156.411 537.112 157.285C537.06 158.194 537.042 158.64 537.042 158.64Z" fill="#E0E0E0"/>
<path d="M526.142 168.412C526.142 168.412 526.142 167.923 526.081 166.961C526.02 166 526.02 164.575 525.967 162.722C525.88 158.981 525.749 153.492 525.574 146.447C525.251 132.331 524.788 111.983 524.219 87.0107L532.436 67.7813V67.8513C532.689 57.3625 532.969 45.9997 533.257 34.0338L533.467 34.2436H436.665L279.499 34.1824L279.622 34.1387L266.852 46.8038H266.791L224.215 46.4804L212.852 46.3581H224.215L266.721 46.5941H266.616C270.59 42.6083 274.841 38.3488 279.368 33.8153L279.412 33.7628H279.482L436.647 33.7017H533.449H533.659V33.9202C533.362 45.8424 533.065 57.2139 532.785 67.7376C529.91 74.4504 527.147 80.8486 524.534 86.967V86.8971C525.041 111.878 525.408 132.235 525.732 146.333C525.863 153.378 525.967 158.867 526.037 162.608C526.037 164.461 526.09 165.886 526.099 166.847C526.107 167.809 526.142 168.412 526.142 168.412Z" fill="#E0E0E0"/>
<path fill-rule="evenodd" clip-rule="evenodd" d="M211.55 46.1398C211.55 46.4406 211.46 46.7346 211.293 46.9847C211.126 47.2348 210.889 47.4298 210.611 47.5449C210.333 47.66 210.027 47.6901 209.732 47.6314C209.437 47.5728 209.166 47.4279 208.953 47.2152C208.741 47.0025 208.596 46.7315 208.537 46.4365C208.478 46.1415 208.508 45.8357 208.624 45.5578C208.739 45.2799 208.934 45.0423 209.184 44.8752C209.434 44.7081 209.728 44.6189 210.029 44.6189C210.229 44.6178 210.427 44.6563 210.612 44.7323C210.797 44.8084 210.965 44.9203 211.107 45.0618C211.248 45.2032 211.36 45.3714 211.436 45.5564C211.512 45.7415 211.551 45.9397 211.55 46.1398Z" fill="#E0E0E0"/>
<path fill-rule="evenodd" clip-rule="evenodd" d="M302.741 12.6017C302.741 12.9025 302.652 13.1965 302.485 13.4466C302.318 13.6967 302.08 13.8917 301.802 14.0068C301.524 14.1219 301.218 14.152 300.923 14.0933C300.628 14.0346 300.357 13.8898 300.145 13.6771C299.932 13.4644 299.787 13.1934 299.728 12.8984C299.67 12.6034 299.7 12.2976 299.815 12.0197C299.93 11.7418 300.125 11.5042 300.375 11.3371C300.625 11.17 300.919 11.0808 301.22 11.0808C301.623 11.0808 302.01 11.241 302.295 11.5263C302.581 11.8115 302.741 12.1983 302.741 12.6017Z" fill="#E0E0E0"/>
<path d="M555.171 328.593H523.398C532.698 296.969 534.814 237.69 533.258 198.419H544.944C544.332 237.55 547.155 296.515 555.171 328.593Z" fill="#EBEBEB"/>
<path d="M598.847 367.051C596.142 364.042 592.755 361.725 588.969 360.295C585.184 358.865 581.11 358.365 577.091 358.835C577.852 351.843 578.551 344.404 575.789 337.997C573.027 331.591 565.449 327.011 559.68 330.411C561.813 320.717 558.072 309.835 550.572 303.944C546.851 301.064 542.339 299.39 537.64 299.147C532.941 298.903 528.279 300.101 524.28 302.581C516.283 307.676 511.58 318.121 512.839 327.99C508.753 327.73 504.671 328.551 501.002 330.369C497.334 332.187 494.208 334.939 491.94 338.347C489.611 341.944 488.165 346.042 487.722 350.304C487.278 354.567 487.849 358.874 489.388 362.873C477.492 362.235 466.147 377.802 466.383 390.555L605.682 390.389C606.303 386.236 606.014 381.997 604.834 377.968C603.653 373.938 601.61 370.213 598.847 367.051Z" fill="#EBEBEB"/>
<path d="M528.73 140.145L555.546 149.393C561.464 155.467 557.487 164.042 552.487 167.337C554.312 168.216 555.81 169.653 556.765 171.439C557.72 173.225 558.083 175.268 557.801 177.274C557.519 179.28 556.606 181.144 555.196 182.598C553.785 184.051 551.949 185.018 549.952 185.36C550.619 186.36 551.067 187.489 551.268 188.674C551.469 189.858 551.417 191.072 551.118 192.235C550.818 193.399 550.276 194.486 549.528 195.426C548.78 196.366 547.841 197.138 546.775 197.691C545.708 198.244 544.537 198.566 543.337 198.636C542.138 198.706 540.937 198.522 539.813 198.097C538.69 197.672 537.668 197.014 536.816 196.167C535.963 195.321 535.299 194.304 534.866 193.183C533.738 190.22 534.271 186.724 532.681 183.988C531.177 181.427 528.214 180.195 525.793 178.464C519.797 174.181 517.053 166.227 517.927 158.911C518.801 151.595 523.145 144.979 528.73 140.145Z" fill="#EBEBEB"/>
<path d="M545.756 146.22C546.785 148.867 547.279 151.693 547.207 154.532C547.193 154.935 547.054 155.324 546.807 155.643C546.561 155.962 546.22 156.196 545.833 156.311C545.447 156.426 545.034 156.417 544.653 156.284C544.272 156.151 543.942 155.902 543.711 155.572C543.824 159.043 543.71 162.518 543.37 165.973C543.326 166.46 543.133 166.921 542.817 167.293C542.501 167.665 542.077 167.931 541.605 168.053C541.132 168.176 540.633 168.149 540.176 167.977C539.719 167.805 539.326 167.496 539.052 167.092C534.078 159.84 531.904 151.029 532.933 142.295L545.756 146.22Z" fill="#E0E0E0"/>
<path d="M519.16 113.888L519.011 114.002C514.841 117.352 511.477 121.596 509.166 126.42C506.856 131.245 505.659 136.527 505.664 141.876V148.667L519.151 139.288L519.16 113.888Z" fill="#E0E0E0"/>
<path d="M557.688 113.836L557.836 113.949C561.949 117.251 565.268 121.435 567.548 126.191C569.828 130.948 571.01 136.155 571.008 141.43V148.134L557.688 138.895V113.836Z" fill="#E0E0E0"/>
<path d="M538.398 47.3547C541.448 47.3547 547.06 55.2213 552.269 68.4109C555.355 76.1675 557.182 84.3677 557.679 92.7011V149.393H519.177V97.9454C519.15 92.926 519.6 87.9154 520.523 82.9815C521.47 78.017 522.812 73.1359 524.535 68.3847C529.421 55.1863 535.382 47.4072 538.398 47.3547Z" fill="#F5F5F5"/>
<path d="M519.561 140.197C519.561 140.259 528.1 140.346 538.633 140.407C549.165 140.468 557.705 140.46 557.705 140.407C557.705 140.355 549.165 140.259 538.633 140.206C528.1 140.154 519.561 140.145 519.561 140.197Z" fill="#E0E0E0"/>
<path d="M519.727 141.919C519.727 141.972 528.266 142.068 538.799 142.12C549.331 142.173 557.871 142.181 557.871 142.12C557.871 142.059 549.34 141.972 538.799 141.91C528.257 141.849 519.727 141.867 519.727 141.919Z" fill="#E0E0E0"/>
<path d="M519.701 143.729C519.701 143.79 528.241 143.877 538.773 143.939C549.306 144 557.845 143.991 557.845 143.939C557.845 143.886 549.306 143.79 538.773 143.738C528.241 143.685 519.701 143.676 519.701 143.729Z" fill="#E0E0E0"/>
<path d="M519.648 145.547C519.648 145.599 528.188 145.695 538.712 145.748C549.235 145.8 557.793 145.809 557.793 145.748C557.793 145.687 549.253 145.608 538.72 145.547C528.188 145.486 519.648 145.486 519.648 145.547Z" fill="#E0E0E0"/>
<path d="M519.648 147.356C519.648 147.417 528.188 147.504 538.72 147.566C549.253 147.627 557.793 147.618 557.793 147.566C557.793 147.513 549.262 147.417 538.72 147.356C528.179 147.295 519.648 147.303 519.648 147.356Z" fill="#E0E0E0"/>
<path d="M538.345 113.923C538.341 114.01 538.341 114.098 538.345 114.185C538.314 114.441 538.296 114.697 538.293 114.954C538.293 115.619 538.293 116.589 538.293 117.778C538.293 120.164 538.293 123.459 538.293 127.095C538.293 130.731 538.389 134.035 538.442 136.413C538.442 137.593 538.494 138.554 538.511 139.245C538.511 139.559 538.511 139.813 538.511 140.005C538.501 140.095 538.501 140.186 538.511 140.276C538.519 140.186 538.519 140.095 538.511 140.005C538.511 139.813 538.511 139.559 538.511 139.236C538.511 138.545 538.511 137.593 538.511 136.413C538.511 134.009 538.459 130.723 538.433 127.095C538.407 123.468 538.363 120.181 538.337 117.778C538.337 116.606 538.337 115.645 538.337 114.954C538.337 114.622 538.337 114.36 538.337 114.185C538.351 114.099 538.354 114.011 538.345 113.923Z" fill="#E0E0E0"/>
<path d="M519.158 113.888C519.158 113.941 527.707 113.993 538.256 113.993C548.806 113.993 557.363 113.949 557.363 113.897C557.363 113.844 548.806 113.792 538.256 113.792C527.707 113.792 519.158 113.836 519.158 113.888Z" fill="#E0E0E0"/>
<path d="M535.268 132.619C535.268 132.619 535.207 132.532 535.032 132.444C534.784 132.337 534.506 132.319 534.246 132.392C534.041 132.434 533.851 132.531 533.697 132.673C533.543 132.815 533.431 132.995 533.372 133.196C533.293 133.439 533.29 133.7 533.365 133.945C533.44 134.189 533.588 134.404 533.79 134.561C533.992 134.718 534.237 134.809 534.492 134.821C534.747 134.833 535 134.766 535.216 134.63C535.395 134.526 535.543 134.377 535.644 134.197C535.746 134.017 535.797 133.813 535.793 133.607C535.792 133.335 535.703 133.072 535.539 132.855C535.426 132.707 535.33 132.663 535.321 132.672C535.312 132.68 535.382 132.75 535.478 132.899C535.601 133.114 535.658 133.36 535.644 133.607C535.642 133.785 535.593 133.959 535.503 134.112C535.412 134.266 535.283 134.393 535.129 134.481C534.943 134.595 534.727 134.649 534.51 134.636C534.293 134.624 534.085 134.545 533.914 134.411C533.743 134.277 533.617 134.094 533.553 133.886C533.488 133.678 533.489 133.456 533.555 133.249C533.602 133.079 533.692 132.925 533.816 132.801C533.94 132.677 534.094 132.587 534.263 132.541C534.499 132.466 534.753 132.466 534.989 132.541C535.172 132.575 535.26 132.628 535.268 132.619Z" fill="#E0E0E0"/>
<path d="M535.057 121.702C535.057 121.702 534.996 121.615 534.821 121.536C534.573 121.43 534.296 121.409 534.034 121.475C533.83 121.518 533.641 121.616 533.487 121.757C533.333 121.899 533.22 122.079 533.16 122.279C533.087 122.523 533.087 122.783 533.16 123.027C533.233 123.271 533.376 123.488 533.571 123.651C533.777 123.798 534.021 123.883 534.273 123.895C534.526 123.908 534.777 123.847 534.996 123.721C535.137 123.632 535.257 123.514 535.351 123.376C535.444 123.238 535.508 123.082 535.538 122.918C535.568 122.754 535.564 122.585 535.527 122.423C535.489 122.26 535.419 122.107 535.319 121.973C535.206 121.825 535.11 121.772 535.101 121.781C535.092 121.79 535.171 121.868 535.258 122.017C535.381 122.229 535.438 122.472 535.424 122.716C535.424 122.895 535.377 123.07 535.286 123.224C535.195 123.378 535.065 123.504 534.909 123.59C534.724 123.703 534.509 123.756 534.293 123.744C534.078 123.731 533.871 123.653 533.7 123.521C533.529 123.388 533.403 123.207 533.338 123C533.273 122.794 533.272 122.573 533.335 122.367C533.381 122.196 533.471 122.041 533.595 121.915C533.719 121.789 533.873 121.698 534.043 121.65C534.28 121.584 534.531 121.584 534.769 121.65C534.961 121.615 535.048 121.702 535.057 121.702Z" fill="#E0E0E0"/>
<path d="M537.366 172.555C537.813 172.847 538.127 173.302 538.242 173.823C538.357 174.344 538.263 174.889 537.98 175.341C537.697 175.794 537.248 176.117 536.729 176.241C536.21 176.366 535.663 176.282 535.206 176.007C534.748 175.733 534.417 175.29 534.282 174.773C534.148 174.257 534.222 173.709 534.488 173.246C534.754 172.784 535.19 172.444 535.704 172.3C536.218 172.156 536.767 172.219 537.235 172.476" fill="#E0E0E0"/>
<path d="M529.673 80.1145C528.535 81.8282 527.931 83.8409 527.938 85.8978C527.944 87.9548 528.559 89.9639 529.707 91.6709C530.855 93.3779 532.483 94.7063 534.386 95.488C536.288 96.2698 538.38 96.4699 540.397 96.0629C542.413 95.656 544.263 94.6603 545.714 93.2018C547.164 91.7433 548.15 89.8875 548.546 87.8689C548.942 85.8504 548.73 83.7598 547.938 81.8614C547.146 79.9631 545.808 78.3422 544.095 77.2039C542.957 76.4477 541.681 75.9232 540.341 75.6603C539 75.3973 537.62 75.4011 536.281 75.6714C534.942 75.9417 533.669 76.4732 532.535 77.2355C531.401 77.9979 530.429 78.9762 529.673 80.1145Z" fill="white"/>
<path d="M529.673 80.1142C530.219 79.4574 530.802 78.8328 531.421 78.2437C533.161 76.6934 535.371 75.7703 537.697 75.6215C539.401 75.5199 541.104 75.8475 542.65 76.5743C544.195 77.3012 545.533 78.4041 546.542 79.7821C547.74 81.4032 548.428 83.3447 548.517 85.3586C548.618 87.5209 548.027 89.6589 546.829 91.4619C545.631 93.2649 543.889 94.6389 541.857 95.3841C540.899 95.7446 539.89 95.9511 538.868 95.9959C537.887 96.0596 536.902 95.9712 535.948 95.7337C534.172 95.2972 532.545 94.3916 531.237 93.1115C530.086 92.0118 529.211 90.655 528.685 89.152C527.909 86.9602 527.893 84.5709 528.641 82.3693C528.939 81.5718 529.289 80.795 529.69 80.0443C529.548 80.2159 529.422 80.4002 529.314 80.595C529.161 80.8164 529.027 81.0503 528.912 81.2942C528.74 81.6202 528.594 81.9592 528.475 82.3081C527.785 84.1993 527.654 86.2491 528.097 88.2128C528.541 90.1765 529.54 91.9711 530.975 93.3825C532.329 94.7078 534.013 95.6464 535.852 96.1008C537.88 96.5988 540.011 96.4801 541.971 95.7599C544.111 94.9984 545.948 93.566 547.208 91.676C548.468 89.786 549.083 87.5395 548.963 85.2712C548.857 83.1753 548.136 81.157 546.892 79.4674C545.765 77.9535 544.257 76.7653 542.521 76.0236C540.664 75.2495 538.624 75.0258 536.643 75.3791C534.663 75.7325 532.826 76.648 531.351 78.0165C531.077 78.264 530.822 78.5329 530.59 78.8206C530.407 79.0194 530.241 79.2328 530.092 79.4587C529.923 79.6567 529.781 79.8773 529.673 80.1142Z" fill="#E0E0E0"/>
<path d="M538.398 47.3547C541.448 47.3547 547.06 55.2213 552.269 68.4109H524.535C529.421 55.1863 535.382 47.4072 538.398 47.3547Z" fill="#E0E0E0"/>
<path d="M538.397 47.3547L537.855 47.4159C537.346 47.5665 536.864 47.7997 536.431 48.1064C534.813 49.3615 533.416 50.8768 532.296 52.5903C529.237 56.9606 525.688 63.9531 522.813 73.1308C521.279 78.1887 520.173 83.3669 519.509 88.6104C519.165 91.5495 518.984 94.5055 518.967 97.4647C518.967 100.515 518.967 103.662 518.967 106.896C518.967 119.832 518.967 134.175 518.967 149.41V149.672H557.95V149.454C557.95 134.21 557.95 119.867 557.898 106.931C557.898 103.697 557.898 100.55 557.898 97.4996C557.898 95.97 557.898 94.4666 557.898 92.9894C557.898 91.5123 557.714 90.0526 557.548 88.6191C556.907 83.3719 555.768 78.1975 554.148 73.1657C552.777 69.0641 551.142 65.0554 549.253 61.1649C547.858 58.2096 546.242 55.3638 544.42 52.6515C543.316 50.9294 541.944 49.395 540.355 48.1064C540.049 47.9316 539.804 47.748 539.56 47.6431C539.355 47.5505 539.145 47.4717 538.93 47.4071L538.397 47.3459C538.397 47.3459 538.572 47.3459 538.922 47.4508C539.131 47.5194 539.335 47.6011 539.534 47.6956C539.8 47.839 540.057 47.9996 540.303 48.1763C541.862 49.4823 543.207 51.0248 544.288 52.7476C546.068 55.4477 547.646 58.2757 549.008 61.2086C550.869 65.1027 552.48 69.1111 553.833 73.2094C555.424 78.2242 556.539 83.3777 557.163 88.6017C557.329 90.0176 557.469 91.4686 557.495 92.972V97.4734C557.495 100.521 557.495 103.665 557.495 106.905C557.495 119.849 557.495 134.184 557.495 149.428L557.723 149.2H519.177L519.395 149.428C519.395 134.193 519.395 119.849 519.351 106.913C519.351 103.679 519.351 100.533 519.351 97.4821C519.36 94.5351 519.532 91.5908 519.867 88.6628C520.511 83.4389 521.592 78.2783 523.101 73.2357C525.924 64.0143 529.429 57.0218 532.427 52.6515C533.527 50.9396 534.894 49.4141 536.474 48.1326C536.898 47.8258 537.367 47.587 537.864 47.4246L538.397 47.3547Z" fill="#E0E0E0"/>
<path d="M532.654 91.1802C533.234 90.7829 533.762 90.3161 534.228 89.7904C535.145 88.9163 536.369 87.5703 537.724 86.1106L541.08 82.3434C541.577 81.852 542.025 81.3133 542.418 80.7351C541.842 81.1334 541.316 81.6001 540.853 82.1249C539.926 82.9989 538.703 84.3362 537.357 85.8047L534 89.5719C533.501 90.0636 533.05 90.6022 532.654 91.1802Z" fill="#E0E0E0"/>
<path d="M535.713 91.1976C536.927 90.2589 538.049 89.2052 539.061 88.0509C540.181 86.9898 541.191 85.8185 542.076 84.5547C540.862 85.4941 539.741 86.5478 538.728 87.7013C537.609 88.7635 536.599 89.9348 535.713 91.1976Z" fill="#E0E0E0"/>
<path d="M595.271 390.738C595.271 390.87 462.003 390.974 297.653 390.974C133.303 390.974 0 390.913 0 390.738C0 390.564 133.242 390.511 297.653 390.511C462.064 390.511 595.271 390.616 595.271 390.738Z" fill="#263238"/>
<path d="M561.322 188.455H529.34C524.575 188.455 520.713 192.317 520.713 197.082V229.063C520.713 233.828 524.575 237.691 529.34 237.691H561.322C566.086 237.691 569.949 233.828 569.949 229.063V197.082C569.949 192.317 566.086 188.455 561.322 188.455Z" fill="#263238"/>
<path d="M554.103 188.455H522.121C517.357 188.455 513.494 192.317 513.494 197.082V229.063C513.494 233.828 517.357 237.691 522.121 237.691H554.103C558.868 237.691 562.73 233.828 562.73 229.063V197.082C562.73 192.317 558.868 188.455 554.103 188.455Z" fill="#455A64"/>
<path d="M523.047 212.78L527.732 208.095L536.761 216.127L551.847 200.98L556.2 205.665L536.097 225.156L523.047 212.78Z" fill="white"/>
<path d="M538.492 337.412C539.685 337.983 540.75 338.788 541.626 339.779C542.501 340.77 543.168 341.927 543.588 343.181C544.405 345.7 544.635 348.373 544.261 350.995C543.684 356.064 540.808 361.186 537.705 365.242C533.431 361.51 532.461 355.015 532.155 351.685C531.701 346.441 534.061 336.634 538.492 337.412Z" fill="#6FDA44"/>
<path d="M542.662 373.607C542.373 372.157 542.472 370.657 542.947 369.258C543.423 367.858 544.259 366.609 545.372 365.635C546.503 364.685 547.812 363.969 549.223 363.53C550.633 363.09 552.117 362.935 553.588 363.074C554.277 363.059 554.961 363.196 555.591 363.476C556.221 363.755 556.782 364.17 557.233 364.691C557.565 365.238 557.745 365.863 557.754 366.502C557.764 367.142 557.602 367.772 557.285 368.327C556.635 369.421 555.71 370.325 554.602 370.95C550.896 373.266 546.893 374.839 542.706 373.572" fill="#6FDA44"/>
<path d="M537.189 389.165C537.21 388.815 537.259 388.467 537.338 388.125C537.478 387.391 537.653 386.447 537.854 385.311C538.334 382.173 539.316 379.133 540.764 376.308C542.268 373.488 544.498 371.122 547.224 369.455C548.049 368.963 548.929 368.57 549.846 368.284C550.169 368.179 550.431 368.135 550.598 368.092C550.687 368.078 550.779 368.078 550.868 368.092C549.652 368.513 548.481 369.055 547.372 369.709C544.743 371.417 542.587 373.762 541.105 376.526C539.68 379.32 538.679 382.31 538.133 385.398C537.871 386.578 537.661 387.531 537.504 388.186C537.429 388.521 537.323 388.849 537.189 389.165Z" fill="#263238"/>
<path d="M537.347 345.034C537.388 345.181 537.406 345.335 537.399 345.488C537.399 345.82 537.452 346.257 537.478 346.791C537.539 347.927 537.609 349.57 537.67 351.598C537.801 355.662 537.906 361.282 537.88 367.48C537.854 373.677 537.705 379.306 537.539 383.361C537.452 385.398 537.373 387.041 537.303 388.169C537.303 388.711 537.233 389.139 537.216 389.48C537.215 389.633 537.195 389.786 537.154 389.934C537.141 389.783 537.141 389.631 537.154 389.48C537.154 389.139 537.154 388.702 537.154 388.169C537.154 386.989 537.224 385.354 537.277 383.353C537.373 379.297 537.487 373.685 537.513 367.48C537.539 361.274 537.513 355.671 537.408 351.607C537.408 349.614 537.355 347.979 537.338 346.799C537.338 346.257 537.338 345.829 537.338 345.488C537.328 345.337 537.331 345.185 537.347 345.034Z" fill="#263238"/>
<path d="M535.275 376.692C534.761 373.62 533.521 370.714 531.659 368.217C529.797 365.719 527.366 363.702 524.568 362.331C523.143 361.649 521.282 361.195 520.11 362.261C518.939 363.328 519.236 365.233 519.77 366.71C521.024 369.772 523.157 372.393 525.9 374.244C528.642 376.095 531.871 377.093 535.179 377.112" fill="#6FDA44"/>
<path d="M525.259 367.139C525.562 367.241 525.854 367.373 526.133 367.532C526.484 367.695 526.826 367.879 527.155 368.083C527.603 368.331 528.038 368.603 528.458 368.896C528.976 369.243 529.475 369.62 529.952 370.023C530.507 370.469 531.036 370.948 531.534 371.457C532.683 372.632 533.694 373.934 534.55 375.337C535.383 376.754 536.052 378.261 536.543 379.83C536.747 380.514 536.914 381.208 537.041 381.91C537.167 382.522 537.251 383.141 537.294 383.763C537.373 384.331 537.347 384.847 537.373 385.302C537.397 385.686 537.397 386.071 537.373 386.455C537.366 386.787 537.327 387.118 537.259 387.443C537.172 387.443 537.321 386.027 537.076 383.79C536.997 383.23 536.927 382.618 536.779 381.972C536.639 381.28 536.461 380.598 536.245 379.926C535.749 378.402 535.086 376.936 534.27 375.556C533.43 374.177 532.442 372.893 531.325 371.727C530.838 371.216 530.325 370.732 529.786 370.277C529.327 369.872 528.845 369.492 528.344 369.14C526.508 367.794 525.224 367.209 525.259 367.139Z" fill="#263238"/>
<path d="M148.783 171.672H57.4082V390.8H148.783V171.672Z" fill="#E0E0E0"/>
<path d="M103.095 171.672H30.8535V390.8H103.095V171.672Z" fill="#F5F5F5"/>
<path d="M103.2 390.634C103.078 390.634 102.973 341.564 102.973 281.035C102.973 220.507 103.078 171.428 103.2 171.428C103.322 171.428 103.427 220.498 103.427 281.035C103.427 341.573 103.331 390.634 103.2 390.634Z" fill="#263238"/>
<path d="M138.164 196.845H116.277V199.101H138.164V196.845Z" fill="#263238"/>
<path d="M138.164 203.296H116.277V205.551H138.164V203.296Z" fill="#263238"/>
<path d="M138.164 209.755H116.277V212.01H138.164V209.755Z" fill="#263238"/>
<path d="M96.1113 180.99H38.3184V383.842H96.1113V180.99Z" fill="#E0E0E0"/>
<path d="M90.3518 188.463H42.4707V195.718H90.3518V188.463Z" fill="#EBEBEB"/>
<path d="M49.7254 188.463H42.4707V195.718H49.7254V188.463Z" fill="#6FDA44"/>
<path d="M91.8384 188.463H76.0703V195.718H91.8384V188.463Z" fill="#F5F5F5"/>
<path d="M90.3518 201.373H42.4707V208.628H90.3518V201.373Z" fill="#EBEBEB"/>
<path d="M49.7254 201.373H42.4707V208.628H49.7254V201.373Z" fill="white"/>
<path d="M91.8384 201.373H76.0703V208.628H91.8384V201.373Z" fill="#F5F5F5"/>
<path d="M90.3518 214.292H42.4707V221.546H90.3518V214.292Z" fill="#EBEBEB"/>
<path d="M49.7254 214.292H42.4707V221.546H49.7254V214.292Z" fill="#6FDA44"/>
<path d="M91.8384 214.292H76.0703V221.546H91.8384V214.292Z" fill="#F5F5F5"/>
<path d="M90.3518 227.21H42.4707V234.465H90.3518V227.21Z" fill="#EBEBEB"/>
<path d="M49.7254 227.21H42.4707V234.465H49.7254V227.21Z" fill="white"/>
<path d="M91.8384 227.21H76.0703V234.465H91.8384V227.21Z" fill="#F5F5F5"/>
<path d="M90.3518 240.12H42.4707V247.375H90.3518V240.12Z" fill="#EBEBEB"/>
<path d="M49.7254 240.12H42.4707V247.375H49.7254V240.12Z" fill="#6FDA44"/>
<path d="M91.8384 240.12H76.0703V247.375H91.8384V240.12Z" fill="#F5F5F5"/>
<path d="M90.3518 253.039H42.4707V260.294H90.3518V253.039Z" fill="#EBEBEB"/>
<path d="M49.7254 253.039H42.4707V260.294H49.7254V253.039Z" fill="#6FDA44"/>
<path d="M91.8384 253.039H76.0703V260.294H91.8384V253.039Z" fill="#F5F5F5"/>
<path d="M90.3518 265.958H42.4707V273.212H90.3518V265.958Z" fill="#EBEBEB"/>
<path d="M49.7254 265.958H42.4707V273.212H49.7254V265.958Z" fill="white"/>
<path d="M91.8384 265.958H76.0703V273.212H91.8384V265.958Z" fill="#F5F5F5"/>
<path d="M90.3518 278.867H42.4707V286.122H90.3518V278.867Z" fill="#EBEBEB"/>
<path d="M49.7254 278.867H42.4707V286.122H49.7254V278.867Z" fill="white"/>
<path d="M91.8384 278.867H76.0703V286.122H91.8384V278.867Z" fill="#F5F5F5"/>
<path d="M90.3518 291.786H42.4707V299.041H90.3518V291.786Z" fill="#EBEBEB"/>
<path d="M49.7254 291.786H42.4707V299.041H49.7254V291.786Z" fill="white"/>
<path d="M91.8384 291.786H76.0703V299.041H91.8384V291.786Z" fill="#F5F5F5"/>
<path d="M90.3518 304.705H42.4707V311.959H90.3518V304.705Z" fill="#EBEBEB"/>
<path d="M49.7254 304.705H42.4707V311.959H49.7254V304.705Z" fill="#6FDA44"/>
<path d="M91.8384 304.705H76.0703V311.959H91.8384V304.705Z" fill="#F5F5F5"/>
<path d="M90.3518 317.624H42.4707V324.878H90.3518V317.624Z" fill="#EBEBEB"/>
<path d="M49.7254 317.624H42.4707V324.878H49.7254V317.624Z" fill="white"/>
<path d="M91.8384 317.624H76.0703V324.878H91.8384V317.624Z" fill="#F5F5F5"/>
<path d="M90.3518 330.533H42.4707V337.788H90.3518V330.533Z" fill="#EBEBEB"/>
<path d="M49.7254 330.533H42.4707V337.788H49.7254V330.533Z" fill="#6FDA44"/>
<path d="M91.8384 330.533H76.0703V337.788H91.8384V330.533Z" fill="#F5F5F5"/>
<path d="M90.3518 343.452H42.4707V350.707H90.3518V343.452Z" fill="#EBEBEB"/>
<path d="M49.7254 343.452H42.4707V350.707H49.7254V343.452Z" fill="white"/>
<path d="M91.8384 343.452H76.0703V350.707H91.8384V343.452Z" fill="#F5F5F5"/>
<path d="M90.3518 356.371H42.4707V363.625H90.3518V356.371Z" fill="#EBEBEB"/>
<path d="M49.7254 356.371H42.4707V363.625H49.7254V356.371Z" fill="#6FDA44"/>
<path d="M91.8384 356.371H76.0703V363.625H91.8384V356.371Z" fill="#F5F5F5"/>
<path d="M90.3518 369.28H42.4707V376.535H90.3518V369.28Z" fill="#EBEBEB"/>
<path d="M49.7254 369.28H42.4707V376.535H49.7254V369.28Z" fill="white"/>
<path d="M91.8384 369.28H76.0703V376.535H91.8384V369.28Z" fill="#F5F5F5"/>
<path d="M148.783 390.8C148.783 388.851 148.695 299.81 148.573 171.672L148.783 171.882H30.8718L31.099 171.655C31.099 255.775 31.0553 332.692 31.0466 390.782L30.8718 390.607L148.8 390.782L30.8718 390.948H30.697V390.773C30.697 332.683 30.697 255.766 30.6445 171.646V171.419H30.8893H148.8H149.01V171.629C149.01 235.75 148.94 290.554 148.914 329.336C148.826 368.022 148.783 389.829 148.783 390.8Z" fill="#263238"/>
<path d="M458.393 109.911H143.87C141.267 109.911 138.77 110.945 136.93 112.786C135.089 114.627 134.055 117.124 134.055 119.727V341.887C134.055 344.49 135.089 346.987 136.93 348.828C138.77 350.669 141.267 351.703 143.87 351.703H264.587L258.731 390.511H346.251L341.338 351.703H458.393C460.996 351.703 463.493 350.669 465.334 348.828C467.174 346.987 468.209 344.49 468.209 341.887V119.727C468.209 118.438 467.955 117.161 467.461 115.971C466.968 114.78 466.245 113.698 465.334 112.786C464.422 111.875 463.34 111.152 462.149 110.658C460.958 110.165 459.682 109.911 458.393 109.911Z" fill="#455A64"/>
<path d="M305.327 328.34C309.61 334.458 302.914 341.153 296.796 336.87C296.592 336.728 296.414 336.55 296.272 336.346C292.006 330.228 298.693 323.541 304.802 327.815C305.006 327.958 305.184 328.135 305.327 328.34Z" fill="#263238"/>
<path d="M151.326 118.39H450.981C453.229 118.39 455.386 119.283 456.976 120.873C458.566 122.463 459.459 124.62 459.459 126.868V311.059H142.848V126.868C142.848 124.62 143.741 122.463 145.331 120.873C146.921 119.283 149.077 118.39 151.326 118.39Z" fill="#263238"/>
<path d="M373.818 351.703C373.818 351.817 347.448 351.904 314.932 351.904C282.417 351.904 256.047 351.817 256.047 351.703C256.047 351.589 282.409 351.511 314.932 351.511C347.456 351.511 373.818 351.581 373.818 351.703Z" fill="#263238"/>
<path d="M197.722 133.607H174.646V138.476H197.722V133.607Z" fill="#455A64"/>
<path d="M186.184 155.424H174.646V160.292H186.184V155.424Z" fill="#6FDA44"/>
<path d="M199.583 166.393H183.334V171.262H199.583V166.393Z" fill="#455A64"/>
<path d="M211.628 166.393H202.162V171.262H211.628V166.393Z" fill="#455A64"/>
<path d="M296.517 166.393H277.043V171.262H296.517V166.393Z" fill="#455A64"/>
<path d="M353.418 177.083H320.527V181.951H353.418V177.083Z" fill="#455A64"/>
<path d="M404.158 166.393H388.363V171.262H404.158V166.393Z" fill="#455A64"/>
<path d="M440.763 166.393H409V171.262H440.763V166.393Z" fill="#455A64"/>
<path d="M199.583 177.083H183.334V181.951H199.583V177.083Z" fill="#455A64"/>
<path d="M189.593 187.747H173.344V192.615H189.593V187.747Z" fill="#6FDA44"/>
<path d="M189.601 198.419H182.006V203.287H189.601V198.419Z" fill="#455A64"/>
<path d="M217.458 220.882H209.871V225.75H217.458V220.882Z" fill="#455A64"/>
<path d="M329.128 261.474H314.295V266.342H329.128V261.474Z" fill="#455A64"/>
<path d="M411.989 261.474H375.654V266.342H411.989V261.474Z" fill="#455A64"/>
<path d="M273.284 250.819H258.451V255.687H273.284V250.819Z" fill="#E0E0E0"/>
<path d="M219.546 241.676H204.713V246.544H219.546V241.676Z" fill="#455A64"/>
<path d="M311.218 261.474H287.828V266.342H311.218V261.474Z" fill="#455A64"/>
<path d="M194.321 209.275H182.006V214.143H194.321V209.275Z" fill="#455A64"/>
<path d="M204.854 221.065H182.006V225.934H204.854V221.065Z" fill="#455A64"/>
<path d="M215.439 230.086H182.006V234.954H215.439V230.086Z" fill="#455A64"/>
<path d="M276.011 230.086H242.578V234.954H276.011V230.086Z" fill="#455A64"/>
<path d="M251.362 250.819H204.416V255.687H251.362V250.819Z" fill="#455A64"/>
<path d="M283.816 261.474H204.416V266.342H283.816V261.474Z" fill="#455A64"/>
<path d="M259.796 272.137H180.396V277.006H259.796V272.137Z" fill="#455A64"/>
<path d="M239.03 230.086H218.971V234.954H239.03V230.086Z" fill="#455A64"/>
<path d="M213.288 198.419H192.59V203.287H213.288V198.419Z" fill="#455A64"/>
<path d="M217.85 209.283H197.152V214.152H217.85V209.283Z" fill="#455A64"/>
<path d="M298.038 209.283H243.234V214.152H298.038V209.283Z" fill="#455A64"/>
<path d="M362.814 209.283H299.523V214.152H362.814V209.283Z" fill="#455A64"/>
<path d="M238.384 209.283H221.252V214.152H238.384V209.283Z" fill="#455A64"/>
<path d="M243.252 198.419H216.121V203.287H243.252V198.419Z" fill="#455A64"/>
<path d="M261.354 198.419H246.25V203.287H261.354V198.419Z" fill="#E0E0E0"/>
<path d="M219.101 177.083H202.162V181.951H219.101V177.083Z" fill="#455A64"/>
<path d="M314.252 177.083H230.613V181.951H314.252V177.083Z" fill="#455A64"/>
<path d="M408.134 209.283H368.592V214.152H408.134V209.283Z" fill="#455A64"/>
<path d="M372.534 261.474H332.982V266.342H372.534V261.474Z" fill="#455A64"/>
<path d="M382.209 166.393H299.82V171.262H382.209V166.393Z" fill="#455A64"/>
<path d="M271.92 166.393H214.59V171.262H271.92V166.393Z" fill="#455A64"/>
<path d="M213.245 143.938H174.646V148.807H213.245V143.938Z" fill="#455A64"/>
<path d="M269.954 143.938H217.1V148.807H269.954V143.938Z" fill="#455A64"/>
<path d="M218.324 133.607H201.332V138.476H218.324V133.607Z" fill="#E0E0E0"/>
<path d="M166.22 133.607H161.5V138.476H166.22V133.607Z" fill="#455A64"/>
<path d="M166.22 144.271H161.5V149.139H166.22V144.271Z" fill="#455A64"/>
<path d="M166.22 154.926H161.5V159.794H166.22V154.926Z" fill="#455A64"/>
<path d="M166.22 165.58H161.5V170.449H166.22V165.58Z" fill="#455A64"/>
<path d="M166.22 176.235H161.5V181.103H166.22V176.235Z" fill="#455A64"/>
<path d="M166.22 186.89H161.5V191.758H166.22V186.89Z" fill="#455A64"/>
<path d="M166.22 197.545H161.5V202.413H166.22V197.545Z" fill="#455A64"/>
<path d="M166.22 208.2H161.5V213.068H166.22V208.2Z" fill="#455A64"/>
<path d="M166.22 218.854H161.5V223.723H166.22V218.854Z" fill="#455A64"/>
<path d="M215.597 295.151H208.01V300.02H215.597V295.151Z" fill="#E0E0E0"/>
<path d="M203.395 295.151H180.547V300.02H203.395V295.151Z" fill="#6FDA44"/>
<path d="M166.22 294.609H161.5V299.477H166.22V294.609Z" fill="#455A64"/>
<path d="M166.22 229.509H161.5V234.378H166.22V229.509Z" fill="#455A64"/>
<path d="M166.22 240.164H161.5V245.033H166.22V240.164Z" fill="#455A64"/>
<path d="M166.22 250.819H161.5V255.687H166.22V250.819Z" fill="#455A64"/>
<path d="M166.22 261.474H161.5V266.342H166.22V261.474Z" fill="#455A64"/>
<path d="M166.22 272.137H161.5V277.006H166.22V272.137Z" fill="#455A64"/>
<path d="M203.542 283.343H180.396V288.211H203.542V283.343Z" fill="#455A64"/>
<path d="M260.375 283.343H208.01V288.211H260.375V283.343Z" fill="#455A64"/>
<path d="M166.22 283.343H161.5V288.211H166.22V283.343Z" fill="#455A64"/>
<path d="M293.396 143.904H276.404V148.772H293.396V143.904Z" fill="#E0E0E0"/>
<g opacity="0.3">
<path d="M313.613 229.168H302.006V323.462H440.309L436.708 231.458L313.613 229.168Z" fill="black"/>
</g>
<path d="M449.302 215.227H310.912V314.555H449.302V215.227Z" fill="#E0E0E0"/>
<path d="M449.721 314.992H310.475V214.79H449.721V314.992ZM311.331 314.118H448.847V215.664H311.349L311.331 314.118Z" fill="#263238"/>
<path d="M359.563 225.838H337.188V230.558H359.563V225.838Z" fill="#455A64"/>
<path d="M348.375 246.99H337.188V251.71H348.375V246.99Z" fill="#6FDA44"/>
<path d="M361.363 257.628H345.604V262.348H361.363V257.628Z" fill="#455A64"/>
<path d="M373.049 257.628H363.871V262.348H373.049V257.628Z" fill="#455A64"/>
<path d="M361.363 268.003H345.604V272.723H361.363V268.003Z" fill="#455A64"/>
<path d="M351.687 278.343H335.928V283.063H351.687V278.343Z" fill="#6FDA44"/>
<path d="M351.678 288.683H344.318V293.403H351.678V288.683Z" fill="#455A64"/>
<path d="M356.267 299.216H344.318V303.936H356.267V299.216Z" fill="#455A64"/>
<path d="M374.658 288.683H354.59V293.403H374.658V288.683Z" fill="#455A64"/>
<path d="M379.08 299.225H359.012V303.945H379.08V299.225Z" fill="#455A64"/>
<path d="M427.443 299.225H403.703V303.945H427.443V299.225Z" fill="#455A64"/>
<path d="M398.992 299.225H382.385V303.945H398.992V299.225Z" fill="#455A64"/>
<path d="M403.719 288.683H377.41V293.403H403.719V288.683Z" fill="#455A64"/>
<path d="M421.272 288.683H406.623V293.403H421.272V288.683Z" fill="white"/>
<path d="M380.295 268.003H363.871V272.723H380.295V268.003Z" fill="#455A64"/>
<path d="M431.515 257.628H375.916V262.348H431.515V257.628Z" fill="#455A64"/>
<path d="M374.624 235.855H337.188V240.575H374.624V235.855Z" fill="#455A64"/>
<path d="M429.61 235.855H378.355V240.575H429.61V235.855Z" fill="#455A64"/>
<path d="M379.535 225.838H363.059V230.558H379.535V225.838Z" fill="white"/>
<path d="M329.005 225.838H324.434V230.558H329.005V225.838Z" fill="#455A64"/>
<path d="M329.005 236.169H324.434V240.889H329.005V236.169Z" fill="#455A64"/>
<path d="M329.005 246.509H324.434V251.229H329.005V246.509Z" fill="#455A64"/>
<path d="M329.005 256.841H324.434V261.561H329.005V256.841Z" fill="#455A64"/>
<path d="M329.005 267.172H324.434V271.892H329.005V267.172Z" fill="#455A64"/>
<path d="M329.005 277.504H324.434V282.224H329.005V277.504Z" fill="#455A64"/>
<path d="M329.005 287.844H324.434V292.564H329.005V287.844Z" fill="#455A64"/>
<path d="M329.005 298.176H324.434V302.896H329.005V298.176Z" fill="#455A64"/>
<g opacity="0.3">
<path d="M236.329 351.17C238.077 342.429 232.395 316.286 232.395 316.286L189.899 321.688L188.15 350.978L236.329 351.17Z" fill="black"/>
</g>
<path d="M182.26 316.286C182.26 316.286 184.131 351.048 176.334 363.005L229.258 364.307C229.258 364.307 233.367 344.003 232.431 316.286H182.26Z" fill="#6FDA44"/>
<path d="M232.255 323.016C232.255 323.139 221.233 323.244 207.65 323.244C194.067 323.244 183.045 323.139 183.045 323.016C183.045 322.894 194.058 322.789 207.65 322.789C221.241 322.789 232.255 322.894 232.255 323.016Z" fill="#263238"/>
<path d="M226.374 334.912C226.374 335.035 217.563 335.14 206.707 335.14C195.852 335.14 187.041 335.035 187.041 334.912C187.041 334.79 195.843 334.685 206.707 334.685C217.572 334.685 226.374 334.79 226.374 334.912Z" fill="#263238"/>
<path d="M226.837 341.406C226.837 341.529 218.035 341.634 207.17 341.634C196.306 341.634 187.504 341.529 187.504 341.406C187.504 341.284 196.306 341.179 207.162 341.179C218.017 341.179 226.837 341.284 226.837 341.406Z" fill="#263238"/>
<path d="M225.569 347.901C225.569 348.023 216.759 348.128 205.903 348.128C195.047 348.128 186.236 348.023 186.236 347.901C186.236 347.778 195.038 347.673 205.903 347.673C216.767 347.673 225.569 347.778 225.569 347.901Z" fill="#263238"/>
<g opacity="0.3">
<path d="M173.518 316.933C173.518 316.933 175.782 342.665 175.782 351.816H169.262L173.518 316.933Z" fill="black"/>
</g>
<path d="M157.881 316.933C157.881 316.933 159.752 351.703 151.955 363.651H169.384C169.384 363.651 174.392 344.649 173.518 316.933H157.881Z" fill="#E0E0E0"/>
<path d="M401.517 165.755L430.825 132.069L401.316 110.637L424.47 97.0103C424.47 97.0103 460.788 119.08 460.307 132.331C459.879 144.393 414.095 174.907 414.095 174.907L401.517 165.755Z" fill="#FFBF9D"/>
<path d="M378.53 242.323C375.049 248.035 370.267 252.845 364.575 256.359C358.883 259.873 352.441 261.993 345.774 262.546C339.107 263.099 332.404 262.069 326.21 259.541C320.017 257.012 314.508 253.056 310.133 247.995C305.759 242.934 302.641 236.911 301.035 230.417C299.429 223.923 299.38 217.141 300.891 210.625C302.403 204.108 305.432 198.04 309.733 192.916C314.034 187.792 319.485 183.757 325.641 181.139C333.917 177.618 343.098 176.816 351.86 178.849C360.622 180.881 368.512 185.642 374.394 192.447C380.276 199.251 383.846 207.747 384.589 216.711C385.332 225.674 383.211 234.642 378.53 242.323ZM308.439 199.599C303.524 207.661 301.65 217.213 303.155 226.535C304.66 235.857 309.445 244.334 316.649 250.439C323.852 256.544 332.999 259.875 342.441 259.832C351.883 259.789 361 256.375 368.147 250.204C375.294 244.034 380.002 235.513 381.423 226.178C382.843 216.844 380.882 207.308 375.893 199.291C370.904 191.275 363.216 185.303 354.214 182.454C345.211 179.605 335.487 180.065 326.794 183.752C319.176 186.974 312.757 192.5 308.439 199.555V199.599Z" fill="#6FDA44"/>
<g opacity="0.3">
<path d="M378.53 242.323C375.049 248.035 370.267 252.845 364.575 256.359C358.883 259.873 352.441 261.993 345.774 262.546C339.107 263.099 332.404 262.069 326.21 259.541C320.017 257.012 314.508 253.056 310.133 247.995C305.759 242.934 302.641 236.911 301.035 230.417C299.429 223.923 299.38 217.141 300.891 210.625C302.403 204.108 305.432 198.04 309.733 192.916C314.034 187.792 319.485 183.757 325.641 181.139C333.917 177.618 343.098 176.816 351.86 178.849C360.622 180.881 368.512 185.642 374.394 192.447C380.276 199.251 383.846 207.747 384.589 216.711C385.332 225.674 383.211 234.642 378.53 242.323ZM308.439 199.599C303.524 207.661 301.65 217.213 303.155 226.535C304.66 235.857 309.445 244.334 316.649 250.439C323.852 256.544 332.999 259.875 342.441 259.832C351.883 259.789 361 256.375 368.147 250.204C375.294 244.034 380.002 235.513 381.423 226.178C382.843 216.844 380.882 207.308 375.893 199.291C370.904 191.275 363.216 185.303 354.214 182.454C345.211 179.605 335.487 180.065 326.794 183.752C319.176 186.974 312.757 192.5 308.439 199.555V199.599Z" fill="black"/>
</g>
<path d="M376.808 240.418C373.326 246.13 368.545 250.939 362.852 254.454C357.16 257.968 350.718 260.088 344.051 260.641C337.384 261.194 330.681 260.164 324.488 257.635C318.294 255.107 312.786 251.151 308.411 246.09C304.036 241.029 300.918 235.006 299.312 228.512C297.706 222.018 297.657 215.236 299.169 208.719C300.68 202.203 303.71 196.135 308.011 191.011C312.312 185.887 317.762 181.852 323.918 179.233C332.195 175.713 341.375 174.911 350.137 176.943C358.899 178.976 366.789 183.737 372.671 190.541C378.553 197.346 382.123 205.842 382.866 214.805C383.61 223.769 381.488 232.737 376.808 240.418ZM306.717 197.693C301.806 205.755 299.936 215.306 301.444 224.625C302.953 233.943 307.74 242.416 314.943 248.517C322.147 254.618 331.292 257.946 340.732 257.9C350.172 257.854 359.284 254.438 366.428 248.267C373.572 242.096 378.276 233.577 379.694 224.244C381.111 214.911 379.149 205.379 374.16 197.365C369.171 189.352 361.484 183.384 352.483 180.537C343.483 177.69 333.762 178.151 325.072 181.838C317.445 185.072 311.025 190.618 306.717 197.693Z" fill="#6FDA44"/>
<path d="M438.586 162.329L440.247 164.951C441.741 167.258 439.914 170.982 436.645 172.494L381.204 206.443L376.029 198.873L430.073 161.035C433.569 158.36 436.663 159.357 438.586 162.329Z" fill="#6FDA44"/>
<path d="M342.282 183.018C342.05 183.04 341.816 183.04 341.583 183.018C341.129 183.018 340.456 182.957 339.59 183.018C337.148 183.121 334.727 183.517 332.379 184.198C330.756 184.671 329.168 185.256 327.624 185.946C325.862 186.742 324.156 187.659 322.52 188.69C320.71 189.821 318.994 191.095 317.389 192.501C315.654 194.002 314.06 195.658 312.625 197.448C311.205 199.245 309.961 201.173 308.911 203.209C307.965 205.124 307.181 207.115 306.568 209.161C305.55 212.64 305.064 216.253 305.126 219.877C305.159 222.319 305.452 224.751 306 227.132C306.157 228.006 306.393 228.618 306.49 229.072C306.566 229.29 306.618 229.516 306.647 229.745C306.551 229.535 306.469 229.319 306.402 229.098C306.28 228.652 306.018 228.023 305.825 227.175C305.202 224.793 304.853 222.347 304.785 219.886C304.676 216.224 305.136 212.568 306.149 209.047C306.755 206.969 307.541 204.948 308.5 203.008C309.556 200.939 310.815 198.98 312.258 197.16C313.711 195.35 315.326 193.676 317.083 192.16C318.72 190.733 320.474 189.446 322.328 188.315C323.983 187.279 325.712 186.368 327.502 185.587C329.068 184.921 330.677 184.36 332.318 183.909C334.689 183.26 337.133 182.917 339.59 182.887C340.261 182.876 340.932 182.899 341.601 182.957C341.829 182.959 342.057 182.979 342.282 183.018Z" fill="white"/>
<path d="M375.427 228.434C375.322 228.434 376.109 226.494 376.659 223.234C376.721 222.823 376.791 222.36 376.852 221.958C376.913 221.555 376.93 221.04 376.983 220.559C377.088 219.598 377.07 218.557 377.088 217.465C377.008 212.724 375.908 208.055 373.862 203.777C373.364 202.807 372.918 201.872 372.394 201.059C372.141 200.648 371.913 200.237 371.66 199.861C371.406 199.485 371.153 199.145 370.917 198.804C368.968 196.138 367.421 194.774 367.491 194.696C367.871 194.991 368.23 195.312 368.566 195.657C368.986 196.036 369.377 196.445 369.737 196.881C370.249 197.434 370.728 198.018 371.17 198.629C371.424 198.961 371.677 199.311 371.948 199.678C372.219 200.045 372.446 200.456 372.717 200.875C373.274 201.757 373.784 202.668 374.247 203.602C375.278 205.767 376.086 208.031 376.659 210.359C377.197 212.694 377.49 215.078 377.534 217.474C377.534 218.575 377.534 219.624 377.385 220.603C377.332 221.083 377.306 221.564 377.228 222.01C377.149 222.456 377.07 222.884 377 223.295C376.869 224.034 376.7 224.767 376.493 225.489C376.363 226.039 376.193 226.579 375.986 227.106C375.838 227.564 375.651 228.008 375.427 228.434Z" fill="white"/>
<path d="M349.205 198.349C349.293 198.445 343.576 203.794 336.435 210.306C329.294 216.818 323.447 222.027 323.324 221.931C323.202 221.835 328.953 216.485 336.094 209.982C343.235 203.479 349.083 198.253 349.205 198.349Z" fill="white"/>
<path d="M360.078 205.245C359.952 205.385 359.815 205.514 359.667 205.63L358.443 206.679L353.916 210.498C350.087 213.715 344.808 218.172 339.057 223.163C333.305 228.154 328.105 232.726 324.372 236.047L319.932 239.98L318.717 241.038C318.583 241.169 318.433 241.284 318.271 241.379C318.388 241.231 318.516 241.094 318.656 240.968L319.819 239.849C320.833 238.879 322.31 237.507 324.189 235.811C327.877 232.428 333.017 227.813 338.794 222.814C344.572 217.814 349.886 213.409 353.776 210.254C355.716 208.671 357.272 207.404 358.4 206.547L359.676 205.56C359.797 205.439 359.932 205.333 360.078 205.245Z" fill="white"/>
<g opacity="0.3">
<path d="M306.961 238.188L365.27 187.877C365.27 187.877 371.03 192.248 373.477 196.233L313.805 247.567C310.944 244.908 308.62 241.724 306.961 238.188Z" fill="white"/>
</g>
<g opacity="0.3">
<path d="M320.195 252.287L377.009 202.798C377.009 202.798 377.289 202.335 378.067 205.892L322.984 253.834C321.949 253.537 320.995 253.008 320.195 252.287Z" fill="white"/>
</g>
<path d="M401.518 165.755C401.518 165.755 384.421 184.591 384.036 185.299C383.652 186.007 379.045 196.88 380.182 199.083C381.318 201.285 389.884 209.021 389.884 209.021C389.884 209.021 392.943 207.701 390.05 202.527L387.157 197.361L388.713 192.117C388.713 192.117 391.02 198.733 392.357 200.184C393.695 201.635 398.992 204.117 400.32 202.806C401.113 202.048 401.648 201.061 401.85 199.983C401.85 199.983 405.477 202.868 408.038 198.279C408.038 198.279 411.263 197.781 412.644 195.525C414.025 193.27 413.886 189.005 413.886 189.005C413.752 188.727 413.558 188.482 413.316 188.29C413.075 188.097 412.793 187.962 412.492 187.894C412.191 187.826 411.879 187.826 411.578 187.896C411.278 187.966 410.997 188.103 410.756 188.297C409.386 189.338 408.328 190.734 407.697 192.335L406.203 190.342C406.592 187.652 407.36 185.03 408.484 182.554C409.524 180.561 416.237 176.217 417.032 172.756C417.705 169.828 411.849 167.888 408.842 168.054C408.391 168.079 407.947 168.17 407.522 168.325L401.518 165.755Z" fill="#FFBF9D"/>
<path d="M400.032 189.809C400.005 189.98 400.005 190.154 400.032 190.325C400.07 190.785 400.149 191.242 400.268 191.688C400.653 193.185 401.418 194.557 402.491 195.671C403.563 196.784 404.905 197.601 406.386 198.043C406.831 198.177 407.287 198.271 407.75 198.322C407.917 198.349 408.089 198.349 408.256 198.322C408.256 198.27 407.531 198.218 406.438 197.85C405.01 197.372 403.715 196.56 402.662 195.482C401.628 194.389 400.865 193.069 400.434 191.627C400.101 190.535 400.075 189.809 400.032 189.809Z" fill="#FF9A6C"/>
<path d="M394.28 189.241C394.261 189.421 394.261 189.603 394.28 189.783C394.29 189.997 394.313 190.21 394.35 190.421C394.379 190.715 394.425 191.007 394.49 191.295C394.652 192.014 394.871 192.718 395.145 193.402C395.835 195.078 396.865 196.593 398.17 197.851C398.706 198.369 399.292 198.834 399.918 199.24C400.171 199.424 400.425 199.555 400.634 199.686C400.844 199.817 401.045 199.905 401.203 199.975C401.363 200.064 401.533 200.135 401.71 200.184C401.71 200.141 401.028 199.817 400.023 199.092C399.431 198.67 398.875 198.199 398.362 197.684C397.735 197.056 397.168 196.371 396.666 195.639C396.119 194.869 395.634 194.057 395.215 193.209C394.982 192.574 394.807 191.918 394.691 191.251C394.376 190.01 394.332 189.232 394.28 189.241Z" fill="#FF9A6C"/>
<path d="M387.734 187.877C387.734 187.877 387.585 188.131 387.524 188.585C387.461 189.177 387.533 189.774 387.734 190.334C387.911 190.913 388.243 191.433 388.695 191.837C389.027 192.152 389.281 192.283 389.298 192.256C388.728 191.68 388.277 190.997 387.97 190.246C387.742 189.479 387.661 188.675 387.734 187.877Z" fill="#FF9A6C"/>
<path d="M446.697 130.067C446.697 130.137 445.762 129.508 444.136 128.922C442.025 128.156 439.753 127.942 437.537 128.301C435.328 128.702 433.287 129.748 431.672 131.308C430.413 132.488 429.793 133.38 429.723 133.336C429.816 133.094 429.949 132.869 430.116 132.672C430.516 132.105 430.964 131.573 431.453 131.081C433.062 129.375 435.176 128.232 437.484 127.821C439.777 127.446 442.128 127.715 444.276 128.599C444.924 128.857 445.544 129.179 446.129 129.56C446.505 129.866 446.714 130.041 446.697 130.067Z" fill="#FF9A6C"/>
<path d="M358.06 52.1795C358.06 46.4544 358.06 40.6944 357.063 35.0479C356.067 29.4015 354.1 23.8337 350.551 19.3148C350.01 18.6331 345.875 14.2365 345.08 14.5774C344.512 14.8309 347.588 19.1837 347.457 19.8218C346.199 25.6081 347.317 31.7178 349.59 37.1894C351.847 42.488 354.688 47.5187 358.06 52.1883" fill="#263238"/>
<path d="M351.828 31.2108C347.851 17.4007 336.506 8.20552 322.809 12.5671L321.568 13.0391C315.541 15.3531 310.607 19.8506 307.745 25.6372C304.883 31.4237 304.304 38.0754 306.123 44.2693C309.619 56.2177 313.675 69.3724 316.131 75.5607C321.236 88.3745 334.88 85.4376 334.88 85.4376L343.393 105.017L370.489 91.1278L351.828 31.2108Z" fill="#FFBF9D"/>
<path d="M334.939 85.5337C340.876 83.2422 346.032 79.2993 349.799 74.1709C349.799 74.1709 350.183 86.2067 336.889 89.9827L334.939 85.5337Z" fill="#FF9A6C"/>
<path d="M315.299 55.8769C315.482 56.3538 315.844 56.7405 316.308 56.9544C316.771 57.1683 317.3 57.1925 317.782 57.0219C318.022 56.9512 318.246 56.833 318.44 56.6744C318.634 56.5158 318.795 56.32 318.912 56.0984C319.029 55.8769 319.101 55.6341 319.123 55.3844C319.145 55.1347 319.117 54.8832 319.04 54.6445C318.851 54.1738 318.487 53.7945 318.024 53.586C317.561 53.3775 317.036 53.3559 316.558 53.5257C316.32 53.5967 316.099 53.7139 315.907 53.8708C315.715 54.0276 315.556 54.2208 315.439 54.4393C315.322 54.6579 315.25 54.8974 315.226 55.1442C315.202 55.3909 315.227 55.6399 315.299 55.8769Z" fill="#263238"/>
<path d="M310.956 48.5522C311.28 48.7096 312.276 47.145 314.26 46.3846C316.244 45.6241 318.071 46.0699 318.185 45.7465C318.255 45.5979 317.853 45.2483 317.048 45.0298C315.964 44.7665 314.825 44.8459 313.788 45.257C312.758 45.645 311.879 46.3526 311.28 47.2761C310.843 47.9754 310.808 48.4911 310.956 48.5522Z" fill="#263238"/>
<path d="M332.213 49.942C332.391 50.4239 332.75 50.8171 333.214 51.0376C333.678 51.2581 334.21 51.2884 334.696 51.122C334.937 51.0513 335.162 50.9328 335.357 50.7736C335.552 50.6144 335.712 50.4177 335.83 50.1952C335.947 49.9726 336.019 49.7288 336.04 49.4781C336.061 49.2274 336.032 48.975 335.954 48.7358C335.777 48.2539 335.417 47.8607 334.953 47.6402C334.49 47.4197 333.958 47.3894 333.472 47.5558C333.231 47.6275 333.007 47.7466 332.813 47.9061C332.619 48.0655 332.458 48.2621 332.341 48.4844C332.224 48.7066 332.152 48.95 332.13 49.2003C332.108 49.4506 332.137 49.7027 332.213 49.942Z" fill="#263238"/>
<path d="M330.64 41.9182C330.964 42.0756 331.96 40.5022 333.944 39.7506C335.928 38.9989 337.746 39.4359 337.869 39.1037C337.939 38.9639 337.537 38.6143 336.732 38.3958C335.649 38.1337 334.511 38.21 333.472 38.6143C332.44 39.0083 331.56 39.718 330.955 40.6421C330.535 41.3413 330.492 41.857 330.64 41.9182Z" fill="#263238"/>
<path d="M329.381 59.8449C329.381 59.7225 328.035 59.9847 325.946 60.4917C325.422 60.6403 324.906 60.7189 324.688 60.4043C324.44 59.9007 324.357 59.3318 324.451 58.7785C324.451 57.38 324.451 55.9029 324.451 54.3645C324.451 48.0887 324.198 43.0017 323.945 43.0017C323.691 43.0017 323.508 48.0975 323.534 54.3645C323.534 55.9116 323.534 57.38 323.586 58.7873C323.508 59.5174 323.684 60.2521 324.084 60.8675C324.228 61.0168 324.402 61.132 324.596 61.2046C324.79 61.2772 324.997 61.3054 325.203 61.2871C325.502 61.252 325.795 61.1815 326.077 61.0773C328.166 60.4218 329.416 59.9585 329.381 59.8449Z" fill="#263238"/>
<path d="M335.727 58.9796C335.395 59.0845 336.216 61.226 334.966 63.4548C333.716 65.6837 331.339 66.3305 331.47 66.6364C331.47 66.785 332.143 66.8549 333.113 66.5141C334.367 66.0523 335.421 65.1684 336.094 64.0142C336.732 62.8895 336.911 61.5616 336.592 60.3082C336.312 59.3467 335.867 58.9097 335.727 58.9796Z" fill="#263238"/>
<path d="M327.667 33.8504C328.07 34.3136 329.949 33.2997 332.379 32.6879C334.809 32.076 336.924 31.9886 337.046 31.3943C337.099 31.1058 336.574 30.73 335.621 30.5202C334.365 30.2609 333.066 30.2998 331.828 30.6338C330.588 30.9397 329.44 31.5392 328.48 32.382C327.755 33.0375 327.493 33.6319 327.667 33.8504Z" fill="#263238"/>
<path d="M309.252 41.6645C309.776 41.9792 310.956 40.9915 312.591 40.3447C314.225 39.6979 315.729 39.4706 315.869 38.885C315.921 38.6053 315.528 38.2382 314.758 38.0109C313.75 37.8221 312.707 37.9334 311.761 38.3312C310.815 38.7289 310.006 39.3956 309.435 40.2485C308.998 40.974 308.998 41.5072 309.252 41.6645Z" fill="#263238"/>
<path d="M354.449 41.1488C354.633 40.9653 362.316 35.1353 365.384 44.042C368.452 52.9487 358.924 54.2248 358.82 53.9713C358.715 53.7179 354.449 41.1488 354.449 41.1488Z" fill="#FFBF9D"/>
<path d="M360.366 49.6534C360.366 49.6534 360.559 49.7059 360.865 49.7321C361.289 49.7641 361.709 49.6292 362.036 49.3562C362.849 48.6832 363.128 46.9176 362.613 45.2918C362.376 44.525 361.977 43.8183 361.442 43.2203C361.26 42.9723 361.022 42.7719 360.746 42.6364C360.471 42.5009 360.166 42.4343 359.859 42.4424C359.667 42.4636 359.487 42.5481 359.348 42.6825C359.209 42.817 359.118 42.9938 359.09 43.1853C359.09 43.4738 359.178 43.6311 359.134 43.6661C359.09 43.701 358.889 43.5787 358.837 43.1853C358.805 42.9465 358.861 42.7043 358.994 42.5036C359.175 42.2337 359.454 42.0454 359.772 41.9791C360.163 41.9245 360.561 41.9715 360.928 42.1154C361.296 42.2592 361.62 42.4953 361.87 42.8008C362.521 43.4377 363.002 44.2282 363.268 45.0995C363.836 46.9089 363.504 48.9105 362.342 49.7321C362.128 49.8838 361.882 49.9854 361.623 50.0293C361.365 50.0731 361.099 50.0582 360.847 49.9855C360.454 49.8632 360.34 49.6796 360.366 49.6534Z" fill="#FF9A6C"/>
<path d="M306.944 27.5134C305.196 27.2075 307.984 21.0541 310.991 18.2484C315.536 13.9917 323.227 9.72627 328.664 9.45531C335.193 9.1319 341.146 10.4255 345.971 14.8395C350.725 19.3864 354.179 25.1192 355.979 31.4467C356.696 33.32 356.898 35.3512 356.564 37.3291C355.979 39.7241 354.012 41.7781 355.035 44.4702C355.236 44.952 355.34 45.4689 355.34 45.9911C355.34 46.5133 355.236 47.0302 355.035 47.512C353.986 49.802 351.433 48.8405 349.965 47.512C346.818 44.68 345.184 40.5719 343.663 36.6211C342.579 33.8154 341.478 30.9397 341.356 27.933C341.294 26.2985 341.522 24.6552 341.356 23.0207C341.327 22.2 341.121 21.3952 340.751 20.6618C340.381 19.9285 339.857 19.284 339.214 18.7728C338.904 18.5798 338.576 18.4159 338.235 18.2833C336.623 17.617 334.862 17.3921 333.134 17.6317C331.405 17.8714 329.772 18.5669 328.402 19.6469C323.97 23.1431 316.279 28.6847 313.455 27.7407C309.4 26.3684 308.08 25.0311 308.08 25.0311L306.944 27.5134Z" fill="#263238"/>
<path d="M293.467 110.409C293.467 110.409 292.191 106.808 296.517 101.966C300.844 97.1236 335.133 87.6138 335.133 87.6138C335.133 87.6138 347.597 101.73 358.383 92.089C366.25 85.0965 366.512 78.104 366.512 78.104H397.541L401.413 109.981L389.045 110.051L293.467 110.409Z" fill="#6FDA44"/>
<path d="M391.902 78.0952C391.902 78.0952 399.996 76.4607 407.391 79.8433C419.811 85.481 441.392 103.443 441.392 103.443L415.17 124.989L396.989 110.077L391.902 78.0952Z" fill="#6FDA44"/>
<path d="M403.178 115.226C403.058 115.182 402.943 115.123 402.837 115.051C402.627 114.92 402.313 114.727 401.963 114.456C400.874 113.701 399.842 112.866 398.878 111.957C397.432 110.614 396.128 109.126 394.988 107.516C393.538 105.553 392.549 103.289 392.095 100.891C391.221 95.8039 391.981 90.9791 393.625 88.0073C394.254 86.8218 395.123 85.7801 396.177 84.948C396.469 84.7345 396.776 84.5418 397.095 84.3712C397.304 84.2488 397.427 84.1876 397.435 84.2051C397.444 84.2226 397.016 84.5197 396.282 85.0791C395.303 85.9426 394.496 86.9836 393.904 88.1471C392.383 91.0752 391.649 95.8126 392.541 100.795C392.985 103.129 393.937 105.337 395.329 107.263C396.437 108.865 397.699 110.355 399.096 111.712C400.038 112.64 401.03 113.515 402.068 114.334C402.454 114.611 402.824 114.909 403.178 115.226Z" fill="#263238"/>
<path d="M396.964 109.999C396.964 110.121 375.602 110.313 349.249 110.418C322.896 110.523 301.525 110.506 301.525 110.375C301.525 110.244 322.887 110.069 349.249 109.964C375.611 109.859 396.964 109.868 396.964 109.999Z" fill="#263238"/>
<path d="M282.286 105.637C282.347 105.768 282.4 105.899 282.452 106.03C282.667 106.651 282.797 107.298 282.837 107.953C282.834 108.263 282.849 108.572 282.881 108.88C282.951 109.067 283.036 109.248 283.134 109.422C283.518 110.659 283.634 111.964 283.475 113.25C283.31 114.653 283.556 116.074 284.183 117.341C284.917 118.547 286.622 119.255 287.784 118.451C287.728 118.896 287.836 119.346 288.089 119.716C288.342 120.087 288.722 120.352 289.156 120.461C289.597 120.556 290.054 120.536 290.484 120.403C290.914 120.269 291.303 120.028 291.612 119.701C292.228 119.044 292.651 118.23 292.836 117.35C292.854 117.876 293.076 118.375 293.454 118.742C293.832 119.108 294.337 119.314 294.864 119.316C295.39 119.291 295.901 119.134 296.351 118.859C296.8 118.584 297.172 118.2 297.434 117.743C297.939 116.819 298.237 115.796 298.308 114.745C298.446 113.394 298.659 112.051 298.946 110.724C298.946 110.724 300.266 110.943 300.869 110.995H301.044C301.573 110.336 301.998 109.599 302.302 108.81C303.176 107.062 303.788 105.978 304.426 104.44C304.916 103.268 305.222 102.088 304.496 101.328C302.748 99.4837 299.322 103.233 299.322 103.233C298.832 101.922 294.855 101.713 294.077 103.452C293.763 102.49 293.885 101.94 293.107 101.293C292.726 100.963 292.273 100.727 291.784 100.604C291.295 100.481 290.784 100.474 290.293 100.585C289.796 100.704 289.353 100.987 289.036 101.388C288.719 101.789 288.546 102.285 288.545 102.796C288.119 102.142 287.506 101.63 286.786 101.329C286.065 101.028 285.271 100.952 284.506 101.109C283.591 101.333 282.791 101.887 282.26 102.665C281.997 103.048 281.805 103.474 281.692 103.924C281.63 104.092 281.597 104.269 281.596 104.448C281.61 104.528 281.637 104.604 281.674 104.676C281.902 104.99 282.129 105.287 282.286 105.637Z" fill="#FFBF9D"/>
<path d="M278.083 103.094C277.651 103.046 277.214 103.092 276.802 103.229C276.39 103.366 276.013 103.592 275.696 103.889C275.062 104.866 274.799 106.038 274.953 107.193C276.151 107.42 276.772 107.473 277.978 107.7C278.231 107.744 278.441 107.7 278.651 107.831C279.201 108.224 279.114 109.579 279.333 110.191C279.568 110.732 280.002 111.163 280.544 111.395C281.087 111.627 281.698 111.644 282.252 111.441C282.795 111.207 283.261 110.823 283.594 110.334C283.926 109.844 284.113 109.27 284.131 108.679C284.139 107.486 283.703 106.333 282.907 105.445C282.309 104.741 281.571 104.169 280.741 103.765C279.911 103.36 279.006 103.132 278.083 103.094Z" fill="#FFBF9D"/>
<path d="M288.597 102.473C288.824 102.473 288.824 106.083 288.597 110.506C288.37 114.928 288.003 118.503 287.784 118.495C287.566 118.486 287.557 114.885 287.784 110.462C288.012 106.039 288.379 102.421 288.597 102.473Z" fill="#FF9A6C"/>
<path d="M294.139 103.19C294.358 103.19 294.646 106.459 294.297 110.479C293.947 114.5 293.108 117.682 292.898 117.638C292.689 117.594 293.152 114.378 293.484 110.409C293.816 106.441 293.886 103.198 294.139 103.19Z" fill="#FF9A6C"/>
<path d="M299.523 103.933C299.751 103.933 299.847 106.651 299.418 109.955C298.99 113.259 298.492 115.873 298.282 115.855C298.072 115.838 298.195 113.128 298.614 109.85C299.034 106.573 299.296 103.924 299.523 103.933Z" fill="#FF9A6C"/>
<path d="M279.813 103.653C279.813 103.557 280.39 103.426 281.22 103.81C282.267 104.347 283.061 105.273 283.431 106.389C283.82 107.449 284.007 108.573 283.982 109.702C283.886 110.698 283.16 110.986 283.108 110.855C283.055 110.724 283.44 110.418 283.37 109.684C283.224 108.66 282.978 107.653 282.636 106.677C282.309 105.728 281.699 104.901 280.888 104.309C280.311 103.872 279.804 103.775 279.813 103.653Z" fill="#FF9A6C"/>
<path d="M412.277 380.599C416.35 377.953 419.574 374.19 421.564 369.76C423.555 365.33 424.227 360.42 423.5 355.618L433.42 349.115L434.828 348.241L513.38 296.759C517.167 299.168 521.528 300.524 526.014 300.689C530.499 300.854 534.948 299.821 538.902 297.696C542.856 295.571 546.172 292.432 548.51 288.6C550.849 284.768 552.124 280.383 552.205 275.895L547.617 275.1L542.617 282.092L531.123 279.671L524.707 269.838L527.129 258.335L536.682 252.103L530.214 250.408C523.361 248.389 519.559 250.032 513.109 254.245C509.051 256.892 505.839 260.65 503.857 265.072C501.875 269.493 501.206 274.391 501.929 279.182L422.066 331.529L419.593 333.138L412.023 338.094C407.93 335.5 403.177 334.138 398.33 334.171C393.484 334.203 388.75 335.629 384.691 338.277C378.267 342.464 369.605 351.178 368.67 358.232L373.233 358.984L382.786 352.752L394.289 355.173L400.704 365.006L398.283 376.509L387.995 379.41L388.721 382.741C392.523 384.335 396.659 384.974 400.765 384.601C404.872 384.227 408.824 382.854 412.277 380.599Z" fill="#E0E0E0"/>
<g opacity="0.3">
<path d="M412.277 380.599C416.35 377.953 419.574 374.19 421.564 369.76C423.555 365.33 424.227 360.42 423.5 355.618L433.42 349.115L434.828 348.241L513.38 296.759C517.167 299.168 521.528 300.524 526.014 300.689C530.499 300.854 534.948 299.821 538.902 297.696C542.856 295.571 546.172 292.432 548.51 288.6C550.849 284.768 552.124 280.383 552.205 275.895L547.617 275.1L542.617 282.092L531.123 279.671L524.707 269.838L527.129 258.335L536.682 252.103L530.214 250.408C523.361 248.389 519.559 250.032 513.109 254.245C509.051 256.892 505.839 260.65 503.857 265.072C501.875 269.493 501.206 274.391 501.929 279.182L422.066 331.529L419.593 333.138L412.023 338.094C407.93 335.5 403.177 334.138 398.33 334.171C393.484 334.203 388.75 335.629 384.691 338.277C378.267 342.464 369.605 351.178 368.67 358.232L373.233 358.984L382.786 352.752L394.289 355.173L400.704 365.006L398.283 376.509L387.995 379.41L388.721 382.741C392.523 384.335 396.659 384.974 400.765 384.601C404.872 384.227 408.824 382.854 412.277 380.599Z" fill="black"/>
</g>
<path d="M407.714 379.848C411.781 377.198 414.997 373.432 416.98 369.002C418.963 364.572 419.627 359.665 418.893 354.867L428.823 348.355L430.221 347.481L508.773 295.99C512.562 298.407 516.928 299.77 521.419 299.937C525.911 300.105 530.366 299.07 534.324 296.942C538.282 294.813 541.601 291.666 543.938 287.827C546.274 283.987 547.544 279.594 547.617 275.1L538.002 281.341L526.508 278.92L520.092 269.078L522.513 257.584L532.076 251.343C527.937 249.606 523.411 249.003 518.962 249.595C514.513 250.187 510.302 251.954 506.762 254.713C503.222 257.473 500.481 261.125 498.82 265.295C497.16 269.465 496.64 274.002 497.314 278.439L417.451 330.795L415.013 332.351L407.443 337.316C403.654 334.915 399.295 333.566 394.812 333.407C390.329 333.248 385.885 334.285 381.936 336.412C377.987 338.539 374.675 341.678 372.34 345.508C370.006 349.339 368.733 353.721 368.652 358.206L378.215 351.965L389.708 354.386L396.124 364.228L393.703 375.722L384.167 381.989C387.968 383.582 392.102 384.22 396.207 383.847C400.312 383.474 404.263 382.1 407.714 379.848Z" fill="#E0E0E0"/>
<path d="M407.714 379.848C407.714 379.848 407.26 380.145 406.359 380.722C404.981 381.494 403.539 382.149 402.05 382.68C396.197 384.681 389.813 384.47 384.106 382.085L383.948 382.024L384.097 381.928L393.65 375.678L393.598 375.739C394.341 372.2 395.145 368.345 396.002 364.246V364.342C394 361.265 391.841 357.961 389.577 354.509L389.665 354.561L378.162 352.157H378.276L368.713 358.407L368.469 358.564V358.276C368.532 353.982 369.685 349.775 371.819 346.05C373.953 342.324 376.999 339.201 380.671 336.975C384.614 334.545 389.15 333.247 393.782 333.225C398.638 333.215 403.397 334.585 407.504 337.176H407.303L497.236 278.247L497.139 278.456C496.439 273.714 497.078 268.87 498.984 264.471C500.816 260.275 503.745 256.65 507.462 253.977C511.18 251.304 515.549 249.681 520.11 249.28C524.229 248.922 528.374 249.567 532.189 251.159L532.565 251.326L532.224 251.544L522.662 257.785L522.758 257.645C521.948 261.508 521.141 265.34 520.337 269.139V268.982L526.753 278.815L526.622 278.727L538.115 281.149H537.958L547.52 274.916L547.853 274.707V275.091C547.764 279.765 546.389 284.323 543.881 288.267C541.372 292.211 537.826 295.388 533.632 297.45C529.646 299.444 525.204 300.348 520.757 300.072C516.461 299.787 512.304 298.438 508.66 296.147H508.861L418.928 354.972V354.876C419.531 359.021 419.117 363.25 417.722 367.2C416.703 370.071 415.175 372.736 413.212 375.066C412.012 376.469 410.668 377.741 409.2 378.86C408.177 379.568 407.653 379.917 407.653 379.917L409.165 378.816C410.617 377.685 411.95 376.408 413.142 375.005C415.448 372.243 417.139 369.022 418.104 365.556C419.068 362.09 419.284 358.458 418.736 354.902V354.841H418.788L508.616 295.868L508.721 295.807L508.826 295.868C512.414 298.125 516.509 299.45 520.739 299.722C525.12 300.004 529.496 299.117 533.422 297.153C537.535 295.115 541.01 291.986 543.465 288.108C545.921 284.23 547.263 279.751 547.346 275.161L547.66 275.336L538.098 281.577L538.028 281.62H537.941L526.447 279.208H526.359V279.138L519.935 269.296L519.891 269.226V269.139C520.69 265.334 521.497 261.503 522.312 257.645V257.558L522.382 257.505L531.945 251.273V251.649C528.19 250.07 524.107 249.43 520.05 249.785C515.993 250.14 512.083 251.479 508.66 253.685C504.558 256.355 501.331 260.169 499.377 264.655C497.502 268.985 496.875 273.754 497.568 278.421V278.553L497.454 278.631L407.548 337.499L407.443 337.56L407.338 337.499C403.283 334.936 398.579 333.583 393.782 333.601C389.323 333.626 384.95 334.835 381.111 337.103C377.272 339.371 374.104 342.618 371.93 346.511C369.94 350.103 368.86 354.127 368.783 358.232L368.539 358.101L378.153 351.869H378.215L389.708 354.299H389.761V354.351L396.168 364.193V364.237V364.289C395.294 368.38 394.481 372.234 393.729 375.783V375.827L384.114 382.05V381.893C389.783 384.273 396.123 384.512 401.954 382.566C403.445 382.05 404.889 381.41 406.272 380.652L407.714 379.848Z" fill="#263238"/>
<path d="M505.233 292.476C505.233 292.476 505.015 292.362 504.665 292.109C504.172 291.733 503.702 291.327 503.258 290.894C500.309 288.018 498.304 284.315 497.506 280.274C497.381 279.669 497.3 279.056 497.262 278.439C497.228 278.216 497.228 277.989 497.262 277.766C497.332 277.766 497.445 278.71 497.804 280.213C498.279 282.164 499.002 284.047 499.954 285.816C500.91 287.579 502.084 289.215 503.45 290.684C504.534 291.803 505.277 292.415 505.233 292.476Z" fill="#263238"/>
<path d="M156.257 57.0217H93.5254C88.7609 57.0217 84.8984 60.8842 84.8984 65.6487V128.38C84.8984 133.145 88.7609 137.007 93.5254 137.007H156.257C161.021 137.007 164.884 133.145 164.884 128.38V65.6487C164.884 60.8842 161.021 57.0217 156.257 57.0217Z" fill="#6FDA44"/>
<g opacity="0.3">
<path d="M156.257 57.0217H93.5254C88.7609 57.0217 84.8984 60.8842 84.8984 65.6487V128.38C84.8984 133.145 88.7609 137.007 93.5254 137.007H156.257C161.021 137.007 164.884 133.145 164.884 128.38V65.6487C164.884 60.8842 161.021 57.0217 156.257 57.0217Z" fill="black"/>
</g>
<path d="M144.526 57.0217H81.795C77.0304 57.0217 73.168 60.8842 73.168 65.6487V128.38C73.168 133.145 77.0304 137.007 81.795 137.007H144.526C149.291 137.007 153.153 133.145 153.153 128.38V65.6487C153.153 60.8842 149.291 57.0217 144.526 57.0217Z" fill="#6FDA44"/>
<path d="M101.898 79.1878C103.548 78.1852 105.327 77.4118 107.186 76.889L108.27 71.6446L117.115 71.4873L118.392 76.6792C120.267 77.1402 122.072 77.8516 123.758 78.7945L128.225 75.8576L134.597 81.976L131.826 86.5474C132.821 88.2006 133.591 89.9789 134.116 91.8355L139.36 92.928L139.518 101.774L134.326 103.05C133.863 104.925 133.152 106.73 132.21 108.416L135.147 112.883L129.029 119.246L124.458 116.475C122.806 117.476 121.028 118.25 119.169 118.774L118.077 124.018L109.231 124.176L107.964 119.01C106.09 118.544 104.285 117.833 102.597 116.895L98.1308 119.823L91.7676 113.704L94.5384 109.142C93.5373 107.488 92.764 105.706 92.2396 103.845L86.9952 102.761L86.8379 93.9157L92.0298 92.6396C92.4946 90.7651 93.2059 88.9604 94.145 87.2729L91.2169 82.8064L97.3354 76.4345L101.907 79.214L101.898 79.1878ZM106.609 90.9701C105.304 92.3205 104.43 94.0275 104.095 95.8752C103.761 97.7229 103.982 99.6283 104.73 101.35C105.479 103.072 106.722 104.534 108.301 105.549C109.88 106.565 111.725 107.09 113.603 107.057C115.48 107.024 117.306 106.435 118.848 105.364C120.391 104.293 121.581 102.789 122.269 101.042C122.956 99.2945 123.11 97.3826 122.711 95.5478C122.312 93.713 121.377 92.0378 120.026 90.7341C118.215 88.9872 115.785 88.0307 113.269 88.075C110.753 88.1192 108.358 89.1606 106.609 90.9701Z" fill="white"/>
<g opacity="0.3">
<path d="M135.183 57.0217L73.168 106.555V116.196L147.114 57.0217H135.183Z" fill="white"/>
</g>
<g opacity="0.3">
<path d="M73.2462 127.436L153.153 65.4478V82.8503L81.5935 137.042C80.4895 137.041 79.3965 136.822 78.3776 136.396C77.3587 135.971 76.4339 135.349 75.6565 134.565C74.879 133.781 74.2643 132.851 73.8477 131.829C73.431 130.806 73.2207 129.711 73.2287 128.607L73.2462 127.436Z" fill="white"/>
</g>
</svg>
